<?xml version="1.0" standalone="no"?>
<!DOCTYPE svg PUBLIC "-//W3C//DTD SVG 1.1//EN" "http://www.w3.org/Graphics/SVG/1.1/DTD/svg11.dtd" >
<svg>
<metadata>
Created by FontForge 20090914 at Tue May 10 09:24:57 2016
 By www-data
Copyright 1990-1998 Bitstream Inc.  All rights reserved.
</metadata>
<defs>
<font id="NovareseITCbyBT-Book" horiz-adv-x="1024" >
  <font-face 
    font-family="Novarese Bk BT"
    font-weight="400"
    font-stretch="normal"
    units-per-em="2048"
    panose-1="2 14 5 3 3 5 5 2 4 4"
    ascent="1556"
    descent="-492"
    x-height="963"
    cap-height="1335"
    bbox="-342 -483 2214 1884"
    underline-thickness="72"
    underline-position="-144"
    unicode-range="U+0020-U+F002"
  />
<missing-glyph horiz-adv-x="1229" 
d="M102 -362v1806h1024v-1806h-1024zM217 -248h795v1577h-795v-1577z" />
    <glyph glyph-name=".notdef" horiz-adv-x="1229" 
d="M102 -362v1806h1024v-1806h-1024zM217 -248h795v1577h-795v-1577z" />
    <glyph glyph-name="space" unicode=" " horiz-adv-x="526" 
 />
    <glyph glyph-name="exclam" unicode="!" horiz-adv-x="578" 
d="M289 166c26.667 0 49 -9 67 -27s27 -40.333 27 -67s-9.33301 -49.5 -28 -68.5s-40.667 -28.5 -66 -28.5c-24.667 0 -46.5 9.83301 -65.5 29.5s-28.5 42.167 -28.5 67.5c0 26 8.83301 48.167 26.5 66.5s40.167 27.5 67.5 27.5zM211 1331h158l-45 -952h-68z" />
    <glyph glyph-name="quotedbl" unicode="&#x22;" horiz-adv-x="672" 
d="M514 868l-31 -0.00195312l-61 455c-2 12 -3.16699 20.833 -3.5 26.5s-0.5 11.167 -0.5 16.5c0 30.667 7 54.334 21 71.001s34.333 25 61 25c25.333 0 45 -8.5 59 -25.5s21 -41.167 21 -72.5c0 -8 -1.33301 -20.333 -4 -37c0 -1.33301 -0.333008 -2.66602 -1 -3.99902z
M188 867.998h-30l-62 455v4c-2.66699 16.667 -4 29 -4 37c0 31.333 6.83301 55.5 20.5 72.5s33.5 25.5 59.5 25.5s46.167 -8.33301 60.5 -25s21.5 -40.334 21.5 -71.001c0 -6.66699 -1 -18.667 -3 -36c-0.666992 -3.33301 -1 -5.66602 -1 -6.99902z" />
    <glyph glyph-name="numbersign" unicode="#" horiz-adv-x="1575" 
d="M700 872l-104 -294h295l104 294h-295zM793 1454h114l-172 -483h295l172 483h113l-172 -483h315l-35 -99h-315l-102 -294h340l-37 -99h-340l-170 -479h-113l170 479h-293l-172 -479h-112l170 479h-332l37 99h329l105 294h-359l35 99h359z" />
    <glyph glyph-name="dollar" unicode="$" horiz-adv-x="1053" 
d="M485 1532l97.0049 0.000976562v-201c47.333 -0.666992 95.166 -5.5 143.499 -14.5s98.833 -22.5 151.5 -40.5v-64c0 -25.333 1 -54.166 3 -86.499s5.66699 -76.5 11 -132.5h-29c-10 88 -37.5 153 -82.5 195s-109.5 63 -193.5 63
c-106.667 0 -191.334 -23.667 -254.001 -71s-94 -111 -94 -191c0 -60 21.167 -106.5 63.5 -139.5s126.166 -63.5 251.499 -91.5c162.667 -36.667 270.167 -79.834 322.5 -129.501s78.5 -120.5 78.5 -212.5c0 -107.333 -33.333 -197.5 -100 -270.5
s-157.334 -118.167 -272.001 -135.5v-209h-97v201c-63.333 1.33301 -123.5 9.83301 -180.5 25.5s-109.5 38.5 -157.5 68.5v74c0 34 -0.833008 69.667 -2.5 107s-4.5 85.666 -8.5 144.999h30c11.333 -118 42.833 -204.833 94.5 -260.5s126.5 -83.5 224.5 -83.5
c104 0 188.5 28.833 253.5 86.5s97.5 131.834 97.5 222.501c0 68 -19.167 119.333 -57.5 154s-124.5 66.667 -258.5 96c-144.667 31.333 -245.334 72.666 -302.001 123.999s-85 124 -85 218c0 92 31 168.333 93 229s148.333 99 259 115v209z" />
    <glyph glyph-name="percent" unicode="%" horiz-adv-x="1470" 
d="M1098 553c-66.667 0 -120.167 -20.833 -160.5 -62.5s-60.5 -96.5 -60.5 -164.5c0 -77.333 21.833 -142.5 65.5 -195.5s97.5 -79.5 161.5 -79.5c66 0 119.333 21.167 160 63.5s61 97.833 61 166.5c0 75.333 -22.167 139.5 -66.5 192.5s-97.833 79.5 -160.5 79.5zM1100 629
c97.333 0 178.333 -31 243 -93s97 -139.667 97 -233s-32.167 -171.333 -96.5 -234s-145.5 -94 -243.5 -94c-97.333 0 -178 31.333 -242 94s-96 140.667 -96 234s32 171 96 233s144.667 93 242 93zM367 1280c-66.667 0 -120.332 -20.667 -160.999 -62s-61 -96.333 -61 -165
c0 -77.333 22 -142.5 66 -195.5s98 -79.5 162 -79.5c65.333 0 118.166 21.167 158.499 63.5s60.5 97.833 60.5 166.5c0 75.333 -22 139.5 -66 192.5s-97 79.5 -159 79.5zM1122 1356l68 -43l-842 -1338l-67 43zM369.002 1356c96.667 0 177.167 -31.333 241.5 -94
s96.5 -140.667 96.5 -234s-32 -171 -96 -233s-144.667 -93 -242 -93c-98 0 -178.833 31 -242.5 93s-95.5 139.667 -95.5 233s32 171.333 96 234s144.667 94 242 94z" />
    <glyph glyph-name="ampersand" unicode="&#x26;" horiz-adv-x="1309" 
d="M891 1292c0 -39.333 2.16699 -80.332 6.5 -122.999s10.833 -87.667 19.5 -135h-34c-28 82 -65.5 142.833 -112.5 182.5s-105.167 59.5 -174.5 59.5c-76 0 -138 -22.5 -186 -67.5s-72 -103.167 -72 -174.5c0 -66.667 20.333 -124.5 61 -173.5s94.667 -79.833 162 -92.5
c14 -2.66699 32.667 -5.33398 56 -8.00098c42 -5.33301 63 -17 63 -35c0 -14.667 -22.667 -24 -68 -28c-5.33301 0 -9.33301 -0.333008 -12 -1c-118 -8 -208.167 -38.833 -270.5 -92.5s-93.5 -127.167 -93.5 -220.5c0 -90.667 33 -168 99 -232s147.667 -96 245 -96
c111.333 0 201.833 36.167 271.5 108.5s104.5 167.5 104.5 285.5v4h-77c-74 0 -126.667 -7.66699 -158 -23s-56.666 -42.666 -75.999 -81.999h-29c20 72 46.5 123.167 79.5 153.5s78.167 45.5 135.5 45.5h232c73.333 0 126 7.83301 158 23.5s57.667 43.167 77 82.5h29
c-20 -72 -46.5 -123.333 -79.5 -154s-78.167 -46 -135.5 -46h-37c-8 -148 -55.5 -264.667 -142.5 -350s-201.167 -128 -342.5 -128c-143.333 0 -259.833 37.667 -349.5 113s-134.5 173 -134.5 293c0 92.667 26.667 167.667 80 225s136 100.333 248 129
c-74.667 30.667 -130.834 70.167 -168.501 118.5s-56.5 105.166 -56.5 170.499c0 96 38.333 175.333 115 238s175.667 94 297 94c47.333 0 94 -5.5 140 -16.5s89.333 -26.833 130 -47.5z" />
    <glyph glyph-name="quotesingle" unicode="'" horiz-adv-x="346" 
d="M188 868l-30 -0.000976562l-62 455v4c-2.66699 16.667 -4 29 -4 37c0 31.333 6.83301 55.5 20.5 72.5s33.5 25.5 59.5 25.5s45.833 -8.16699 59.5 -24.5s20.5 -40.166 20.5 -71.499c0 -10.667 -0.166992 -19 -0.5 -25s-0.833008 -11.667 -1.5 -17z" />
    <glyph glyph-name="parenleft" unicode="(" horiz-adv-x="551" 
d="M442 1358l19 -25.0029c-62.667 -54.667 -108.667 -145.667 -138 -273s-44 -300.333 -44 -519c0 -219.333 14.667 -392.666 44 -519.999s75.333 -218.333 138 -273l-19 -24c-102.667 70 -177.5 169.833 -224.5 299.5s-70.5 302.167 -70.5 517.5
c0 214.667 23.5 386.834 70.5 516.501s121.833 229.834 224.5 300.501z" />
    <glyph glyph-name="parenright" unicode=")" horiz-adv-x="551" 
d="M109 1358c102 -70.667 176.501 -171.167 223.501 -301.5s70.5 -302.166 70.5 -515.499c0 -215.333 -23.333 -387.833 -70 -517.5s-121.334 -229.5 -224.001 -299.5l-19 24c62.667 54.667 108.667 145.667 138 273s44 300.666 44 519.999
c0 218.667 -14.667 391.667 -44 519s-75.333 218.333 -138 273z" />
    <glyph glyph-name="asterisk" unicode="*" 
d="M455 1331h112l-26 -260l209 152l55 -95l-236 -106l236 -107l-55 -96l-209 152l24 -260h-108l24 260l-211 -152l-53 96l236 107l-236 106l51 95l213 -152z" />
    <glyph glyph-name="plus" unicode="+" horiz-adv-x="1706" 
d="M805 1221h98v-562h549v-98h-549v-561h-98v561h-551v98h551v562z" />
    <glyph glyph-name="comma" unicode="," horiz-adv-x="526" 
d="M199 176h157.002c-10.667 -92.667 -32.334 -173.5 -65.001 -242.5s-74.334 -122.5 -125.001 -160.5l-25 24c22.667 36 39.667 74.667 51 116s17 85.333 17 132c0 19.333 -0.833008 40 -2.5 62s-4.16699 45 -7.5 69z" />
    <glyph glyph-name="hyphen" unicode="-" horiz-adv-x="702" 
d="M600 651l35.001 0.00195312c-12.667 -38.667 -23.834 -74.834 -33.501 -108.501s-17.5 -65.834 -23.5 -96.501h-369c-20.667 0 -39 -7.16699 -55 -21.5s-34 -39.833 -54 -76.5h-34c10 31.333 19.833 64 29.5 98s18.834 69.667 27.501 107h369
c20 0 38.167 7.16699 54.5 21.5s34.166 39.833 53.499 76.5z" />
    <glyph glyph-name="period" unicode="." horiz-adv-x="526" 
d="M279 154c23.333 0 43.5 -8.66699 60.5 -26s25.5 -38 25.5 -62s-8.83301 -45.167 -26.5 -63.5s-37.5 -27.5 -59.5 -27.5s-41.5 9.16699 -58.5 27.5s-25.5 39.5 -25.5 63.5s8 44.667 24 62s36 26 60 26z" />
    <glyph glyph-name="slash" unicode="/" horiz-adv-x="569" 
d="M508 1356h84l-533 -1544h-84z" />
    <glyph glyph-name="zero" unicode="0" horiz-adv-x="1053" 
d="M524 1276c-90.667 0 -162.167 -54.168 -214.5 -162.501s-78.5 -257.5 -78.5 -447.5c0 -189.333 26.333 -338.166 79 -446.499s124 -162.5 214 -162.5c91.333 0 163.333 54 216 162s79 257 79 447c0 189.333 -26.333 338.333 -79 447s-124.667 163 -216 163zM526 1356
c134 0 239.169 -61.168 315.502 -183.501s114.5 -291.166 114.5 -506.499c0 -216 -38.167 -385.167 -114.5 -507.5s-181.5 -183.5 -315.5 -183.5c-132.667 0 -237.834 61.667 -315.501 185s-116.5 292 -116.5 506s38.667 382.5 116 505.5s182.666 184.5 315.999 184.5z" />
    <glyph glyph-name="one" unicode="1" horiz-adv-x="1053" 
d="M351 -6l-0.998047 33c44 8.66699 73.833 21.5 89.5 38.5s23.5 57.167 23.5 120.5v975c0 28 -7.83301 47.667 -23.5 59s-52.167 20.333 -109.5 27v31c42.667 12.667 86.667 27.334 132 44.001s92 35.334 140 56.001c-2 -49.333 -3.5 -100.833 -4.5 -154.5
s-1.5 -109.834 -1.5 -168.501v-869c0 -62 7.83301 -101.833 23.5 -119.5s46.167 -30.834 91.5 -39.501l-1 -33c-26.667 4.66699 -54.834 8.16699 -84.501 10.5s-61.5 3.5 -95.5 3.5c-33.333 0 -64.833 -1.16699 -94.5 -3.5s-57.834 -5.83301 -84.501 -10.5z" />
    <glyph glyph-name="two" unicode="2" horiz-adv-x="1053" 
d="M293 123l612.002 -0.000976562l-28 -123h-727l14 119c193.333 150 339 295.833 437 437.5s147 277.167 147 406.5c0 91.333 -22.333 165.333 -67 222s-103.667 85 -177 85c-62 0 -117 -22 -165 -66s-86.667 -108 -116 -192h-45c9.33301 37.333 17.833 78 25.5 122
s15.5 97.333 23.5 160c47.333 20.667 91.166 35.834 131.499 45.501s79.166 14.5 116.499 14.5c119.333 0 217.5 -35.833 294.5 -107.5s115.5 -163.5 115.5 -275.5c0 -127.333 -46.167 -257.5 -138.5 -390.5s-243.5 -285.5 -453.5 -457.5z" />
    <glyph glyph-name="three" unicode="3" horiz-adv-x="1053" 
d="M482 694c119.333 -2 213.829 -28.668 283.496 -80.001s104.5 -119.333 104.5 -204c0 -122 -66 -225 -198 -309s-299.333 -126 -502 -126h-6l-17 66c166 6 301.833 45.167 407.5 117.5s158.5 159.5 158.5 261.5c0 72 -32.167 126.5 -96.5 163.5
s-159.166 55.5 -284.499 55.5h-6c-14.667 -1.33301 -29 -2 -43 -2l12 76c118.667 11.333 213.834 49 285.501 113s107.5 141.667 107.5 233c0 66 -20.833 119 -62.5 159s-96.5 60 -164.5 60c-65.333 0 -120.166 -21.833 -164.499 -65.5s-81.833 -112.5 -112.5 -206.5l-49 2
c9.33301 46.667 17.833 93.667 25.5 141s14.834 96.333 21.501 147c46.667 20 92.5 35 137.5 45s88.833 15 131.5 15c112 0 205.167 -29.333 279.5 -88s111.5 -131 111.5 -217c0 -77.333 -31.5 -147.166 -94.5 -209.499s-151.5 -111.5 -265.5 -147.5z" />
    <glyph glyph-name="four" unicode="4" horiz-adv-x="1053" 
d="M649 1126c-94 -124.667 -178.167 -245 -252.5 -361s-139.5 -229 -195.5 -339h448v700zM702 1356h74v-930h182v-84h-182v-342h-127v342h-563v84c78 147.333 168 298 270 452s217.333 313.333 346 478z" />
    <glyph glyph-name="five" unicode="5" horiz-adv-x="1053" 
d="M207 1331l650.999 -0.000976562l-20 -108h-543l-14 -336c34.667 12.667 69.834 22.334 105.501 29.001s72.167 10 109.5 10c112 0 203.5 -33 274.5 -99s106.5 -150.667 106.5 -254c0 -142.667 -61.167 -268.834 -183.5 -378.501s-285.833 -182.834 -490.5 -219.501
l-13 70c164.667 34.667 296.667 98.334 396 191.001s149 196.334 149 311.001c0 83.333 -28 151.5 -84 204.5s-129 79.5 -219 79.5c-37.333 0 -77 -6 -119 -18s-83 -29 -123 -51z" />
    <glyph glyph-name="six" unicode="6" horiz-adv-x="1053" 
d="M553 815c-90.667 0 -166.667 -35.333 -228 -106s-92 -160.334 -92 -269.001c0 -114 29.667 -206.667 89 -278s136.333 -107 231 -107c92 0 166.167 34.333 222.5 103s84.5 159.334 84.5 272.001c0 114 -28.667 206.667 -86 278s-131 107 -221 107zM774 1380l34.999 -53
c-125.333 -82 -228.833 -167.333 -310.5 -256s-148.167 -187.667 -199.5 -297c43.333 40.667 87.666 70 132.999 88s97.333 27 156 27c111.333 0 207.333 -42.333 288 -127s121 -185 121 -301c0 -136.667 -44.167 -251.834 -132.5 -345.501s-196.166 -140.5 -323.499 -140.5
c-129.333 0 -236.166 46.833 -320.499 140.5s-126.5 213.5 -126.5 359.5c0 178.667 59.833 347.834 179.5 507.501s286.5 292.167 500.5 397.5z" />
    <glyph glyph-name="seven" unicode="7" horiz-adv-x="1053" 
d="M186 1331l784.999 -0.000976562c-146.667 -270 -254.167 -509 -322.5 -717s-108.5 -412.667 -120.5 -614h-159c26.667 212.667 77.167 418.167 151.5 616.5s173.833 394.166 298.5 587.499h-420c-67.333 0 -114.5 -12 -141.5 -36s-50.167 -74 -69.5 -150h-43
c11.333 58.667 20.333 113.834 27 165.501s11.334 100.834 14.001 147.501z" />
    <glyph glyph-name="eight" unicode="8" horiz-adv-x="1053" 
d="M510 705c-90.667 -36.667 -158 -83.002 -202 -139.002s-66 -124 -66 -204c0 -92 28 -167.833 84 -227.5s127 -89.5 213 -89.5c82 0 150.5 27.667 205.5 83s82.5 123.333 82.5 204c0 64.667 -23.333 125.334 -70 182.001s-129 120.334 -247 191.001zM643 763.998
c112.667 -61.333 194.167 -124.833 244.5 -190.5s75.5 -140.834 75.5 -225.501c0 -102.667 -42.667 -190.5 -128 -263.5s-189.666 -109.5 -312.999 -109.5c-118.667 0 -216.5 36.5 -293.5 109.5s-115.5 164.167 -115.5 273.5c0 90 27 168.167 81 234.5
s133.333 118.833 238 157.5c-82.667 48.667 -142.167 97.834 -178.5 147.501s-54.5 105.5 -54.5 167.5c0 84 32 153.5 96 208.5s145.333 82.5 244 82.5c102.667 0 186.667 -28 252 -84s98 -127 98 -213c0 -65.333 -20.333 -122.333 -61 -171s-102.334 -90 -185.001 -124z
M571 806.998c62.667 30.667 109.832 68.499 141.499 113.499s47.5 96.5 47.5 154.5c0 59.333 -21.667 110 -65 152s-96.666 63 -159.999 63c-57.333 0 -105.833 -18.5 -145.5 -55.5s-59.5 -83.167 -59.5 -138.5c0 -53.333 17.333 -101.166 52 -143.499
s97.667 -90.833 189 -145.5z" />
    <glyph glyph-name="nine" unicode="9" horiz-adv-x="1053" 
d="M336 -31l-33.001 60c122 58.667 224.667 139.334 308 242.001s147.333 227.334 192 374.001c-41.333 -56.667 -89 -99.834 -143 -129.501s-111.667 -44.5 -173 -44.5c-110 0 -203 40.667 -279 122s-114 183.333 -114 306c0 137.333 40 249.5 120 336.5
s181.333 130.5 304 130.5c132.667 0 237.834 -47.333 315.501 -142s116.5 -223.334 116.5 -386.001c0 -181.333 -54.667 -349.5 -164 -504.5s-259.333 -276.5 -450 -364.5zM519.999 1284c-84 0 -153.499 -33.167 -208.499 -99.5s-82.5 -151.833 -82.5 -256.5
c0 -110 27.5 -199.333 82.5 -268s124.5 -103 208.5 -103c83.333 0 152.666 34.333 207.999 103s83 156.667 83 264c0 104 -27.5 190 -82.5 258s-124.5 102 -208.5 102z" />
    <glyph glyph-name="colon" unicode=":" horiz-adv-x="526" 
d="M279 154c23.333 0 43.5 -8.66699 60.5 -26s25.5 -38 25.5 -62s-8.83301 -45.167 -26.5 -63.5s-37.5 -27.5 -59.5 -27.5s-41.5 9.16699 -58.5 27.5s-25.5 39.5 -25.5 63.5s8 44.667 24 62s36 26 60 26zM279 770c23.333 0 43.5 -8.5 60.5 -25.5s25.5 -37.833 25.5 -62.5
c0 -23.333 -8.83301 -44.166 -26.5 -62.499s-37.5 -27.5 -59.5 -27.5s-41.5 9.16699 -58.5 27.5s-25.5 39.166 -25.5 62.499c0 24.667 8 45.5 24 62.5s36 25.5 60 25.5z" />
    <glyph glyph-name="semicolon" unicode=";" horiz-adv-x="526" 
d="M201 682c0 24 8.5 44.667 25.5 62s37.167 26 60.5 26s43.5 -8.5 60.5 -25.5s25.5 -37.833 25.5 -62.5c0 -23.333 -8.83301 -44.166 -26.5 -62.499s-37.5 -27.5 -59.5 -27.5s-41.833 9.16699 -59.5 27.5s-26.5 39.166 -26.5 62.499zM213 176l155.999 -0.000976562
c-11.333 -93.333 -33.166 -174.5 -65.499 -243.5s-73.5 -122.167 -123.5 -159.5l-26 24c22 36 38.667 74.667 50 116s17 85.333 17 132c0 24.667 -0.666992 47.834 -2 69.501s-3.33301 42.167 -6 61.5z" />
    <glyph glyph-name="less" unicode="&#x3c;" horiz-adv-x="1706" 
d="M1442 1135v-109l-1022 -416l1022 -413v-109l-1178 481v82z" />
    <glyph glyph-name="equal" unicode="=" horiz-adv-x="1706" 
d="M254 473h1198v-98h-1198v98zM254 846h1198v-98h-1198v98z" />
    <glyph glyph-name="greater" unicode="&#x3e;" horiz-adv-x="1706" 
d="M264 1135l1178 -484v-82l-1178 -481v109l1022 413l-1022 416v109z" />
    <glyph glyph-name="question" unicode="?" horiz-adv-x="848" 
d="M383 166c26.667 0 49 -9 67 -27s27 -40.333 27 -67s-9.16699 -49.5 -27.5 -68.5s-40.5 -28.5 -66.5 -28.5c-24.667 0 -46.5 9.83301 -65.5 29.5s-28.5 42.167 -28.5 67.5c0 26 9 48.167 27 66.5s40.333 27.5 67 27.5zM403 369l-41 -0.00195312
c0 4.66699 -0.333008 11.334 -1 20.001s-1 15.667 -1 21c0 30.667 -1 66.667 -3 108s-5 85.666 -9 132.999h21c91.333 0 167.333 30 228 90s91 134.667 91 224s-26.667 162.833 -80 220.5s-120.666 86.5 -201.999 86.5c-67.333 0 -127 -22.667 -179 -68
s-87.333 -106 -106 -182h-35c6 34.667 11 72.167 15 112.5s7.33301 88.833 10 145.5c44 24 91 42.667 141 56s97.667 20 143 20c123.333 0 223.5 -37.167 300.5 -111.5s115.5 -171.166 115.5 -290.499c0 -57.333 -10 -108.333 -30 -153s-52.333 -87 -97 -127
c-34.667 -32 -83.667 -60.333 -147 -85c-16.667 -6.66699 -29.334 -12 -38.001 -16c-33.333 -15.333 -56.5 -36.166 -69.5 -62.499s-21.833 -73.5 -26.5 -141.5z" />
    <glyph glyph-name="at" unicode="@" horiz-adv-x="2019" 
d="M1192 340c-39.333 -70.667 -85.3301 -124.167 -137.997 -160.5s-110.334 -54.5 -173.001 -54.5c-80.667 0 -146 30.833 -196 92.5s-75 142.834 -75 243.501c0 70.667 16.333 141.667 49 213s78.667 136 138 194c44.667 44 92.667 78 144 102s101.666 36 150.999 36
c57.333 0 104.833 -17 142.5 -51s63.834 -83.333 78.501 -148l55 182h131l-170 -606c-7.33301 -26 -12.166 -46.5 -14.499 -61.5s-3.5 -29.167 -3.5 -42.5c0 -36 8.66699 -63.5 26 -82.5s42 -28.5 74 -28.5c31.333 0 67.5 10 108.5 30s79.167 47 114.5 81
c62 58.667 110.333 131.667 145 219s52 180 52 278c0 189.333 -64.667 341.833 -194 457.5s-299.666 173.5 -510.999 173.5c-117.333 0 -226.833 -19.5 -328.5 -58.5s-192.167 -95.833 -271.5 -170.5c-88.667 -84 -155.834 -182.667 -201.501 -296
s-68.5 -238.666 -68.5 -375.999c0 -117.333 18.667 -218.833 56 -304.5s96.333 -163.167 177 -232.5c77.333 -66.667 165.5 -117 264.5 -151s206.167 -51 321.5 -51c111.333 0 219.166 17.667 323.499 53s202.166 87 293.499 155l30 -34
c-98 -72.667 -201.833 -127.5 -311.5 -164.5s-223.5 -55.5 -341.5 -55.5c-126 0 -239.5 15.333 -340.5 46s-192.167 77 -273.5 139c-100.667 76.667 -177.167 168.5 -229.5 275.5s-78.5 225.5 -78.5 355.5c0 136 28.667 262.667 86 380s140.666 221.333 249.999 312
c88 73.333 184.833 128.5 290.5 165.5s219.167 55.5 340.5 55.5c230 0 414.167 -62.333 552.5 -187s207.5 -290.334 207.5 -497.001c0 -104.667 -19.333 -203 -58 -295s-93.667 -170.333 -165 -235c-39.333 -36.667 -80.5 -64.334 -123.5 -83.001s-86.5 -28 -130.5 -28
c-64 0 -113.167 18 -147.5 54s-53.5 89.667 -57.5 161zM1094 969c-37.333 0 -71.167 -10.332 -101.5 -30.999s-61.5 -54.667 -93.5 -102c-48.667 -74 -87.5 -152.667 -116.5 -236s-43.5 -157 -43.5 -221s14.333 -114.833 43 -152.5s67 -56.5 115 -56.5
c44.667 0 87.667 14.833 129 44.5s81 74.167 119 133.5c38 60.667 68.333 127.167 91 199.5s34 139.166 34 200.499c0 63.333 -16.833 116 -50.5 158s-75.5 63 -125.5 63z" />
    <glyph glyph-name="A" unicode="A" horiz-adv-x="1237" 
d="M610 1188l-231 -588h459zM435 1337c22 -4.66699 45.835 -8.16992 71.502 -10.5029s54.167 -3.5 85.5 -3.5c29.333 0 51.666 0.666992 66.999 2s29.666 3.33301 42.999 6c7.33301 -30 15.166 -58.5 23.499 -85.5s17.833 -53.833 28.5 -80.5l385 -995
c17.333 -45.333 36.833 -79.166 58.5 -101.499s47.834 -35.5 78.501 -39.5v-35c-34 5.33301 -64.667 9.33301 -92 12s-53.333 4 -78 4c-28 0 -56.667 -1.33301 -86 -4s-59.333 -6.66699 -90 -12v34c32.667 2.66699 56.5 9.5 71.5 20.5s22.5 27.5 22.5 49.5
c0 8 -1.83301 18.833 -5.5 32.5s-8.5 28.834 -14.5 45.501l-136 334h-522l-117 -307c-10 -25.333 -17.167 -46.666 -21.5 -63.999s-6.5 -31.666 -6.5 -42.999c0 -20 8.16699 -35.5 24.5 -46.5s41.5 -18.167 75.5 -21.5v-34c-29.333 5.33301 -57.833 9.33301 -85.5 12
s-54.5 4 -80.5 4c-25.333 0 -51.833 -1.33301 -79.5 -4s-57.167 -6.66699 -88.5 -12v35c36 5.33301 67 23.166 93 53.499s53.667 83.5 83 159.5l346 876c11.333 28.667 19.333 52.167 24 70.5s7 34.5 7 48.5c0 20 -6.33301 34.667 -19 44s-35 15.333 -67 18z" />
    <glyph glyph-name="B" unicode="B" horiz-adv-x="1151" 
d="M328 674l-0.000976562 -588h184c140.667 0 248.834 25.167 324.501 75.5s113.5 122.166 113.5 215.499c0 102.667 -35.5 177.834 -106.5 225.501s-183.5 71.5 -337.5 71.5h-178zM327.999 1247v-493.001h145c136 0 234.167 19.667 294.5 59s90.5 103 90.5 191
c0 88.667 -28.667 151.334 -86 188.001s-162.333 55 -315 55h-129zM85.999 1331l412.001 -0.000976562c182.667 0 313 -25.167 391 -75.5s117 -132.166 117 -245.499c0 -77.333 -22.333 -139.833 -67 -187.5s-112 -80.834 -202 -99.501
c117.333 -11.333 207.166 -45.666 269.499 -102.999s93.5 -134.333 93.5 -231c0 -120.667 -52.333 -215.667 -157 -285s-249.667 -104 -435 -104h-422v33c44 8.66699 73.833 21.5 89.5 38.5s23.5 57.5 23.5 121.5v946c0 63.333 -7.83301 103.5 -23.5 120.5
s-45.5 29.833 -89.5 38.5v33z" />
    <glyph glyph-name="C" unicode="C" horiz-adv-x="1233" 
d="M1124 1270l0.000976562 -76.002c0 -54.667 0.833008 -97 2.5 -127s4.16699 -58.667 7.5 -86h-34c-12.667 95.333 -49.334 166.666 -110.001 213.999s-146.334 71 -257.001 71c-149.333 0 -273 -52.667 -371 -158s-147 -239.666 -147 -402.999
c0 -180 55.667 -330.833 167 -452.5s248.333 -182.5 411 -182.5c64.667 0 128.667 11 192 33s123.333 54.667 180 98l-8 -101c-56 -41.333 -115.667 -72.5 -179 -93.5s-130 -31.5 -200 -31.5c-202.667 0 -369 64.333 -499 193s-195 293.334 -195 494.001
c0 97.333 16.333 188.333 49 273s80.334 159.334 143.001 224.001c60.667 62.667 131.5 111.167 212.5 145.5s164.5 51.5 250.5 51.5c73.333 0 142 -7.16699 206 -21.5s123.667 -35.833 179 -64.5z" />
    <glyph glyph-name="D" unicode="D" horiz-adv-x="1341" 
d="M328 1241l-0.000976562 -1151h129c87.333 0 160 5.83301 218 17.5s111.667 30.5 161 56.5c88.667 47.333 157.834 115.166 207.501 203.499s74.5 187.833 74.5 298.5c0 87.333 -15.667 168.833 -47 244.5s-76.333 140.167 -135 193.5c-54 48.667 -118 83.667 -192 105
s-174 32 -300 32h-116zM85.999 1331h357.999c133.333 0 241 -9.33301 323 -28s154.667 -49.667 218 -93c84.667 -56 150.834 -132.333 198.501 -229s71.5 -201.667 71.5 -315c0 -114 -22.333 -216.5 -67 -307.5s-109.667 -166.167 -195 -225.5
c-66 -47.333 -139.5 -81.333 -220.5 -102s-187.5 -31 -319.5 -31h-367v33c44 8.66699 73.833 21.5 89.5 38.5s23.5 57.5 23.5 121.5v946c0 63.333 -7.83301 103.5 -23.5 120.5s-45.5 29.833 -89.5 38.5v33z" />
    <glyph glyph-name="E" unicode="E" horiz-adv-x="1147" 
d="M86 1331l938.001 -0.00195312c1.33301 -53.333 4.33301 -102.333 9 -147s11.334 -87 20.001 -127h-33c-14.667 72.667 -35.834 121.5 -63.501 146.5s-90.5 37.5 -188.5 37.5h-440v-498h290c62.667 0 102.834 8 120.501 24s30.834 46.333 39.501 91h33
c-5.33301 -34.667 -9 -64.167 -11 -88.5s-3 -46.833 -3 -67.5c0 -20 1 -42 3 -66s5.66699 -54.333 11 -91h-33c-8.66699 44.667 -21.834 74.834 -39.501 90.501s-57.834 23.5 -120.501 23.5h-290v-569h438c121.333 0 198.666 14.333 231.999 43s59 89.334 77 182.001h33
c-10.667 -46.667 -18.5 -96 -23.5 -148s-7.5 -107.667 -7.5 -167h-991v33c44 8.66699 73.833 21.5 89.5 38.5s23.5 57.5 23.5 121.5v946c0 63.333 -7.83301 103.5 -23.5 120.5s-45.5 29.833 -89.5 38.5v33z" />
    <glyph glyph-name="F" unicode="F" horiz-adv-x="995" 
d="M86 1331h849.995c1.33301 -53.333 4.33301 -102.333 9 -147s11.334 -87 20.001 -127h-33c-15.333 72.667 -36.666 121.5 -63.999 146.5s-90 37.5 -188 37.5h-352v-524h233c64 0 104.5 7.83301 121.5 23.5s29.833 45.167 38.5 88.5h33
c-5.33301 -34.667 -9.16602 -64.167 -11.499 -88.5s-3.5 -46.5 -3.5 -66.5c0 -20.667 1.16699 -43.667 3.5 -69s5.83301 -55 10.5 -89h-32c-9.33301 44.667 -22.666 75 -39.999 91s-57.333 24 -120 24h-233v-445c0 -63.333 7.66699 -103.5 23 -120.5s45 -29.833 89 -38.5
v-33c-26.667 4.66699 -54.667 8.16699 -84 10.5s-60.666 3.5 -93.999 3.5c-32.667 0 -63.5 -1.16699 -92.5 -3.5s-56.833 -5.83301 -83.5 -10.5v33c44 8.66699 73.833 21.5 89.5 38.5s23.5 57.167 23.5 120.5v953c0 63.333 -7.83301 103.5 -23.5 120.5
s-45.5 29.833 -89.5 38.5v33z" />
    <glyph glyph-name="G" unicode="G" horiz-adv-x="1374" 
d="M1128 1274l0.000976562 -24.9971c0 -34 1.5 -72.833 4.5 -116.5s7.83301 -98.834 14.5 -165.501h-33c-14 96 -53.5 169.5 -118.5 220.5s-151.833 76.5 -260.5 76.5c-151.333 0 -276.833 -52.833 -376.5 -158.5s-149.5 -241.5 -149.5 -407.5
c0 -174 50.167 -319.5 150.5 -436.5s222.166 -175.5 365.499 -175.5c94.667 0 173 24.167 235 72.5s93 110.166 93 185.499v150c0 26.667 -11.333 47.667 -34 63s-59 27 -109 35l-1 32c30.667 -4.66699 61.5 -8.16699 92.5 -10.5s63.833 -3.5 98.5 -3.5
c35.333 0 69 1.16699 101 3.5s63 5.83301 93 10.5v-32c-44 -8.66699 -73.667 -21.5 -89 -38.5s-23 -57.5 -23 -121.5v-432h-55l-5 14c-22.667 73.333 -41 122 -55 146c-58 -65.333 -118.333 -112.5 -181 -141.5s-136 -43.5 -220 -43.5
c-163.333 0 -301.166 64.333 -413.499 193s-168.5 287 -168.5 475c0 210 66.5 381.667 199.5 515s305.5 200 517.5 200c65.333 0 124.666 -6.83301 177.999 -20.5s103 -34.834 149 -63.501z" />
    <glyph glyph-name="H" unicode="H" horiz-adv-x="1413" 
d="M973 1337c28 -4.66699 56.499 -8.16699 85.499 -10.5s59.167 -3.5 90.5 -3.5s61.833 1.16699 91.5 3.5s58.5 5.83301 86.5 10.5v-32c-44 -9.33301 -73.833 -22.5 -89.5 -39.5s-23.5 -57.167 -23.5 -120.5v-959c0 -62.667 7.83301 -102.5 23.5 -119.5
s45.5 -30.167 89.5 -39.5v-33c-32 5.33301 -62.667 9.33301 -92 12s-58 4 -86 4c-27.333 0 -55.5 -1.33301 -84.5 -4s-59.5 -6.66699 -91.5 -12v33c44 9.33301 73.667 22.5 89 39.5s23 56.833 23 119.5v484h-757v-484c0 -63.333 7.66699 -103.5 23 -120.5
s45 -29.833 89 -38.5v-33c-26.667 4.66699 -54.667 8.16699 -84 10.5s-60.666 3.5 -93.999 3.5c-32.667 0 -63.5 -1.16699 -92.5 -3.5s-56.833 -5.83301 -83.5 -10.5v33c44 8.66699 73.833 21.5 89.5 38.5s23.5 57.167 23.5 120.5v957
c0 63.333 -7.83301 103.666 -23.5 120.999s-45.5 31 -89.5 41v32c24 -4.66699 49.667 -8.16699 77 -10.5s60.333 -3.5 99 -3.5c39.333 0 72.833 1.16699 100.5 3.5s53.5 5.83301 77.5 10.5v-32c-44 -10 -73.667 -23.667 -89 -41s-23 -57.666 -23 -120.999v-383h757v385
c0 63.333 -7.66699 103.5 -23 120.5s-45 30.167 -89 39.5v32z" />
    <glyph glyph-name="I" unicode="I" horiz-adv-x="526" 
d="M86 1335c28 -4.66699 56.499 -8.16699 85.499 -10.5s59.167 -3.5 90.5 -3.5c32 0 62.667 1.16699 92 3.5s58 5.83301 86 10.5v-32c-44 -9.33301 -73.667 -22.5 -89 -39.5s-23 -57.167 -23 -120.5v-957c0 -63.333 7.66699 -103.5 23 -120.5s45 -29.833 89 -38.5v-33
c-26.667 4.66699 -54.667 8.16699 -84 10.5s-60.666 3.5 -93.999 3.5c-32.667 0 -63.5 -1.16699 -92.5 -3.5s-56.833 -5.83301 -83.5 -10.5v33c44 8.66699 73.833 21.5 89.5 38.5s23.5 57.167 23.5 120.5v957c0 63.333 -7.83301 103.5 -23.5 120.5s-45.5 30.167 -89.5 39.5
v32z" />
    <glyph glyph-name="J" unicode="J" horiz-adv-x="526" 
d="M86 1335c28 -4.66699 56.668 -8.16504 86.001 -10.498s60 -3.5 92 -3.5s62.667 1.16699 92 3.5s58 5.83301 86 10.5v-32c-44.667 -9.33301 -74.834 -22.666 -90.501 -39.999s-23.5 -57.333 -23.5 -120v-981c0 -111.333 -19.5 -197.833 -58.5 -259.5
s-104.833 -111.834 -197.5 -150.501l-19 39c54.667 29.333 93 69.166 115 119.499s33 132.833 33 247.5v985c0 62.667 -8 102.667 -24 120s-46.333 30.666 -91 39.999v32z" />
    <glyph glyph-name="K" unicode="K" horiz-adv-x="1151" 
d="M984 0c-90 114.667 -186.998 228.499 -290.998 341.499s-223 232.5 -357 358.5l420 435c35.333 36.667 57.833 62.5 67.5 77.5s14.5 28.5 14.5 40.5c0 12.667 -7.66699 23 -23 31s-40.666 15 -75.999 21v32c32 -5.33301 65.167 -9.33301 99.5 -12s71.5 -4 111.5 -4
c39.333 0 74.5 1.33301 105.5 4s60.167 6.66699 87.5 12v-32c-66.667 -14 -130.334 -53 -191.001 -117l-12 -12l-448 -451c132 -121.333 273.167 -267.666 423.5 -438.999s247.833 -257 292.5 -257c2.66699 0 4.66699 -0.166992 6 -0.5s2.66602 -0.833008 3.99902 -1.5
l1 -33c-8.66699 0.666992 -20.667 1.66699 -36 3c-40.667 3.33301 -68.334 5 -83.001 5c-32 0 -56.167 -0.166992 -72.5 -0.5s-30.833 -0.833008 -43.5 -1.5zM86.002 -6.00098l-0.00195312 33c44 8.66699 73.833 21.5 89.5 38.5s23.5 57.167 23.5 120.5v957
c0 63.333 -7.83301 103.666 -23.5 120.999s-45.5 31 -89.5 41v32c26.667 -5.33301 54.334 -9.33301 83.001 -12s59.667 -4 93 -4c34 0 65.5 1.33301 94.5 4s56.833 6.66699 83.5 12v-32c-44 -10 -73.667 -23.667 -89 -41s-23 -57.666 -23 -120.999v-957
c0 -63.333 7.66699 -103.5 23 -120.5s45 -29.833 89 -38.5v-33c-26.667 4.66699 -54.667 8.16699 -84 10.5s-60.666 3.5 -93.999 3.5c-32.667 0 -63.5 -1.16699 -92.5 -3.5s-56.833 -5.83301 -83.5 -10.5z" />
    <glyph glyph-name="L" unicode="L" horiz-adv-x="1010" 
d="M86 1335c28 -4.66699 56.501 -8.16699 85.501 -10.5s59.167 -3.5 90.5 -3.5c32 0 62.667 1.16699 92 3.5s58 5.83301 86 10.5v-32c-44 -9.33301 -73.667 -22.5 -89 -39.5s-23 -57.167 -23 -120.5v-1053h334c144 0 233.333 17.333 268 52s60 108 76 220h34
c-14.667 -102 -24.334 -176.167 -29.001 -222.5s-7 -87.5 -7 -123.5v-16h-918v33c44 8.66699 73.833 21.5 89.5 38.5s23.5 57.5 23.5 121.5v950c0 63.333 -7.83301 103.5 -23.5 120.5s-45.5 30.167 -89.5 39.5v32z" />
    <glyph glyph-name="M" unicode="M" horiz-adv-x="1630" 
d="M115 1337c28 -3.33301 53.999 -5.83301 77.999 -7.5s47 -2.5 69 -2.5c17.333 0 33.166 0.333008 47.499 1s28.5 1.66699 42.5 3l494 -1138l426 1138c20 -2 38 -3.5 54 -4.5s30.667 -1.5 44 -1.5c20.667 0 58.334 3 113.001 9l26 3v-32
c-40.667 -6.66699 -67.834 -18.167 -81.501 -34.5s-20.5 -44.5 -20.5 -84.5c0 -20 0.333008 -38.167 1 -54.5s1.66699 -33.166 3 -50.499l47 -747c0.666992 -12.667 2 -31.334 4 -56.001c9.33301 -157.333 52.333 -241 129 -251v-33
c-26.667 4.66699 -55.167 8.16699 -85.5 10.5s-63.166 3.5 -98.499 3.5s-68.166 -1.16699 -98.499 -3.5s-58.833 -5.83301 -85.5 -10.5v33c42.667 8 72 20.5 88 37.5s24 42.5 24 76.5c0 18.667 -0.5 43 -1.5 73s-2.5 62 -4.5 96l-45 835l-426 -1145h-70l-481 1147l-37 -858
c-1.33301 -28 -2.33301 -54.333 -3 -79s-1 -47 -1 -67c0 -33.333 8.33301 -58.666 25 -75.999s46 -30.666 88 -39.999v-33c-32 4.66699 -60.833 8.16699 -86.5 10.5s-50.167 3.5 -73.5 3.5s-48.5 -1.16699 -75.5 -3.5s-54.833 -5.83301 -83.5 -10.5l-1 33
c79.333 9.33301 121.666 95.666 126.999 258.999c0.666992 34.667 1.33398 62 2.00098 82l29 662c0.666992 7.33301 1.16699 15.166 1.5 23.499s0.5 18.833 0.5 31.5c0 96.667 -7.33301 156.5 -22 179.5s-42 36.5 -82 40.5v32z" />
    <glyph glyph-name="N" unicode="N" horiz-adv-x="1380" 
d="M86 -6v33.001c44 8.66699 73.833 21.5 89.5 38.5s23.5 57.167 23.5 120.5v957c0 63.333 -7.83301 103.666 -23.5 120.999s-45.5 31 -89.5 41v32c26 -4.66699 51.167 -8.16699 75.5 -10.5s48.166 -3.5 71.499 -3.5c20 0 39.333 0.833008 58 2.5s37 4.16699 55 7.5
l758 -1122v934c0 63.333 -7.83301 103.5 -23.5 120.5s-45.5 30.167 -89.5 39.5l1 32c28 -4.66699 55 -8.16699 81 -10.5s51.333 -3.5 76 -3.5c25.333 0 51.333 1.16699 78 3.5s53.667 5.83301 81 10.5l1 -32c-45.333 -9.33301 -75.833 -22.666 -91.5 -39.999
s-23.5 -57.333 -23.5 -120v-1145h-90l-815 1202v-1016c0 -62 7.83301 -101.833 23.5 -119.5s45.834 -30.834 90.501 -39.501v-33c-28 4.66699 -55.5 8.16699 -82.5 10.5s-52.5 3.5 -76.5 3.5s-49.167 -1.16699 -75.5 -3.5s-53.833 -5.83301 -82.5 -10.5z" />
    <glyph glyph-name="O" unicode="O" horiz-adv-x="1460" 
d="M707 1268c-144.667 0 -262.833 -49.502 -354.5 -148.502s-137.5 -227.167 -137.5 -384.5c0 -185.333 52 -342.166 156 -470.499s231 -192.5 381 -192.5c144 0 261.833 49.667 353.5 149s137.5 228.333 137.5 387c0 182.667 -52.5 338.334 -157.5 467.001
s-231.167 193 -378.5 193zM86.001 697.998c0 191.333 60.5 349.167 181.5 473.5s274.833 186.5 461.5 186.5c184 0 337.5 -68.167 460.5 -204.5s184.5 -307.833 184.5 -514.5c0 -190.667 -60.833 -348.667 -182.5 -474s-275.167 -188 -460.5 -188
c-184 0 -337.5 68.5 -460.5 205.5s-184.5 308.833 -184.5 515.5z" />
    <glyph glyph-name="P" unicode="P" horiz-adv-x="1063" 
d="M86 -6l0.000976562 33.001c44 8.66699 73.833 21.5 89.5 38.5s23.5 57.167 23.5 120.5v953c0 63.333 -7.83301 103.5 -23.5 120.5s-45.5 29.833 -89.5 38.5v33h459c163.333 0 289.833 -35.833 379.5 -107.5s134.5 -172.834 134.5 -303.501
c0 -116 -39.667 -210.333 -119 -283s-182.333 -109 -309 -109c-64.667 0 -124.167 10.167 -178.5 30.5s-81.5 39.5 -81.5 57.5c0 4 1.66699 7.5 5 10.5s7 4.5 11 4.5s13.333 -2 28 -6c54.667 -14 106 -21 154 -21c103.333 0 187.666 29.167 252.999 87.5
s98 132.833 98 223.5c0 102 -38.333 181.833 -115 239.5s-183.334 86.5 -320.001 86.5h-157v-1055c0 -63.333 7.66699 -103.5 23 -120.5s45 -29.833 89 -38.5v-33c-26.667 4.66699 -54.667 8.16699 -84 10.5s-60.666 3.5 -93.999 3.5c-32.667 0 -63.5 -1.16699 -92.5 -3.5
s-56.833 -5.83301 -83.5 -10.5z" />
    <glyph glyph-name="Q" unicode="Q" horiz-adv-x="1460" 
d="M1143 121c12 -18.667 29.165 -33.001 51.498 -43.001s48.833 -15 79.5 -15c14 0 29.833 2.16699 47.5 6.5s37.167 10.5 58.5 18.5l-32 -88c-18.667 -8.66699 -38.167 -15 -58.5 -19s-42.5 -6 -66.5 -6c-38.667 0 -73.667 5.83301 -105 17.5
s-60.666 29.834 -87.999 54.501c-48.667 -23.333 -97.667 -40.833 -147 -52.5s-100 -17.5 -152 -17.5c-184 0 -337.5 68.5 -460.5 205.5s-184.5 308.833 -184.5 515.5c0 192 60.5 350 181.5 474s274.167 186 459.5 186s339.5 -68.5 462.5 -205.5
s184.5 -308.833 184.5 -515.5c0 -101.333 -19.167 -194.833 -57.5 -280.5s-96.166 -164.167 -173.499 -235.5zM706.998 1268c-144.667 0 -262.833 -49.502 -354.5 -148.502s-137.5 -227.167 -137.5 -384.5c0 -185.333 52 -342.166 156 -470.499s231 -192.5 381 -192.5
c144 0 261.833 49.667 353.5 149s137.5 228.333 137.5 387c0 182.667 -52.5 338.334 -157.5 467.001s-231.167 193 -378.5 193z" />
    <glyph glyph-name="R" unicode="R" horiz-adv-x="1139" 
d="M86 1331l542.999 -0.000976562c124 0 221.833 -29 293.5 -87s107.5 -137.333 107.5 -238s-41.833 -184.167 -125.5 -250.5s-193.167 -102.5 -328.5 -108.5c107.333 -118 211 -240.333 311 -367s150.333 -190.667 151 -192c18.667 -20.667 37.667 -35.167 57 -43.5
s45.333 -13.5 78 -15.5v-33c-28.667 2 -54.167 3.5 -76.5 4.5s-41.833 1.5 -58.5 1.5c-13.333 0 -27.5 -0.333008 -42.5 -1s-32.833 -1.66699 -53.5 -3c-159.333 220 -328.333 426 -507 618c-41.333 44.667 -62 69.334 -62 74.001c0 6.66699 3.83301 11.5 11.5 14.5
s23.5 4.5 47.5 4.5h27c138.667 0 245.667 24.833 321 74.5s113 119.5 113 209.5s-33 153.833 -99 191.5s-184.667 56.5 -356 56.5h-110v-1055c0 -63.333 7.66699 -103.5 23 -120.5s45 -29.833 89 -38.5v-33c-26.667 4.66699 -54.667 8.16699 -84 10.5
s-60.666 3.5 -93.999 3.5c-32.667 0 -63.5 -1.16699 -92.5 -3.5s-56.833 -5.83301 -83.5 -10.5v33c44 8.66699 73.833 21.5 89.5 38.5s23.5 57.167 23.5 120.5v953c0 63.333 -7.83301 103.5 -23.5 120.5s-45.5 29.833 -89.5 38.5v33z" />
    <glyph glyph-name="S" unicode="S" horiz-adv-x="1100" 
d="M952 1300l0.00292969 -64.9971c0 -36 1.16699 -73 3.5 -111s5.83301 -76.667 10.5 -116h-32c-12 90.667 -44.167 157.667 -96.5 201s-127.5 65 -225.5 65c-122 0 -220 -24.667 -294 -74s-111 -114 -111 -194c0 -61.333 22.167 -109.5 66.5 -144.5
s123.833 -64.833 238.5 -89.5l94 -19c149.333 -28.667 250.333 -61.334 303 -98.001c44.667 -30.667 77.667 -66.667 99 -108s32 -89.333 32 -144c0 -126.667 -50.333 -229.667 -151 -309s-232.334 -119 -395.001 -119c-70 0 -138.833 8.5 -206.5 25.5
s-130.167 41.5 -187.5 73.5c0 19.333 0.666992 40.666 2 63.999v12c0 46.667 -1.16699 91.667 -3.5 135s-5.83301 85.333 -10.5 126l35 1c13.333 -122.667 50.166 -212.834 110.499 -270.501s147.833 -86.5 262.5 -86.5c120.667 0 219 30 295 90s114 136.667 114 230
c0 70 -22 123 -66 159s-144.667 69.667 -302 101c-168 32.667 -285.167 76 -351.5 130s-99.5 129.333 -99.5 226c0 110 46.667 198.333 140 265s218.666 100 375.999 100c54.667 0 111.167 -4.66699 169.5 -14s118.5 -23.333 180.5 -42z" />
    <glyph glyph-name="T" unicode="T" 
d="M55 1331h913.998v-49c0 -46 2.33301 -96 7 -150s11.667 -112 21 -174h-32c-13.333 110 -41.5 184.667 -84.5 224s-120.167 59 -231.5 59h-74v-1055c0 -62 8 -101.833 24 -119.5s46.333 -30.834 91 -39.501v-33c-26.667 4.66699 -54.667 8.16699 -84 10.5
s-60.666 3.5 -93.999 3.5s-64.666 -1.16699 -93.999 -3.5s-57.333 -5.83301 -84 -10.5v33c44.667 8.66699 75 21.834 91 39.501s24 57.5 24 119.5v1055h-74c-111.333 0 -188.5 -19.667 -231.5 -59s-71.167 -114 -84.5 -224h-32c9.33301 62 16.333 120.5 21 175.5
s7 106.5 7 154.5v43z" />
    <glyph glyph-name="U" unicode="U" horiz-adv-x="1290" 
d="M60 1335c28 -4.66699 56.6709 -8.16699 86.0039 -10.5s60 -3.5 92 -3.5c31.333 0 61.666 1.16699 90.999 3.5s58 5.83301 86 10.5l1 -32c-44.667 -9.33301 -75 -22.666 -91 -39.999s-24 -57.333 -24 -120v-621c0 -164 27 -281 81 -351s141.667 -105 263 -105
s208.666 35 261.999 105s80 187 80 351v623c0 63.333 -7.83301 103.5 -23.5 120.5s-45.5 29.5 -89.5 37.5v32c36 -4.66699 68.5 -8.16699 97.5 -10.5s56.167 -3.5 81.5 -3.5c24.667 0 51 1.16699 79 3.5s60.333 5.83301 97 10.5v-32c-44 -8 -73.833 -20.5 -89.5 -37.5
s-23.5 -57.167 -23.5 -120.5v-629c0 -187.333 -37.833 -324.333 -113.5 -411s-194.834 -130 -357.501 -130s-281.834 43.333 -357.501 130s-113.5 223.667 -113.5 411v627c0 62.667 -7.83301 102.667 -23.5 120s-46.167 30.666 -91.5 39.999z" />
    <glyph glyph-name="V" unicode="V" horiz-adv-x="1071" 
d="M-86 1337c28 -4.66699 56.667 -8.16797 86 -10.501s59.333 -3.5 90 -3.5c37.333 0 69.5 1.16699 96.5 3.5s52.833 5.83301 77.5 10.5v-34c-32.667 -2.66699 -56.167 -9.5 -70.5 -20.5s-21.5 -27.5 -21.5 -49.5c0 -13.333 5.33301 -34.666 16 -63.999
c2 -5.33301 3.33301 -9 4 -11l357 -990l344 960l1 3c18.667 53.333 28 88 28 104c0 20 -8.16699 35.5 -24.5 46.5s-41.833 18.167 -76.5 21.5l1 34c26 -4.66699 52.833 -8.16699 80.5 -10.5s56.5 -3.5 86.5 -3.5s58.667 1.16699 86 3.5s54 5.83301 80 10.5v-34
c-37.333 -8 -67.5 -24.667 -90.5 -50s-50.167 -79.666 -81.5 -162.999l-412 -1115h-82l-436 1186c-16.667 44.667 -36 78.167 -58 100.5s-49 36.166 -81 41.499v34z" />
    <glyph glyph-name="W" unicode="W" horiz-adv-x="1518" 
d="M-80 1337c28.667 -4.66699 57.3301 -8.16992 85.9971 -10.5029s58.667 -3.5 90 -3.5c29.333 0 57.833 1.16699 85.5 3.5s54.5 5.83301 80.5 10.5v-34c-36 -3.33301 -60.667 -10.666 -74 -21.999s-20 -30.666 -20 -57.999c0 -6.66699 0.833008 -14.334 2.5 -23.001
s5.5 -23 11.5 -43l314 -975l221 690l-94 289c-15.333 46 -33.333 79.667 -54 101s-48 35 -82 41l1 34c28 -4.66699 56.5 -8.16699 85.5 -10.5s59.167 -3.5 90.5 -3.5c29.333 0 58 1.16699 86 3.5s55 5.83301 81 10.5v-34c-32.667 -2.66699 -56.5 -9.33398 -71.5 -20.001
s-22.5 -26.667 -22.5 -48c0 -8 1.5 -19.167 4.5 -33.5s7.16699 -29.166 12.5 -44.499l315 -971l289 942c6.66699 22.667 11.667 42.834 15 60.501s5 31.167 5 40.5c0 22.667 -6.83301 39.334 -20.5 50.001s-40.167 18.667 -79.5 24v34
c26.667 -4.66699 53.834 -8.16699 81.501 -10.5s56.5 -3.5 86.5 -3.5s58.5 1.16699 85.5 3.5s53.5 5.83301 79.5 10.5l1 -34c-39.333 -8.66699 -71 -27.167 -95 -55.5s-48.333 -80.833 -73 -157.5l-357 -1115h-79l-246 777l-242 -777h-88l-381 1186
c-15.333 48.667 -32.666 83 -51.999 103s-45.666 33 -78.999 39v34z" />
    <glyph glyph-name="X" unicode="X" horiz-adv-x="1157" 
d="M13 1337c35.333 -4.66699 70.8359 -8.16992 106.503 -10.5029s71.5 -3.5 107.5 -3.5c34.667 0 67.5 1.16699 98.5 3.5s60.833 5.83301 89.5 10.5l1 -32c-43.333 -4 -72 -9.5 -86 -16.5s-21 -18.167 -21 -33.5c0 -8.66699 3.83301 -20.5 11.5 -35.5s19.5 -34.5 35.5 -58.5
l230 -344l258 365c7.33301 10 13.5 21.333 18.5 34s7.5 23 7.5 31c0 18.667 -8.66699 33 -26 43s-42.666 15 -75.999 15v32c52 -5.33301 93.833 -9 125.5 -11s60.167 -3 85.5 -3c30.667 0 60.167 1.16699 88.5 3.5s56.166 5.83301 83.499 10.5v-32
c-36 -2 -68.667 -13 -98 -33s-62.333 -55.667 -99 -107l-307 -432l359 -534c40 -60.667 77.333 -104 112 -130s71.667 -39.667 111 -41l-1 -32c-34.667 4.66699 -70.334 8.16699 -107.001 10.5s-74.334 3.5 -113.001 3.5c-40 0 -78.333 -1.16699 -115 -3.5
s-72 -5.83301 -106 -10.5v33c39.333 0.666992 67.833 5.83398 85.5 15.501s26.5 24.834 26.5 45.501c0 14 -3.16699 29.167 -9.5 45.5s-16.166 33.833 -29.499 52.5l-295 435l-293 -418c-18 -27.333 -31.333 -50.166 -40 -68.499s-13 -33.833 -13 -46.5
c0 -20.667 8.16699 -35.834 24.5 -45.501s42.833 -14.834 79.5 -15.501l1 -33c-46.667 5.33301 -84.834 9 -114.501 11s-56.5 3 -80.5 3c-22.667 0 -48.334 -1 -77.001 -3s-67 -5.66699 -115 -11v33c38.667 4.66699 75.167 20.834 109.5 48.501s74.833 74.834 121.5 141.501
l342 486l-336 495c-27.333 40 -52.833 67.5 -76.5 82.5s-52.167 22.5 -85.5 22.5z" />
    <glyph glyph-name="Y" unicode="Y" horiz-adv-x="977" 
d="M306 -6l-0.999023 33c44.667 8.66699 75 21.834 91 39.501s24 57.5 24 119.5v371l-344 621c-24.667 44.667 -48.667 76.167 -72 94.5s-52 29.166 -86 32.499v32c24.667 -4.66699 51.5 -8.16699 80.5 -10.5s64.167 -3.5 105.5 -3.5c35.333 0 68.666 1.16699 99.999 3.5
s61 5.83301 89 10.5v-32c-34 -4.66699 -58.833 -12 -74.5 -22s-23.5 -24 -23.5 -42c0 -8.66699 2.83301 -21.167 8.5 -37.5s13.5 -33.166 23.5 -50.499l283 -502l254 475c14 25.333 23.667 46.333 29 63s8 32.667 8 48c0 20.667 -7.83301 36 -23.5 46
s-42.167 17.333 -79.5 22l1 32c22.667 -4.66699 47.667 -8.16699 75 -10.5s60.666 -3.5 99.999 -3.5c33.333 0 64.5 1.16699 93.5 3.5s56.5 5.83301 82.5 10.5l1 -32c-30.667 -4 -58 -17 -82 -39s-53.333 -63.667 -88 -125l-334 -594v-361
c0 -62 7.83301 -101.833 23.5 -119.5s46.167 -30.834 91.5 -39.501l-1 -33c-26.667 4.66699 -54.667 8.16699 -84 10.5s-60.666 3.5 -93.999 3.5s-64.5 -1.16699 -93.5 -3.5s-56.833 -5.83301 -83.5 -10.5z" />
    <glyph glyph-name="Z" unicode="Z" horiz-adv-x="1128" 
d="M185 1331l839 0.000976562l-782 -1241h450c104.667 0 180.5 20.5 227.5 61.5s77.833 113.5 92.5 217.5h35c-12.667 -62.667 -22 -124.667 -28 -186s-9 -122.333 -9 -183h-971l780 1241h-325c-112 0 -190 -16.667 -234 -50s-73.333 -95 -88 -185h-33
c12 44.667 21.667 93.167 29 145.5s13 112.166 17 179.499z" />
    <glyph glyph-name="bracketleft" unicode="[" horiz-adv-x="530" 
d="M424 1358l2.00098 -30.999c-38 -12.667 -63.5 -29 -76.5 -49s-19.5 -52.667 -19.5 -98v-1323c0 -46 6.66699 -79.333 20 -100s38.666 -37.334 75.999 -50.001l-2 -29l-217 48v1583z" />
    <glyph glyph-name="backslash" unicode="\" horiz-adv-x="569" 
d="M508 -188l-531 1544h84l531 -1544h-84z" />
    <glyph glyph-name="bracketright" unicode="]" horiz-adv-x="530" 
d="M106 1358l218 -49v-1583l-218 -48l-2 29c37.333 12 62.833 28.333 76.5 49s20.5 54.334 20.5 101.001v1323c0 46 -6.83301 79.167 -20.5 99.5s-39.167 36.166 -76.5 47.499z" />
    <glyph glyph-name="asciicircum" unicode="^" horiz-adv-x="2048" 
d="M940 1462h166l526 -565h-88l-522 451l-524 -451h-86z" />
    <glyph glyph-name="underscore" unicode="_" 
d="M0 -383h1024v-100h-1024v100z" />
    <glyph glyph-name="grave" unicode="`" 
d="M688 1098l-67 0.000976562l-330 205c-20.667 13.333 -36.167 26.666 -46.5 39.999s-15.5 27 -15.5 41c0 20 7 37 21 51s31 21 51 21c14 0 28 -4 42 -12s32.667 -23.667 56 -47z" />
    <glyph glyph-name="a" unicode="a" horiz-adv-x="995" 
d="M915 29l-0.00195312 -35c-17.333 5.33301 -34.666 9.33301 -51.999 12s-34.666 4 -51.999 4c-12 0 -26.167 -0.833008 -42.5 -2.5s-36.166 -4.16699 -59.499 -7.5l10 195c-40.667 -67.333 -91 -119 -151 -155s-125 -54 -195 -54c-86.667 0 -158.834 26.667 -216.501 80
s-86.5 120 -86.5 200c0 37.333 7 72.666 21 105.999s34.333 62.333 61 87c44.667 42 134.334 70 269.001 84c16 2 28 3.33301 36 4l18 2c156 16.667 234 55.667 234 117c0 80.667 -20.833 141.667 -62.5 183s-102.834 62 -183.501 62
c-68.667 0 -127.834 -17.833 -177.501 -53.5s-80.5 -82.5 -92.5 -140.5h-37c6 30 10.5 58.167 13.5 84.5s4.5 51.5 4.5 75.5v32c50.667 26.667 99.834 46.334 147.501 59.001s95.5 19 143.5 19c116 0 203.333 -28.333 262 -85s88 -141 88 -253v-538
c0 -26.667 8.5 -47 25.5 -61s41.833 -21 74.5 -21zM710.998 514c-46 -9.33301 -108.667 -20.333 -188 -33c-223.333 -35.333 -335 -104.333 -335 -207c0 -56 20.833 -103.333 62.5 -142s92.5 -58 152.5 -58c90.667 0 165 34.5 223 103.5s87 159.5 87 271.5l-1 21.5
c-0.666992 14.333 -1 28.833 -1 43.5z" />
    <glyph glyph-name="b" unicode="b" horiz-adv-x="1128" 
d="M596 893c-84.667 0 -157.002 -38.833 -217.002 -116.5s-90 -175.5 -90 -293.5c0 -123.333 30.833 -223.333 92.5 -300s139.834 -115 234.501 -115c90.667 0 165.334 37 224.001 111s88 169.333 88 286c0 123.333 -31.5 225.5 -94.5 306.5s-142.167 121.5 -237.5 121.5z
M300.998 1507c-3.33301 -34 -5.83301 -72.3291 -7.5 -114.996s-2.5 -93.667 -2.5 -153v-469c44 69.333 94.333 121.166 151 155.499s119.667 51.5 189 51.5c121.333 0 221.666 -47.333 300.999 -142s119 -216 119 -364c0 -137.333 -41.667 -252.5 -125 -345.5
s-186.666 -139.5 -309.999 -139.5c-70 0 -133.667 14.667 -191 44s-107.666 73.333 -150.999 132c-12.667 -22 -25.167 -46.333 -37.5 -73s-24.833 -56.334 -37.5 -89.001h-39c6.66699 53.333 11.667 113 15 179s5 145.667 5 239v807c0 66.667 -6.33301 108.5 -19 125.5
s-36.334 25.5 -71.001 25.5h-27v33c33.333 7.33301 68.833 18.666 106.5 33.999s81.5 36.666 131.5 63.999z" />
    <glyph glyph-name="c" unicode="c" horiz-adv-x="958" 
d="M827 928l14.999 -221h-37c-14.667 65.333 -41.834 114.666 -81.501 147.999s-91.834 50 -156.501 50c-99.333 0 -184.833 -39.333 -256.5 -118s-107.5 -175 -107.5 -289c0 -122 38.5 -223.167 115.5 -303.5s174.167 -120.5 291.5 -120.5c52.667 0 102.167 8 148.5 24
s85.833 38.667 118.5 68l-25 -115c-39.333 -24.667 -82.333 -43.5 -129 -56.5s-96 -19.5 -148 -19.5c-139.333 0 -256.666 47.833 -351.999 143.5s-143 214.5 -143 356.5c0 146 49.833 267.5 149.5 364.5s223.834 145.5 372.501 145.5c36.667 0 73.334 -4.66699 110.001 -14
s75 -23.666 115 -42.999z" />
    <glyph glyph-name="d" unicode="d" horiz-adv-x="1110" 
d="M526 895c-93.333 0 -170.832 -37.499 -232.499 -112.499s-92.5 -170.5 -92.5 -286.5c0 -120.667 31.167 -221.834 93.5 -303.501s138.166 -122.5 227.499 -122.5c90 0 165.5 38.333 226.5 115s91.5 174.667 91.5 294c0 122 -30 221.833 -90 299.5
s-134.667 116.5 -224 116.5zM956.001 1507c-3.33301 -34.667 -5.83203 -73.332 -7.49902 -115.999s-2.5 -93.334 -2.5 -152.001v-1069c0 -52.667 7.5 -88.167 22.5 -106.5s41.833 -29.833 80.5 -34.5v-33c-40 6 -68.667 9.83301 -86 11.5s-31.666 2.5 -42.999 2.5
c-12 0 -26.333 -1.16699 -43 -3.5s-36 -5.83301 -58 -10.5c4 20.667 7.33301 45 10 73s5.66699 69.333 9 124c-44.667 -69.333 -95.334 -121.166 -152.001 -155.499s-119.334 -51.5 -188.001 -51.5c-120 0 -220 46.667 -300 140s-120 211 -120 353
c0 144 40.833 263 122.5 357s184.167 141 307.5 141c66.667 0 127.334 -16.333 182.001 -49s102.667 -81.334 144 -146.001v443c0 66.667 -6.33301 108.5 -19 125.5s-36.667 25.5 -72 25.5h-24v33c33.333 7.33301 69.166 19 107.499 35s81.5 37 129.5 63z" />
    <glyph glyph-name="e" unicode="e" horiz-adv-x="1006" 
d="M932 522h-729v-49c0 -110 38.5 -205 115.5 -285s170.833 -120 281.5 -120c50.667 0 100.167 12 148.5 36s95.833 60.333 142.5 109l-12 -119c-46 -38.667 -95.5 -68.167 -148.5 -88.5s-107.5 -30.5 -163.5 -30.5c-138 0 -253.667 49 -347 147s-140 219 -140 363
c0 140.667 43.167 259.167 129.5 355.5s191.833 144.5 316.5 144.5c123.333 0 221.833 -39 295.5 -117s110.5 -182.333 110.5 -313v-33zM813 594v4.00098c0 87.333 -28 161 -84 221s-123 90 -201 90c-84 0 -155.5 -28.833 -214.5 -86.5s-94.5 -133.834 -106.5 -228.501h606z
" />
    <glyph glyph-name="f" unicode="f" horiz-adv-x="588" 
d="M582 1450l12.002 -137.002l-23 -4c-15.333 26 -32.5 45.333 -51.5 58s-39.833 19 -62.5 19c-46 0 -80.833 -18.167 -104.5 -54.5s-35.5 -89.833 -35.5 -160.5v-208h236v-82h-236v-711c0 -52 9.83301 -87.167 29.5 -105.5s55.834 -30.166 108.501 -35.499l-1 -33
c-26 4.66699 -52.833 8.16699 -80.5 10.5s-55.834 3.5 -84.501 3.5c-27.333 0 -56.333 -1.16699 -87 -3.5s-63 -5.83301 -97 -10.5l-1 33c39.333 4.66699 66.666 16.334 81.999 35.001s23 54 23 106v711h-123v49c46.667 0 78.834 10.5 96.501 31.5s26.5 75.167 26.5 162.5
v15c0 106 23.167 187.667 69.5 245s111.833 86 196.5 86c19.333 0 37.666 -1.66699 54.999 -5s34.666 -8.33301 51.999 -15z" />
    <glyph glyph-name="g" unicode="g" horiz-adv-x="967" 
d="M489 911c-69.333 0 -126.498 -22.501 -171.498 -67.501s-67.5 -102.833 -67.5 -173.5c0 -82 27.167 -152.667 81.5 -212s117.166 -89 188.499 -89c60 0 111.833 24.333 155.5 73s65.5 109 65.5 181c0 78.667 -24.833 146.334 -74.5 203.001s-108.834 85 -177.501 85z
M979.002 963.999l-27.002 -87.001c-16.667 -4 -31.834 -6.83301 -45.501 -8.5s-26.5 -2.5 -38.5 -2.5c-21.333 0 -43.666 1.66699 -66.999 5s-49.333 8.66602 -78 15.999c44.667 -25.333 78.334 -58 101.001 -98s34 -86.667 34 -140c0 -99.333 -36.5 -183.5 -109.5 -252.5
s-162.167 -103.5 -267.5 -103.5c-41.333 0 -79.666 5.83301 -114.999 17.5s-69.333 29.834 -102 54.501c-42.667 -34 -70.334 -60.333 -83.001 -79s-19 -39 -19 -61c0 -39.333 22 -66.5 66 -81.5s153 -23.167 327 -24.5c145.333 0 246.5 -16 303.5 -48
s85.5 -86.333 85.5 -163c0 -86.667 -40.667 -156.834 -122 -210.501s-189.333 -80.5 -324 -80.5c-103.333 0 -185.833 22.5 -247.5 67.5s-92.5 104.5 -92.5 178.5c0 14 1.83301 28 5.5 42s9.16699 28.333 16.5 43l125 64c-12 -20 -20.833 -40 -26.5 -60
s-8.5 -41.667 -8.5 -65c0 -58.667 22.5 -106 67.5 -142s104.5 -54 178.5 -54c86.667 0 160.834 21 222.501 63s92.5 90.667 92.5 146c0 40.667 -17.5 70.167 -52.5 88.5s-91.833 27.5 -170.5 27.5c-18.667 0 -45.167 0.333008 -79.5 1s-58.833 1 -73.5 1
c-77.333 0 -131.333 1.5 -162 4.5s-56.667 7.83301 -78 14.5c-54.667 16.667 -96.667 42.834 -126 78.501s-44 78.5 -44 128.5c0 4.66699 0.333008 10.334 1 17.001l3 29c36 18 68 36.167 96 54.5s54 37.833 78 58.5c-27.333 34 -47.833 70.167 -61.5 108.5
s-20.5 79.5 -20.5 123.5c0 101.333 34.833 185 104.5 251s157.167 99 262.5 99c36 0 91.5 -5.83301 166.5 -17.5s133.5 -17.5 175.5 -17.5c22.667 0 44.667 1.16699 66 3.5s42.333 5.83301 63 10.5z" />
    <glyph glyph-name="h" unicode="h" horiz-adv-x="1100" 
d="M303 1507c-4.66699 -36 -8.16602 -74.6641 -10.499 -115.997s-3.5 -92 -3.5 -152v-434c34.667 56.667 78.667 99.5 132 128.5s114.333 43.5 183 43.5c108 0 187.333 -32 238 -96s76 -165 76 -303v-408c0 -52 7.5 -87.333 22.5 -106s42.167 -30.334 81.5 -35.001v-33
c-42.667 6 -72.334 9.83301 -89.001 11.5s-30.667 2.5 -42 2.5c-12 0 -26.333 -1.16699 -43 -3.5s-35.667 -5.83301 -57 -10.5c6 40 10.5 77.833 13.5 113.5s4.5 68.834 4.5 99.501v369c0 114.667 -17.667 195.5 -53 242.5s-94 70.5 -176 70.5
c-97.333 0 -169.833 -28.333 -217.5 -85s-71.5 -142.334 -71.5 -257.001v-379c0 -52 7.66699 -87.333 23 -106s42.333 -30.334 81 -35.001v-33c-34 4.66699 -64.5 8.16699 -91.5 10.5s-48.833 3.5 -65.5 3.5c-17.333 0 -39.833 -1.16699 -67.5 -3.5
s-58.5 -5.83301 -92.5 -10.5v33c39.333 4.66699 66.5 16.334 81.5 35.001s22.5 54 22.5 106v1055c0 66.667 -6.33301 108.5 -19 125.5s-36.334 25.5 -71.001 25.5h-26v33c32.667 7.33301 67.834 18.666 105.501 33.999s81.5 36.666 131.5 63.999z" />
    <glyph glyph-name="i" unicode="i" horiz-adv-x="473" 
d="M141 1253c0 25.333 8.66699 46.667 26 64s38 26 62 26c25.333 0 46.333 -8.66699 63 -26s25 -38.666 25 -63.999c0 -24.667 -8.5 -45.834 -25.5 -63.501s-37.833 -26.5 -62.5 -26.5c-24 0 -44.667 9 -62 27s-26 39 -26 63zM78 -3.99902l-0.000976562 33
c39.333 4.66699 66.5 16.334 81.5 35.001s22.5 54 22.5 106v618c0 37.333 -6 61.833 -18 73.5s-40 18.167 -84 19.5v30c32.667 5.33301 66.834 14.833 102.501 28.5s75.167 32.167 118.5 55.5c-3.33301 -32 -5.83301 -63.5 -7.5 -94.5s-2.5 -62.833 -2.5 -95.5v-635
c0 -52 7.66699 -87.333 23 -106s42.333 -30.334 81 -35.001v-33c-34 4.66699 -64.5 8.16699 -91.5 10.5s-48.833 3.5 -65.5 3.5c-17.333 0 -39.833 -1.16699 -67.5 -3.5s-58.5 -5.83301 -92.5 -10.5z" />
    <glyph glyph-name="j" unicode="j" horiz-adv-x="473" 
d="M150 1253c0 25.333 8.5 46.667 25.5 64s37.833 26 62.5 26s45.5 -8.66699 62.5 -26s25.5 -38.666 25.5 -63.999c0 -24.667 -8.66699 -45.834 -26 -63.501s-38 -26.5 -62 -26.5s-44.667 9 -62 27s-26 39 -26 63zM84 -377.999v28c39.333 7.33301 66.833 25.333 82.5 54
s23.5 80.334 23.5 155.001v929c0 37.333 -6 61.833 -18 73.5s-40 18.167 -84 19.5v30c32 5.33301 65.5 14.666 100.5 27.999s74.5 32 118.5 56c-2.66699 -26 -4.66699 -54.333 -6 -85s-2 -65.667 -2 -105v-914c0 -92 -14.167 -160.667 -42.5 -206s-71.5 -68 -129.5 -68
c-11.333 0 -20 0.333008 -26 1s-11.667 2 -17 4z" />
    <glyph glyph-name="k" unicode="k" horiz-adv-x="948" 
d="M737 -4c-56 87.333 -119.335 175.17 -190.002 263.503s-154 183.5 -250 285.5l77 74c170 162.667 255 254.667 255 276c0 11.333 -7.16699 19.666 -21.5 24.999s-38.5 8.66602 -72.5 9.99902v32c24.667 -3.33301 49.667 -5.83301 75 -7.5s53.333 -2.5 84 -2.5
c34 0 63.5 0.833008 88.5 2.5s48.833 4.16699 71.5 7.5v-10c-78.667 -62.667 -153.834 -126.334 -225.501 -191.001s-140.5 -130.667 -206.5 -198l129 -135c52.667 -56 113.334 -132.333 182.001 -229c80.667 -113.333 145.667 -170 195 -170h12v-33
c-10.667 1.33301 -23 2.33301 -37 3s-35.667 1 -65 1s-50.666 -0.333008 -63.999 -1s-25.666 -1.66699 -36.999 -3zM77.998 -3.99609v33c39.333 4.66699 66.5 16.334 81.5 35.001s22.5 54 22.5 106v1130c0 37.333 -6 61.833 -18 73.5s-40 18.167 -84 19.5v28
c30 4.66699 62.833 14 98.5 28s76.5 33.333 122.5 58c-3.33301 -32 -5.83301 -63.5 -7.5 -94.5s-2.5 -62.833 -2.5 -95.5v-1147c0 -52 7.66699 -87.333 23 -106s42.333 -30.334 81 -35.001v-33c-34 4.66699 -64.5 8.16699 -91.5 10.5s-48.833 3.5 -65.5 3.5
c-17.333 0 -39.833 -1.16699 -67.5 -3.5s-58.5 -5.83301 -92.5 -10.5z" />
    <glyph glyph-name="l" unicode="l" horiz-adv-x="473" 
d="M78 -4v33c39.333 4.66699 66.5 16.334 81.5 35.001s22.5 54 22.5 106v1130c0 37.333 -6 61.833 -18 73.5s-40 18.167 -84 19.5v28c30 4.66699 62.833 14 98.5 28s76.5 33.333 122.5 58c-3.33301 -32 -5.83301 -63.5 -7.5 -94.5s-2.5 -62.833 -2.5 -95.5v-1147
c0 -52 7.66699 -87.333 23 -106s42.333 -30.334 81 -35.001v-33c-34 4.66699 -64.5 8.16699 -91.5 10.5s-48.833 3.5 -65.5 3.5c-17.333 0 -39.833 -1.16699 -67.5 -3.5s-58.5 -5.83301 -92.5 -10.5z" />
    <glyph glyph-name="m" unicode="m" horiz-adv-x="1612" 
d="M78 -4l-0.00195312 32.999c39.333 4.66699 66.5 16.334 81.5 35.001s22.5 54 22.5 106v618c0 37.333 -6 61.833 -18 73.5s-40 18.167 -84 19.5v30c32.667 5.33301 66.834 14.833 102.501 28.5s75.167 32.167 118.5 55.5c-0.666992 -10.667 -2 -27 -4 -49
c-5.33301 -69.333 -8 -116.333 -8 -141c30.667 56.667 70.334 99.5 119.001 128.5s104.334 43.5 167.001 43.5c66.667 0 123.5 -17.167 170.5 -51.5s79.833 -82.833 98.5 -145.5c28.667 63.333 69.167 112 121.5 146s112.833 51 181.5 51
c95.333 0 166.666 -30.333 213.999 -91s71 -152.667 71 -276v-440c0 -52 7.5 -87.333 22.5 -106s42.167 -30.334 81.5 -35.001v-33l-10 1c-60 8.66699 -99.667 13 -119 13c-12 0 -26.667 -1.16699 -44 -3.5s-36.666 -5.83301 -57.999 -10.5c6 40 10.5 77.833 13.5 113.5
s4.5 68.834 4.5 99.501v369c0 115.333 -15.667 196.333 -47 243s-84 70 -158 70c-86.667 0 -151.334 -28.167 -194.001 -84.5s-64 -142.166 -64 -257.499v-379c0 -52.667 7.5 -88.167 22.5 -106.5s41.833 -29.833 80.5 -34.5l-1 -33
c-34.667 4.66699 -65.167 8.16699 -91.5 10.5s-46.833 3.5 -61.5 3.5c-13.333 0 -30.166 -0.833008 -50.499 -2.5s-55.833 -5.5 -106.5 -11.5l-1 33c39.333 4.66699 66.666 16.334 81.999 35.001s23 54 23 106v408c0 115.333 -15.667 196.333 -47 243s-84 70 -158 70
c-87.333 0 -152.5 -28.333 -195.5 -85s-64.5 -142.334 -64.5 -257.001v-379c0 -52 7.66699 -87.333 23 -106s42.333 -30.334 81 -35.001v-33c-34 4.66699 -64.5 8.16699 -91.5 10.5s-48.833 3.5 -65.5 3.5c-17.333 0 -39.833 -1.16699 -67.5 -3.5
s-58.5 -5.83301 -92.5 -10.5z" />
    <glyph glyph-name="n" unicode="n" horiz-adv-x="1100" 
d="M301 995c-0.666992 -10.667 -1.99902 -26.9971 -3.99902 -48.9971c-5.33301 -69.333 -8 -116.333 -8 -141c34.667 56.667 78.667 99.5 132 128.5s114.333 43.5 183 43.5c108.667 0 188.167 -31.833 238.5 -95.5s75.5 -164.834 75.5 -303.501v-408
c0 -52 7.5 -87.333 22.5 -106s42.167 -30.334 81.5 -35.001v-33c-42.667 6 -72.334 9.83301 -89.001 11.5s-30.667 2.5 -42 2.5c-12 0 -26.333 -1.16699 -43 -3.5s-35.667 -5.83301 -57 -10.5c6 40 10.5 77.833 13.5 113.5s4.5 68.834 4.5 99.501v369
c0 114.667 -17.667 195.5 -53 242.5s-94 70.5 -176 70.5c-97.333 0 -169.833 -28.333 -217.5 -85s-71.5 -142.334 -71.5 -257.001v-379c0 -52 7.66699 -87.333 23 -106s42.333 -30.334 81 -35.001v-33c-34 4.66699 -64.5 8.16699 -91.5 10.5s-48.833 3.5 -65.5 3.5
c-17.333 0 -39.833 -1.16699 -67.5 -3.5s-57.834 -5.83301 -90.501 -10.5v33c38 5.33301 64.5 17.333 79.5 36s22.5 53.667 22.5 105v618c0 32.667 -4.16699 55 -12.5 67s-25.5 19.333 -51.5 22l-38 4v30c32.667 5.33301 66.834 14.833 102.501 28.5
s75.167 32.167 118.5 55.5z" />
    <glyph glyph-name="o" unicode="o" horiz-adv-x="1139" 
d="M563 903c-108 0 -195 -35.001 -261 -105.001s-99 -162.667 -99 -278c0 -130.667 35.5 -240.167 106.5 -328.5s158.833 -132.5 263.5 -132.5c107.333 0 194.333 35.833 261 107.5s100 164.834 100 279.501c0 128 -36 236.167 -108 324.5s-159.667 132.5 -263 132.5z
M569 986.999c140 0 256.333 -48.167 349 -144.5s139 -216.833 139 -361.5c0 -145.333 -46.167 -266 -138.5 -362s-208.833 -144 -349.5 -144s-257.334 48.167 -350.001 144.5s-139 216.833 -139 361.5c0 145.333 46.333 266 139 362s209.334 144 350.001 144z" />
    <glyph glyph-name="p" unicode="p" horiz-adv-x="1128" 
d="M596 893c-84 0 -155.833 -38.665 -215.5 -115.998s-89.5 -175.333 -89.5 -294c0 -122.667 30 -222.5 90 -299.5s135.667 -115.5 227 -115.5c88.667 0 164.167 36.167 226.5 108.5s93.5 162.166 93.5 269.499c0 133.333 -31 241.166 -93 323.499
s-141.667 123.5 -239 123.5zM303 995.002c-4.66699 -54 -7.83008 -97.3311 -9.49707 -129.998s-2.5 -64.334 -2.5 -95.001c44 69.333 94.333 121.166 151 155.499s119.667 51.5 189 51.5c121.333 0 221.666 -47.333 300.999 -142s119 -216 119 -364
c0 -136.667 -41.5 -251.667 -124.5 -345s-184.833 -140 -305.5 -140c-66 0 -126.833 16.333 -182.5 49s-104.834 81 -147.501 145v-368c0 -51.333 7.66699 -86.333 23 -105s42.333 -31 81 -37v-32h-5c-78 9.33301 -128.667 14 -152 14c-14.667 0 -32.834 -1 -54.501 -3
s-56.167 -5.66699 -103.5 -11v32c38 6 64.5 18.333 79.5 37s22.5 53.667 22.5 105v976c0 32.667 -4.16699 55 -12.5 67s-25.5 19.333 -51.5 22l-38 4v30c28.667 4 60.5 12.5 95.5 25.5s77.5 32.5 127.5 58.5z" />
    <glyph glyph-name="q" unicode="q" horiz-adv-x="1128" 
d="M854 819l76 144h37c-6.66699 -48 -11.5 -103 -14.5 -165s-4.5 -146.333 -4.5 -253v-733c0 -51.333 7.5 -86.166 22.5 -104.499s42.5 -30.833 82.5 -37.5v-32c-50.667 5.33301 -86.667 9 -108 11s-38.666 3 -51.999 3c-24 0 -74.667 -4.66699 -152 -14h-6v32
c40 6.66699 67.5 19.167 82.5 37.5s22.5 53.166 22.5 104.499v385c-42.667 -70.667 -92.667 -123.5 -150 -158.5s-121.333 -52.5 -192 -52.5c-120 0 -220 46.5 -300 139.5s-120 210.167 -120 351.5c0 144.667 41.167 264.167 123.5 358.5s185.833 141.5 310.5 141.5
c69.333 0 131.666 -12.667 186.999 -38s107 -65.333 155 -120zM840 479c0 124 -30.833 224.333 -92.5 301s-140.167 115 -235.5 115c-90.667 0 -165.167 -36.833 -223.5 -110.5s-87.5 -169.167 -87.5 -286.5c0 -122.667 31.167 -225 93.5 -307s138.166 -123 227.499 -123
c90.667 0 166.334 38.5 227.001 115.5s91 175.5 91 295.5z" />
    <glyph glyph-name="r" unicode="r" horiz-adv-x="649" 
d="M78 -4l0.000976562 33c39.333 4.66699 66.5 16.334 81.5 35.001s22.5 54 22.5 106v618c0 37.333 -6 61.833 -18 73.5s-40.667 18.167 -86 19.5v30c33.333 5.33301 68 14.666 104 27.999s75.667 32 119 56c-3.33301 -34 -5.83301 -69.667 -7.5 -107
s-2.5 -76.666 -2.5 -117.999c36.667 66 79.667 117 129 153s100.333 54 153 54c9.33301 0 18.666 -1 27.999 -3s18.666 -5 27.999 -9l12 -140l-6 2c-16.667 11.333 -32.167 19.333 -46.5 24s-29.5 7 -45.5 7c-73.333 0 -133.666 -34.667 -180.999 -104
s-71 -160.333 -71 -273v-311c0 -52 7.66699 -87.333 23 -106s42.333 -30.334 81 -35.001v-33c-34 4.66699 -64.5 8.16699 -91.5 10.5s-48.833 3.5 -65.5 3.5c-17.333 0 -39.833 -1.16699 -67.5 -3.5s-58.5 -5.83301 -92.5 -10.5z" />
    <glyph glyph-name="s" unicode="s" horiz-adv-x="883" 
d="M752 937c1.33301 -58.667 3.00195 -101.829 5.00195 -129.496s4.66699 -52.5 8 -74.5h-32c-12 61.333 -39 106.666 -81 135.999s-100.333 44 -175 44c-78.667 0 -144.334 -17.833 -197.001 -53.5s-79 -79.834 -79 -132.501c0 -42 15.667 -75.167 47 -99.5
s96 -47.833 194 -70.5c146 -34.667 242.667 -71.667 290 -111s71 -93.666 71 -162.999c0 -86.667 -38.333 -159.667 -115 -219s-171.667 -89 -285 -89c-55.333 0 -108.333 7.33301 -159 22s-97.667 36 -141 64c-1.33301 36 -3.5 71.833 -6.5 107.5
s-7.16699 71.5 -12.5 107.5h33c13.333 -70.667 45.166 -125.834 95.499 -165.501s113.833 -59.5 190.5 -59.5c80 0 147.833 20.667 203.5 62s83.5 91 83.5 149c0 73.333 -77.667 129.666 -233 168.999l-59 15c-116 30.667 -195.333 64.667 -238 102s-64 88 -64 152
c0 85.333 36.833 154.166 110.5 206.499s171.5 78.5 293.5 78.5c49.333 0 95 -4 137 -12s80.333 -20 115 -36z" />
    <glyph glyph-name="t" unicode="t" horiz-adv-x="682" 
d="M285 1235l14.001 -0.000976562v-272h295v-80h-295v-631c0 -68 11.167 -115.667 33.5 -143s58.833 -41 109.5 -41c28.667 0 57 5 85 15s57 25.333 87 46v-96c-28.667 -20 -58.334 -34.667 -89.001 -44s-65 -14 -103 -14c-76.667 0 -134.5 21.833 -173.5 65.5
s-58.5 108.834 -58.5 195.501v647h-133v80h133l1 196c20 6 37.333 14.833 52 26.5s28.667 28.167 42 49.5z" />
    <glyph glyph-name="u" unicode="u" horiz-adv-x="1067" 
d="M764 -4c4 18.667 6.99805 40.502 8.99805 65.502s3.66699 63.833 5 116.5c-35.333 -64 -79.166 -112 -131.499 -144s-113.5 -48 -183.5 -48c-106 0 -184.667 30.167 -236 90.5s-77 152.166 -77 275.499v436c0 37.333 -6.16699 61.833 -18.5 73.5s-40.5 18.167 -84.5 19.5
v28c30 4.66699 62.333 13.834 97 27.501s75.334 33.167 122.001 58.5c-2.66699 -12.667 -4.66699 -27.667 -6 -45s-2 -45.333 -2 -84v-61v-432c0 -108 17.833 -185.167 53.5 -231.5s93.5 -69.5 173.5 -69.5c96 0 168.167 31.333 216.5 94s72.5 156 72.5 280v342
c0 37.333 -5.83301 61.833 -17.5 73.5s-39.167 18.167 -82.5 19.5v28c29.333 4.66699 61.5 13.834 96.5 27.501s75.833 33.167 122.5 58.5c-4 -22.667 -7 -48.834 -9 -78.501s-3 -66.834 -3 -111.501v-635c0 -52 7.5 -87.333 22.5 -106s42.167 -30.334 81.5 -35.001v-33
c-18 4.66699 -37.167 8.16699 -57.5 10.5s-44.833 3.5 -73.5 3.5c-18.667 0 -35.167 -1.16699 -49.5 -3.5s-27.833 -5.83301 -40.5 -10.5z" />
    <glyph glyph-name="v" unicode="v" horiz-adv-x="915" 
d="M2 967c22 -5.33301 45 -9.16504 69 -11.498s52.333 -3.5 85 -3.5c34.667 0 64 1.16699 88 3.5s47 6.16602 69 11.499v-33c-38 -4.66699 -63.5 -11.667 -76.5 -21s-19.5 -24.333 -19.5 -45c0 -5.33301 1.16699 -13.5 3.5 -24.5s5.5 -22.833 9.5 -35.5l223 -675l239 676
c4 10.667 7.16699 21.5 9.5 32.5s3.5 21.167 3.5 30.5c0 18.667 -6.83301 32.5 -20.5 41.5s-38.834 15.833 -75.501 20.5l-1 32c20.667 -4 43.334 -7.33301 68.001 -10s50.667 -4 78 -4c32 0 59.167 1.16699 81.5 3.5s43.5 6.16602 63.5 11.499v-33
c-49.333 -12.667 -90 -63.667 -122 -153l-9 -25l-283 -770h-88l-264 770c-24 70 -44.667 115.333 -62 136s-40.333 34.667 -69 42v33z" />
    <glyph glyph-name="w" unicode="w" horiz-adv-x="1309" 
d="M-14 966c23.333 -4.66699 47.333 -8.16504 72 -10.498s50.334 -3.5 77.001 -3.5c33.333 0 62 1.16699 86 3.5s47.333 5.83301 70 10.5v-32c-37.333 -4.66699 -62.333 -11.667 -75 -21s-19 -24.333 -19 -45c0 -5.33301 1 -13 3 -23s5 -22 9 -36l213 -668l188 592l-6 23
c-16 58 -34.167 100.5 -54.5 127.5s-45.833 43.833 -76.5 50.5v32c20.667 -4.66699 43 -8.16699 67 -10.5s52.333 -3.5 85 -3.5c29.333 0 56.5 1.16699 81.5 3.5s48.167 5.83301 69.5 10.5v-32c-38 -4.66699 -63.5 -11.667 -76.5 -21s-19.5 -24.333 -19.5 -45
c0 -5.33301 1 -13 3 -23s5 -22 9 -36l203 -664l209 664c3.33301 11.333 5.83301 22.166 7.5 32.499s2.5 20.5 2.5 30.5c0 18.667 -6.66699 32.5 -20 41.5s-38 15.833 -74 20.5v32c20.667 -4 43.167 -7.33301 67.5 -10s50.166 -4 77.499 -4c32 0 59.167 1.16699 81.5 3.5
s43.833 6.16602 64.5 11.499v-33c-29.333 -6.66699 -53 -21.334 -71 -44.001s-38 -67.334 -60 -134.001l-250 -770h-90l-187 618l-198 -618h-88l-248 770c-21.333 64.667 -41.333 108.834 -60 132.501s-43 38.834 -73 45.501v32z" />
    <glyph glyph-name="x" unicode="x" horiz-adv-x="915" 
d="M37 966c24.667 -4.66699 50.334 -8.16602 77.001 -10.499s55.667 -3.5 87 -3.5s61.833 1.33301 91.5 4s57.167 6 82.5 10l-1 -32c-28 -1.33301 -49.5 -5.83301 -64.5 -13.5s-22.5 -18.167 -22.5 -31.5c0 -5.33301 2 -12.666 6 -21.999s9.33301 -19.666 16 -30.999
l146 -242l157 242c7.33301 10.667 13 21.167 17 31.5s6 18.833 6 25.5c0 11.333 -8 20.666 -24 27.999s-37.333 11.666 -64 12.999v32c20.667 -4.66699 42.834 -8.16699 66.501 -10.5s51.834 -3.5 84.501 -3.5c29.333 0 56.166 1.16699 80.499 3.5s47.5 5.83301 69.5 10.5
v-32c-29.333 -4 -54 -13.167 -74 -27.5s-41 -39.5 -63 -75.5l-205 -313l260 -387c26.667 -38.667 49.334 -64.5 68.001 -77.5s41.667 -21.5 69 -25.5v-32c-24 4.66699 -49.5 8.16699 -76.5 10.5s-56.167 3.5 -87.5 3.5c-32.667 0 -63.334 -1.16699 -92.001 -3.5
s-55.667 -5.83301 -81 -10.5l-1 32c27.333 1.33301 48.833 5.66602 64.5 12.999s23.5 17 23.5 29c0 6 -1.83301 13.833 -5.5 23.5s-9.16699 20.834 -16.5 33.501l-180 299l-199 -299c-6.66699 -9.33301 -12.167 -19 -16.5 -29s-6.5 -18 -6.5 -24c0 -13.333 8 -24 24 -32
s37.333 -12.333 64 -13v-33c-20 4.66699 -41.667 8.16699 -65 10.5s-52 3.5 -86 3.5c-28.667 0 -55.334 -1.16699 -80.001 -3.5s-47.667 -5.83301 -69 -10.5v33c27.333 3.33301 51 12.166 71 26.499s42 39.5 66 75.5l239 369l-219 331c-24.667 37.333 -46.834 63 -66.501 77
s-43.167 22.667 -70.5 26v32z" />
    <glyph glyph-name="y" unicode="y" horiz-adv-x="915" 
d="M401 -14l-263.999 770c-24 70 -44.667 115.333 -62 136s-40.333 34.667 -69 42v33c22 -5.33301 45 -9.16602 69 -11.499s52.333 -3.5 85 -3.5c34.667 0 64.167 1.16699 88.5 3.5s47.166 6.16602 68.499 11.499v-33c-38 -4.66699 -63.5 -11.667 -76.5 -21
s-19.5 -24.333 -19.5 -45c0 -5.33301 1.16699 -13.5 3.5 -24.5s5.5 -22.833 9.5 -35.5l223 -675l239 676c4 10.667 7.16699 21.5 9.5 32.5s3.5 21.167 3.5 30.5c0 18.667 -6.83301 32.5 -20.5 41.5s-38.834 15.833 -75.501 20.5l-1 32c20.667 -4 43.334 -7.33301 68.001 -10
s50.667 -4 78 -4c32 0 59.167 1.16699 81.5 3.5s43.5 6.16602 63.5 11.499v-33c-49.333 -12.667 -90 -63.667 -122 -153l-9 -25l-305 -834c-48 -132 -88.667 -216.167 -122 -252.5s-76 -54.5 -128 -54.5c-18.667 0 -37.667 3.33301 -57 10s-38.666 16.334 -57.999 29.001
c-0.666992 30.667 -2.16699 59.667 -4.5 87s-5.5 53.333 -9.5 78l35 1c7.33301 -30.667 18.166 -52.667 32.499 -66s34.166 -20 59.499 -20c32.667 0 60.834 9.16699 84.501 27.5s41.167 44.5 52.5 78.5z" />
    <glyph glyph-name="z" unicode="z" horiz-adv-x="872" 
d="M158 963h635.003l-574 -881h303c75.333 0 130.833 13.333 166.5 40s59.5 72.667 71.5 138h33c-6.66699 -50.667 -12.334 -98 -17.001 -142s-8.33398 -83.333 -11.001 -118h-720l576 881h-299c-46 0 -83.333 -12.5 -112 -37.5s-50.334 -63.167 -65.001 -114.5h-30
c9.33301 36 17.5 73.5 24.5 112.5s13.167 79.5 18.5 121.5z" />
    <glyph glyph-name="braceleft" unicode="{" 
d="M846 1516v-49.001c-98 -1.33301 -164.833 -19.666 -200.5 -54.999s-53.5 -105.333 -53.5 -210v-145c0 -150 -21 -252.667 -63 -308s-120 -93.333 -234 -114c114 -21.333 192 -59.5 234 -114.5s63 -157.5 63 -307.5v-145c0 -104 17.667 -173.5 53 -208.5
s102.333 -53.167 201 -54.5v-49h-10c-143.333 0 -241.666 24.333 -294.999 73s-80 139.667 -80 273v217c0 104 -20 176 -60 216s-115 64.333 -225 73v56c112 10 187.5 34.5 226.5 73.5s58.5 110.5 58.5 214.5v217c0 133.333 26.667 224.5 80 273.5
s151.666 73.5 294.999 73.5h10z" />
    <glyph glyph-name="bar" unicode="|" 
d="M459 1565h108v-2048h-108v2048z" />
    <glyph glyph-name="braceright" unicode="}" 
d="M178 1516l10 0.00488281c144 0 242.833 -24.667 296.5 -74s80.5 -140.333 80.5 -273v-217c0 -104.667 19.333 -176.334 58 -215.001s113.667 -63 225 -73v-56c-110 -8.66699 -184.667 -32.834 -224 -72.501s-59 -111.834 -59 -216.501v-217
c0 -132.667 -26.833 -223.5 -80.5 -272.5s-152.5 -73.5 -296.5 -73.5h-10v49c99.333 1.33301 166.833 19.666 202.5 54.999s53.5 104.666 53.5 207.999v145c0 150.667 20.833 253.5 62.5 308.5s119.167 92.833 232.5 113.5c-113.333 20.667 -190.833 58.5 -232.5 113.5
s-62.5 157.833 -62.5 308.5v145c0 103.333 -17.833 172.833 -53.5 208.5s-103.167 54.5 -202.5 56.5v49z" />
    <glyph glyph-name="asciitilde" unicode="~" horiz-adv-x="1706" 
d="M1530 750l-0.000976562 -113c-68 -48 -134 -83.833 -198 -107.5s-127 -35.5 -189 -35.5c-66 0 -152.667 19 -260 57l-29 10l-16 6c-117.333 42.667 -208.333 64 -273 64c-55.333 0 -113.666 -12.667 -174.999 -38s-132 -66 -212 -122v113c70.667 48.667 138 85 202 109
s125.667 36 185 36c69.333 0 160 -20.333 272 -61c7.33301 -2.66699 13.333 -5 18 -7c6 -2 16.333 -5.66699 31 -11c111.333 -40 197 -60 257 -60c56.667 0 115.667 12.667 177 38s131.333 66 210 122z" />
    <glyph glyph-name="euro" horiz-adv-x="1053" 
d="M29 479l22 75.998h143l-3 65.5c-0.666992 15 -1 28.833 -1 41.5c0 12 0.333008 25.5 1 40.5l3 65.5h-153l22 76h142c11.333 60.667 27.833 117.5 49.5 170.5s48.167 101.167 79.5 144.5c47.333 64.667 101 113.667 161 147s124.333 50 193 50
c53.333 0 103.333 -7.16699 150 -21.5s91 -35.833 133 -64.5v-76c0 -55.333 0.666992 -97.833 2 -127.5s3.33301 -58.167 6 -85.5h-35c-9.33301 100.667 -35.333 175 -78 223s-103.334 72 -182.001 72c-90 0 -166.167 -38.667 -228.5 -116
s-102.166 -182.666 -119.499 -315.999h567l-20 -76h-553c-0.666992 -6.66699 -1.16699 -14.5 -1.5 -23.5s-0.5 -22.167 -0.5 -39.5c0 -26.667 0.5 -52.667 1.5 -78s2.5 -49.333 4.5 -72h487l-24 -76h-451c22 -132.667 63 -235.5 123 -308.5s134.333 -109.5 223 -109.5
c53.333 0 108.166 11.833 164.499 35.5s104.5 55.834 144.5 96.501l-6 -93c-39.333 -38.667 -87.166 -69.167 -143.499 -91.5s-112.833 -33.5 -169.5 -33.5c-124 0 -228.5 45 -313.5 135s-139.5 213 -163.5 369h-176z" />
    <glyph glyph-name="euro" unicode="&#x20ac;" horiz-adv-x="1053" 
d="M29 479l22 75.998h143l-3 65.5c-0.666992 15 -1 28.833 -1 41.5c0 12 0.333008 25.5 1 40.5l3 65.5h-153l22 76h142c11.333 60.667 27.833 117.5 49.5 170.5s48.167 101.167 79.5 144.5c47.333 64.667 101 113.667 161 147s124.333 50 193 50
c53.333 0 103.333 -7.16699 150 -21.5s91 -35.833 133 -64.5v-76c0 -55.333 0.666992 -97.833 2 -127.5s3.33301 -58.167 6 -85.5h-35c-9.33301 100.667 -35.333 175 -78 223s-103.334 72 -182.001 72c-90 0 -166.167 -38.667 -228.5 -116
s-102.166 -182.666 -119.499 -315.999h567l-20 -76h-553c-0.666992 -6.66699 -1.16699 -14.5 -1.5 -23.5s-0.5 -22.167 -0.5 -39.5c0 -26.667 0.5 -52.667 1.5 -78s2.5 -49.333 4.5 -72h487l-24 -76h-451c22 -132.667 63 -235.5 123 -308.5s134.333 -109.5 223 -109.5
c53.333 0 108.166 11.833 164.499 35.5s104.5 55.834 144.5 96.501l-6 -93c-39.333 -38.667 -87.166 -69.167 -143.499 -91.5s-112.833 -33.5 -169.5 -33.5c-124 0 -228.5 45 -313.5 135s-139.5 213 -163.5 369h-176z" />
    <glyph glyph-name="nonbreakingspace" unicode="&#xa0;" horiz-adv-x="1053" 
 />
    <glyph glyph-name="exclamdown" unicode="&#xa1;" horiz-adv-x="578" 
d="M256 952h68l45 -952h-158zM289 1356c24.667 0 46.5 -9.66699 65.5 -29s28.5 -41 28.5 -65c0 -26 -9.16699 -48.667 -27.5 -68s-40.5 -29 -66.5 -29c-26.667 0 -49 9.33301 -67 28s-27 41.667 -27 69c0 26 9.16699 48.167 27.5 66.5s40.5 27.5 66.5 27.5z" />
    <glyph glyph-name="cent" unicode="&#xa2;" horiz-adv-x="1053" 
d="M571 1356l80.001 -0.000976562v-186c41.333 -1.33301 79.666 -6.5 114.999 -15.5s69.333 -22.5 102 -40.5l13 -223h-37c-14.667 66 -41.667 115.667 -81 149s-91 50 -155 50c-100 0 -186 -39.333 -258 -118s-108 -174.667 -108 -288c0 -121.333 38.5 -222.333 115.5 -303
s174.167 -121 291.5 -121c54 0 103.833 7.83301 149.5 23.5s84.5 37.834 116.5 66.501l-22 -114c-38 -23.333 -78 -41.333 -120 -54s-82.333 -19.334 -121 -20.001l-1 -187h-80v187c-134 15.333 -242.5 68.833 -325.5 160.5s-124.5 203.834 -124.5 336.501
c0 134 40.5 246.5 121.5 337.5s190.5 147.167 328.5 168.5v191z" />
    <glyph glyph-name="sterling" unicode="&#xa3;" horiz-adv-x="1053" 
d="M877 1272v-32.9961v-35c0 -33.333 1 -67 3 -101s5 -68.667 9 -104h-33c-17.333 88 -46 155.167 -86 201.5s-89 69.5 -147 69.5c-60.667 0 -112.5 -26.333 -155.5 -79s-64.5 -119.334 -64.5 -200.001c0 -26 3 -58.667 9 -98s16.667 -96 32 -170h336v-82h-309
c4 -24.667 7 -48.667 9 -72s3 -45.666 3 -66.999c0 -88.667 -38.333 -209.334 -115 -362.001c-7.33301 -14.667 -12.333 -25 -15 -31h325c60 0 108.667 19.667 146 59s63.666 98.666 78.999 177.999h33c-14 -72 -25.167 -136 -33.5 -192s-14.5 -107.333 -18.5 -154h-663
c52.667 94.667 89.834 174.667 111.501 240s32.5 127.333 32.5 186c0 36 -9 97.333 -27 184l-6 31h-189v82h172c-6 37.333 -10.5 70.666 -13.5 99.999s-4.5 55.333 -4.5 78c0 134 33.333 243.333 100 328s150.667 127 252 127c43.333 0 83.333 -6.83301 120 -20.5
s72.667 -34.834 108 -63.501z" />
    <glyph glyph-name="currency" unicode="&#xa4;" horiz-adv-x="1053" 
d="M29 479l22 75.998h143l-3 65.5c-0.666992 15 -1 28.833 -1 41.5c0 12 0.333008 25.5 1 40.5l3 65.5h-153l22 76h142c11.333 60.667 27.833 117.5 49.5 170.5s48.167 101.167 79.5 144.5c47.333 64.667 101 113.667 161 147s124.333 50 193 50
c53.333 0 103.333 -7.16699 150 -21.5s91 -35.833 133 -64.5v-76c0 -55.333 0.666992 -97.833 2 -127.5s3.33301 -58.167 6 -85.5h-35c-9.33301 100.667 -35.333 175 -78 223s-103.334 72 -182.001 72c-90 0 -166.167 -38.667 -228.5 -116
s-102.166 -182.666 -119.499 -315.999h567l-20 -76h-553c-0.666992 -6.66699 -1.16699 -14.5 -1.5 -23.5s-0.5 -22.167 -0.5 -39.5c0 -26.667 0.5 -52.667 1.5 -78s2.5 -49.333 4.5 -72h487l-24 -76h-451c22 -132.667 63 -235.5 123 -308.5s134.333 -109.5 223 -109.5
c53.333 0 108.166 11.833 164.499 35.5s104.5 55.834 144.5 96.501l-6 -93c-39.333 -38.667 -87.166 -69.167 -143.499 -91.5s-112.833 -33.5 -169.5 -33.5c-124 0 -228.5 45 -313.5 135s-139.5 213 -163.5 369h-176z" />
    <glyph glyph-name="yen" unicode="&#xa5;" horiz-adv-x="1053" 
d="M-16 1337c28 -4.66699 57.001 -8.16797 87.001 -10.501s61.667 -3.5 95 -3.5s64.666 1.16699 93.999 3.5s57.333 5.83301 84 10.5v-32c-34 -4.66699 -58.833 -12 -74.5 -22s-23.5 -24 -23.5 -42c0 -8.66699 2.83301 -21.167 8.5 -37.5s13.834 -33.166 24.501 -50.499
l282 -502l254 475c14 25.333 23.667 46.333 29 63s8 32.667 8 48c0 20.667 -7.83301 36 -23.5 46s-41.834 17.333 -78.501 22v32c24 -4.66699 50 -8.16699 78 -10.5s58.667 -3.5 92 -3.5c38 0 71 1.16699 99 3.5s54 5.83301 78 10.5l1 -32c-31.333 -4 -59 -17 -83 -39
s-53.667 -63.667 -89 -125l-146 -258h264v-76h-305l-131 -232h436v-75h-450v-314c0 -63.333 7.83301 -103.5 23.5 -120.5s45.5 -29.833 89.5 -38.5l-1 -33c-26.667 4.66699 -54.167 8.16699 -82.5 10.5s-57.833 3.5 -88.5 3.5c-32 0 -61.333 -1.16699 -88 -3.5
s-52 -5.83301 -76 -10.5v33c44 8.66699 73.667 21.5 89 38.5s23 57.167 23 120.5v314h-477v75h465l-125 232h-340v76h295l-160 295c-23.333 44 -47 75.333 -71 94s-52.667 29.667 -86 33v32z" />
    <glyph glyph-name="brokenbar" unicode="&#xa6;" 
d="M459 408h108v-758h-108v758zM459 1432h108v-758h-108v758z" />
    <glyph glyph-name="section" unicode="&#xa7;" 
d="M492 774c-77.333 0 -140.831 -23.668 -190.498 -71.001s-74.5 -108.333 -74.5 -183c0 -84.667 30.667 -156.667 92 -216s134.666 -89 219.999 -89c74 0 135.167 25.333 183.5 76s72.5 114.667 72.5 192c0 76.667 -30.833 144.334 -92.5 203.001s-131.834 88 -210.501 88z
M708.002 1325c2.66699 -23.333 5.49805 -46.8379 8.49805 -70.5049s6.5 -47.834 10.5 -72.501l-22 -2c-18 36 -40 63 -66 81s-56 27 -90 27c-32.667 0 -61 -11.5 -85 -34.5s-36 -51.167 -36 -84.5c0 -66 67.667 -159 203 -279l4 -3c106.667 -94 176.667 -168.333 210 -223
s50 -112 50 -172c0 -99.333 -34 -182.666 -102 -249.999s-152.667 -101 -254 -101c-3.33301 0 -8.5 0.333008 -15.5 1s-12.167 1 -15.5 1c76 -56.667 129.5 -108 160.5 -154s46.5 -95.667 46.5 -149c0 -63.333 -23.167 -116.333 -69.5 -159s-103.833 -64 -172.5 -64
c-35.333 0 -69.5 4.5 -102.5 13.5s-62.167 21.5 -87.5 37.5c-0.666992 16.667 -1.83398 34.834 -3.50098 54.501s-3.83398 48.834 -6.50098 87.501l20 6c18.667 -38 44.334 -68 77.001 -90s68.334 -33 107.001 -33c36.667 0 68.667 14.333 96 43s41 61.334 41 98.001
c0 58.667 -63 139.334 -189 242.001l-60 49c-82 66.667 -140.833 130 -176.5 190s-53.5 123.667 -53.5 191c0 97.333 31.5 178.333 94.5 243s140.833 97 233.5 97c8.66699 0 19.667 -0.5 33 -1.5s30 -2.5 50 -4.5c-77.333 59.333 -133 113.333 -167 162
s-51 98.334 -51 149.001c0 60 22.333 109.167 67 147.5s102.667 57.5 174 57.5c24.667 0 48.334 -2.5 71.001 -7.5s45.334 -12.833 68.001 -23.5z" />
    <glyph glyph-name="dieresis" unicode="&#xa8;" 
d="M688 1352c26.667 0 49.667 -10 69 -30s29 -43.667 29 -71c0 -28 -9.33301 -51.667 -28 -71s-42 -29 -70 -29s-51.667 9.66699 -71 29s-29 43 -29 71c0 26.667 10 50.167 30 70.5s43.333 30.5 70 30.5zM336 1352c26.667 0 50 -10.167 70 -30.5s30 -43.833 30 -70.5
c0 -28 -9.66699 -51.667 -29 -71s-43 -29 -71 -29s-51.333 9.66699 -70 29s-28 43 -28 71c0 27.333 9.66699 51 29 71s42.333 30 69 30z" />
    <glyph glyph-name="copyright" unicode="&#xa9;" horiz-adv-x="1683" 
d="M1120 1093l31.002 0.999023v-310h-37c-21.333 90 -56 158.333 -104 205s-107.667 70 -179 70c-83.333 0 -146.333 -31.667 -189 -95s-64 -156.666 -64 -279.999c0 -125.333 23 -220.5 69 -285.5s113.667 -97.5 203 -97.5c58.667 0 111.5 14.5 158.5 43.5
s89.167 72.5 126.5 130.5l32 -22c-38.667 -70 -86.167 -122 -142.5 -156s-122.833 -51 -199.5 -51c-108.667 0 -202 40.833 -280 122.5s-117 180.167 -117 295.5c0 123.333 38.333 226.833 115 310.5s170.667 125.5 282 125.5c49.333 0 98.666 -11.333 147.999 -34
s76.666 -34 81.999 -34c18.667 0 33.5 5.33301 44.5 16s17.833 25.667 20.5 45zM844.002 1300c-81.333 0 -160.001 -15.9971 -236.001 -47.9971s-142.667 -77.333 -200 -136c-59.333 -60.667 -104.333 -128.334 -135 -203.001s-46 -153 -46 -235
c0 -83.333 15.667 -162.5 47 -237.5s76.666 -141.833 135.999 -200.5c59.333 -60 125.5 -105.5 198.5 -136.5s150.833 -46.5 233.5 -46.5c83.333 0 162.333 15.667 237 47s140.334 76.666 197.001 135.999c58.667 60.667 103.667 128.667 135 204s47 153.333 47 234
c0 81.333 -16 161 -48 239s-76.667 145.667 -134 203s-123.666 101.666 -198.999 132.999s-153 47 -233 47zM844.001 1376c91.333 0 179.669 -17.668 265.002 -53.001s160 -85 224 -149c64.667 -64 115 -139.667 151 -227s54 -177 54 -269
c0 -91.333 -17.5 -179.333 -52.5 -264s-85.833 -160.667 -152.5 -228c-64.667 -66 -139.334 -116.5 -224.001 -151.5s-173.667 -52.5 -267 -52.5c-92.667 0 -180.834 17.333 -264.501 52s-159.5 85.334 -227.5 152.001c-66.667 66 -117.5 141 -152.5 225
s-52.5 173 -52.5 267c0 93.333 17.5 182.5 52.5 267.5s85.167 160.167 150.5 225.5c64.667 65.333 140 115.833 226 151.5s176 53.5 270 53.5z" />
    <glyph glyph-name="ordfeminine" unicode="&#xaa;" horiz-adv-x="748" 
d="M686 680l0.00195312 -25c-20 5.33301 -35.5 8.83301 -46.5 10.5s-21.5 2.5 -31.5 2.5c-10.667 0 -30 -2 -58 -6l-18 -3l7 138c-30.667 -48 -68.167 -84.667 -112.5 -110s-92.833 -38 -145.5 -38c-66 0 -120.5 18.667 -163.5 56s-64.5 84.333 -64.5 141
c0 26.667 5.33301 51.667 16 75s26 43.333 46 60c32.667 29.333 98 48.666 196 57.999c13.333 1.33301 23.666 2.33301 30.999 3c4 0.666992 9.66699 1.33398 17 2.00098c115.333 12 173 39.333 173 82c0 56.667 -15.5 99.5 -46.5 128.5s-76.833 43.5 -137.5 43.5
c-52 0 -96.5 -12.5 -133.5 -37.5s-60.167 -58.167 -69.5 -99.5l-28 1c4.66699 18.667 8.16699 37.5 10.5 56.5s3.5 37.5 3.5 55.5v22c38.667 18.667 75.667 32.334 111 41.001s70.666 13 105.999 13c88 0 154 -19.833 198 -59.5s66 -98.5 66 -176.5v-377
c0 -18.667 6.33301 -32.834 19 -42.501s31 -14.5 55 -14.5zM532.002 1020c-34.667 -6.66699 -82.332 -14.668 -142.999 -24.001c-165.333 -25.333 -248 -73.333 -248 -144c0 -39.333 15.667 -72.666 47 -99.999s69.666 -41 114.999 -41c67.333 0 122.833 24.167 166.5 72.5
s65.5 111.5 65.5 189.5l-1.5 15.5c-1 10.333 -1.5 20.833 -1.5 31.5z" />
    <glyph glyph-name="guillemotleft" unicode="&#xab;" horiz-adv-x="764" 
d="M494 905c6.66699 0 12.334 -1.66699 17.001 -5s7 -7.66602 7 -12.999c0 -10 -11.667 -22.667 -35 -38c-16.667 -10.667 -30.334 -20 -41.001 -28c-94 -73.333 -159.833 -135.5 -197.5 -186.5s-56.5 -102.167 -56.5 -153.5c0 -50 18 -99.5 54 -148.5
s103 -112.167 201 -189.5c9.33301 -7.33301 22 -16.333 38 -27c24.667 -16.667 37 -30 37 -40c0 -5.33301 -1.83301 -9.33301 -5.5 -12s-9.16699 -4.33398 -16.5 -5.00098c-12 0 -31.833 7.33301 -59.5 22s-62.5 36 -104.5 64c-108 71.333 -179.833 130.5 -215.5 177.5
s-53.5 99.833 -53.5 158.5c0 57.333 16.5 109.166 49.5 155.499s94.5 99.833 184.5 160.5c54 36.667 97.167 63.834 129.5 81.501s54.833 26.5 67.5 26.5zM707 946c6.66699 0 11.668 -1.66699 15.001 -5s5 -8.33301 5 -15c0 -8 -13 -27.333 -39 -58
c-22 -26 -39.667 -47.667 -53 -65c-70 -93.333 -114.833 -160.833 -134.5 -202.5s-29.5 -81.5 -29.5 -119.5c0 -37.333 9.83301 -77 29.5 -119s64.5 -109.333 134.5 -202c14.667 -20.667 33.667 -44.334 57 -71.001s35 -43.334 35 -50.001
c0 -7.33301 -1.66699 -12.666 -5 -15.999s-8.33301 -5 -15 -5c-9.33301 0 -28 12.333 -56 37s-68.333 63.667 -121 117c-72.667 74 -122.5 133.5 -149.5 178.5s-40.5 88.5 -40.5 130.5c0 35.333 9 70.833 27 106.5s49.333 78.834 94 129.501
c57.333 64 110.166 118.167 158.499 162.5s77.5 66.5 87.5 66.5z" />
    <glyph glyph-name="logicalnot" unicode="&#xac;" horiz-adv-x="1706" 
d="M254 858h1198v-502h-96v402h-1102v100z" />
    <glyph glyph-name="sfthyphen" unicode="&#xad;" horiz-adv-x="702" 
d="M600 651l35.001 0.00195312c-12.667 -38.667 -23.834 -74.834 -33.501 -108.501s-17.5 -65.834 -23.5 -96.501h-369c-20.667 0 -39 -7.16699 -55 -21.5s-34 -39.833 -54 -76.5h-34c10 31.333 19.833 64 29.5 98s18.834 69.667 27.501 107h369
c20 0 38.167 7.16699 54.5 21.5s34.166 39.833 53.499 76.5z" />
    <glyph glyph-name="registered" unicode="&#xae;" horiz-adv-x="1683" 
d="M723 717l33.001 0.000976562h35c79.333 0 140.333 15.167 183 45.5s64 73.833 64 130.5c0 49.333 -18.5 88.666 -55.5 117.999s-87.5 44 -151.5 44c-34.667 0 -61.334 -6.33301 -80.001 -19s-28 -31 -28 -55v-264zM469.001 1090h393c98 0 175.167 -18 231.5 -54
s84.5 -84.333 84.5 -145c0 -50 -22.833 -90.833 -68.5 -122.5s-119.167 -57.167 -220.5 -76.5c62.667 -20.667 109.834 -47 141.501 -79s54.834 -76.667 69.501 -134c4 -15.333 8.33301 -36.666 13 -63.999c9.33301 -56.667 28.666 -85 57.999 -85
c24.667 0 42.834 10.667 54.501 32s17.5 54.333 17.5 99h41v-12c0 -57.333 -13.333 -101.166 -40 -131.499s-65.334 -45.5 -116.001 -45.5c-30 0 -56.333 6.16699 -79 18.5s-38.667 29.5 -48 51.5c-10.667 25.333 -16.334 62.5 -17.001 111.5s-3.66699 82.167 -9 99.5
c-14 44 -38.5 76.5 -73.5 97.5s-82.167 31.5 -141.5 31.5c-4 0 -10.167 -0.333008 -18.5 -1s-14.5 -1 -18.5 -1v-246c0 -37.333 9.66699 -63.5 29 -78.5s53.333 -23.167 102 -24.5v-40h-385v40c50 2 84.333 10.333 103 25s28 40.667 28 78v514
c0 37.333 -9.33301 63.166 -28 77.499s-53 22.166 -103 23.499v41zM844.001 1300c-81.333 0 -160.001 -15.998 -236.001 -47.998s-142.667 -77.333 -200 -136c-58.667 -59.333 -103.5 -126.666 -134.5 -201.999s-46.5 -154 -46.5 -236c0 -83.333 15.667 -162.5 47 -237.5
s76.666 -141.833 135.999 -200.5c59.333 -60 125.5 -105.5 198.5 -136.5s150.833 -46.5 233.5 -46.5c83.333 0 162.333 15.667 237 47s140.334 76.666 197.001 135.999c58.667 60.667 103.667 128.667 135 204s47 153.333 47 234c0 81.333 -16.167 161.166 -48.5 239.499
s-76.833 145.833 -133.5 202.5c-57.333 57.333 -123.666 101.666 -198.999 132.999s-153 47 -233 47zM844 1376c91.333 0 179.669 -17.833 265.002 -53.5s160.666 -86.167 225.999 -151.5c64 -64 113.833 -139.167 149.5 -225.5s53.5 -175.5 53.5 -267.5
c0 -92.667 -17.833 -181.5 -53.5 -266.5s-86.834 -160.833 -153.501 -227.5c-66 -66 -141.167 -116.167 -225.5 -150.5s-173.5 -51.5 -267.5 -51.5c-92 0 -179.667 17.5 -263 52.5s-158.333 85.5 -225 151.5s-117.5 141 -152.5 225s-52.5 173 -52.5 267
c0 93.333 17.5 182.5 52.5 267.5s85.167 160.167 150.5 225.5c64.667 65.333 140 115.833 226 151.5s176 53.5 270 53.5z" />
    <glyph glyph-name="macron" unicode="&#xaf;" 
d="M254 1315h516v-125h-516v125z" />
    <glyph glyph-name="degree" unicode="&#xb0;" horiz-adv-x="674" 
d="M338 1382c-57.333 0 -106.501 -20.333 -147.501 -61s-61.5 -89.667 -61.5 -147c0 -58 20.333 -107 61 -147s90 -60 148 -60s107 20 147 60s60 89 60 147c0 57.333 -20.167 106.333 -60.5 147s-89.166 61 -146.499 61zM337.999 1452
c76.667 0 141.834 -27.166 195.501 -81.499s80.5 -119.833 80.5 -196.5s-27.167 -142.334 -81.5 -197.001s-119.833 -82 -196.5 -82c-78 0 -143.667 27 -197 81s-80 120 -80 198c0 77.333 27.167 143 81.5 197s120.166 81 197.499 81z" />
    <glyph glyph-name="plusminus" unicode="&#xb1;" horiz-adv-x="1706" 
d="M254 150h1198v-99h-1198v99zM805 1169h98v-348h549v-98h-549v-348h-98v348h-551v98h551v348z" />
    <glyph glyph-name="twosuperior" unicode="&#xb2;" horiz-adv-x="694" 
d="M193 606l405.001 -0.00195312l-20 -74h-480l11 72c127.333 91.333 223.333 179.333 288 264s97 165.334 97 242.001c0 55.333 -14.833 99.833 -44.5 133.5s-68.834 50.5 -117.501 50.5c-40.667 0 -76.834 -13.333 -108.501 -40s-57.167 -65 -76.5 -115h-30
c10.667 36.667 21.334 91.334 32.001 164.001l1 6c30 12 58.333 21.167 85 27.5s52.667 9.5 78 9.5c78.667 0 143.5 -21.667 194.5 -65s76.5 -99 76.5 -167c0 -76 -30.667 -153.833 -92 -233.5s-161 -171.167 -299 -274.5z" />
    <glyph glyph-name="threesuperior" unicode="&#xb3;" horiz-adv-x="694" 
d="M318 948c78.667 -0.666992 141.163 -16.333 187.496 -47s69.5 -71.667 69.5 -123c0 -72 -43.667 -133.333 -131 -184s-197.666 -76 -330.999 -76h-4l-11 39c109.333 4 198.833 27.667 268.5 71s104.5 95.333 104.5 156c0 43.333 -21.333 76 -64 98
s-105.334 33 -188.001 33h-33l9 46c78 6.66699 140.833 29.167 188.5 67.5s71.5 84.5 71.5 138.5c0 40 -13.667 71.833 -41 95.5s-63.666 35.5 -108.999 35.5c-43.333 0 -79.666 -12.833 -108.999 -38.5s-54.333 -66.5 -75 -122.5h-31c6 28.667 12.333 63 19 103
s10.667 63.667 12 71c30 11.333 59.667 20 89 26s58.333 9 87 9c74.667 0 136.334 -17.5 185.001 -52.5s73 -78.5 73 -130.5c0 -46 -20.667 -87.833 -62 -125.5s-99.666 -67.5 -174.999 -89.5z" />
    <glyph glyph-name="acute" unicode="&#xb4;" 
d="M403 1098l-67 -0.000976562l289 299c23.333 23.333 42 39 56 47s28 12 42 12c20 0 37 -7 51 -21s21 -31 21 -51c0 -14 -5.16699 -27.667 -15.5 -41s-25.833 -26.666 -46.5 -39.999z" />
    <glyph glyph-name="mu" unicode="&#xb5;" horiz-adv-x="1079" 
d="M162 190c-15.333 -87.333 -30.002 -196.999 -44.002 -328.999c-20.667 -184.667 -56 -277 -106 -277c-22.667 0 -40.167 6.5 -52.5 19.5s-18.5 31.167 -18.5 54.5c0 26.667 20 119.834 60 279.501s73 302.834 99 429.501l111 518h129l-109 -509
c-3.33301 -17.333 -5.83301 -33.833 -7.5 -49.5s-2.5 -30.834 -2.5 -45.501c0 -60.667 14.833 -108.667 44.5 -144s69.5 -53 119.5 -53c66.667 0 123.334 26.333 170.001 79s80.667 128.667 102 228l111 494h129l-115 -527c-7.33301 -35.333 -12.833 -65.833 -16.5 -91.5
s-5.5 -46.834 -5.5 -63.501c0 -34 7 -60.333 21 -79s33.667 -28 59 -28c26 0 49.833 7.5 71.5 22.5s40.834 37.5 57.501 67.5c8 16 17.667 40.667 29 74c16 48 32.333 72 49 72c6.66699 0 12 -3.16699 16 -9.5s6 -14.833 6 -25.5c0 -18 -5.5 -44.833 -16.5 -80.5
s-24.5 -66.834 -40.5 -93.501c-26 -45.333 -56.167 -79.5 -90.5 -102.5s-71.833 -34.5 -112.5 -34.5c-50 0 -87.833 15.167 -113.5 45.5s-38.5 75.166 -38.5 134.499v27c-29.333 -72 -66.666 -125.5 -111.999 -160.5s-99.333 -52.5 -162 -52.5
c-63.333 0 -113.833 17.833 -151.5 53.5s-60.834 87.834 -69.501 156.501z" />
    <glyph glyph-name="paragraph" unicode="&#xb6;" 
d="M940 1479l-0.000976562 -70h-127v-1409h-82v1409h-186v-1409h-84v782c-116 5.33301 -207.833 39.5 -275.5 102.5s-101.5 144.833 -101.5 245.5c0 104.667 35.833 189 107.5 253s166.834 96 285.501 96h463z" />
    <glyph glyph-name="periodcentered" unicode="&#xb7;" horiz-adv-x="526" 
d="M262 762c26.667 0 49.333 -9.33301 68 -28s28 -41.334 28 -68.001c0 -26 -9.5 -48.333 -28.5 -67s-41.5 -28 -67.5 -28c-24.667 0 -46.5 9.5 -65.5 28.5s-28.5 41.167 -28.5 66.5c0 26.667 9 49.334 27 68.001s40.333 28 67 28z" />
    <glyph glyph-name="cedilla" unicode="&#xb8;" 
d="M479 0l64.002 0.00195312v-112c16 2 29.5 3.33301 40.5 4s20.5 1.33398 28.5 2.00098c53.333 0 95.666 -15 126.999 -45s47 -69.667 47 -119c0 -55.333 -19.333 -98.5 -58 -129.5s-92.334 -46.5 -161.001 -46.5c-36 0 -75.167 5.16699 -117.5 15.5
s-100.833 30.166 -175.5 59.499l35 78c39.333 -22.667 79 -40.334 119 -53.001s74.667 -19 104 -19c42 0 72.667 7.5 92 22.5s29 38.5 29 70.5c0 27.333 -9.83301 49.166 -29.5 65.499s-46.5 24.5 -80.5 24.5c-6 0 -14.167 -0.5 -24.5 -1.5s-23.5 -2.5 -39.5 -4.5v188z" />
    <glyph glyph-name="onesuperior" unicode="&#xb9;" horiz-adv-x="694" 
d="M231 528l1.00293 21.001c28 4.66699 47.167 12.167 57.5 22.5s15.5 34.833 15.5 73.5v584c0 17.333 -5.16699 29.333 -15.5 36s-34.5 12 -72.5 16v17c40 12 73.667 22.667 101 32s53.666 19.333 78.999 30c-1.33301 -44.667 -2.33301 -81.834 -3 -111.501
s-1 -57.5 -1 -83.5v-520c0 -38 5.16699 -62.167 15.5 -72.5s30.5 -18.5 60.5 -24.5v-20c-16.667 2.66699 -34.834 4.83398 -54.501 6.50098s-41.167 2.5 -64.5 2.5s-44.833 -0.833008 -64.5 -2.5s-37.834 -3.83398 -54.501 -6.50098z" />
    <glyph glyph-name="ordmasculine" unicode="&#xba;" horiz-adv-x="854" 
d="M422 1292c-80.667 0 -145.833 -24.6689 -195.5 -74.002s-74.5 -114 -74.5 -194c0 -91.333 26.667 -168.166 80 -230.499s119.333 -93.5 198 -93.5c80 0 145 25.333 195 76s75 116.334 75 197.001c0 89.333 -27 164.833 -81 226.5s-119.667 92.5 -197 92.5zM428.001 1350
c104.667 0 191.667 -33.5 261 -100.5s104 -151.167 104 -252.5s-34.5 -185.666 -103.5 -252.999s-156.167 -101 -261.5 -101c-106 0 -194 33.667 -264 101s-105 151.666 -105 252.999s35 185.5 105 252.5s158 100.5 264 100.5z" />
    <glyph glyph-name="guillemotright" unicode="&#xbb;" horiz-adv-x="764" 
d="M246 889c0 4.66699 1.99707 8.49805 5.99707 11.498s9.33301 4.5 16 4.5c11.333 0 31.5 -7.5 60.5 -22.5s63.5 -36.167 103.5 -63.5c107.333 -71.333 178.5 -130.666 213.5 -177.999s52.5 -100.666 52.5 -159.999c0 -57.333 -16.167 -108.666 -48.5 -153.999
s-93.166 -98.333 -182.499 -159c-50 -34.667 -92.333 -61.5 -127 -80.5s-58.667 -28.5 -72 -28.5c-6.66699 0 -12 1.33301 -16 4s-6 6.33398 -6 11.001c0 12 12 26 36 42c16.667 10.667 29.667 19.667 39 27c94.667 73.333 160.334 135.166 197.001 185.499
s55 101.166 55 152.499c0 49.333 -16 97 -48 143s-95.667 107.667 -191 185c-13.333 10.667 -29.666 22.667 -48.999 36c-26 17.333 -39 32 -39 44zM56.9971 945.998c9.33301 0 33.667 -17.833 73 -53.5s87.333 -83.834 144 -144.501
c53.333 -57.333 91.333 -106.5 114 -147.5s34 -80.833 34 -119.5s-11 -78.167 -33 -118.5s-59.667 -88.833 -113 -145.5c-58 -62 -106.5 -110.667 -145.5 -146s-63.5 -53 -73.5 -53c-6.66699 0 -11.667 1.66699 -15 5s-5 8.66602 -5 15.999
c0 6.66699 11.667 23.334 35 50.001s42.333 50.334 57 71.001c70 92.667 114.833 160 134.5 202s29.5 81.667 29.5 119c0 38 -9.83301 77.833 -29.5 119.5s-64.5 109.167 -134.5 202.5c-14 19.333 -32.833 42.833 -56.5 70.5s-35.5 45.167 -35.5 52.5
c0 6.66699 1.66699 11.667 5 15s8.33301 5 15 5z" />
    <glyph glyph-name="onequarter" unicode="&#xbc;" horiz-adv-x="1669" 
d="M1415 631c-60.667 -71.333 -114.333 -139.5 -161 -204.5s-87 -127.833 -121 -188.5h282v393zM1448 760l47.002 -0.000976562v-522h115v-45h-115v-193h-80v193h-356v45c49.333 82 106.166 166.333 170.499 253s137.166 176.334 218.499 269.001zM1282 1356l64 -45
l-959 -1336l-65 48zM219.003 581.999l-0.000976562 18.001c27.333 4.66699 46.166 11.834 56.499 21.501s15.5 32.5 15.5 68.5v547c0 15.333 -5.16699 26.166 -15.5 32.499s-33.166 11.166 -68.499 14.499v16l86 27c28.667 9.33301 57.334 19.666 86.001 30.999
c-1.33301 -20 -2.33301 -42.167 -3 -66.5s-1 -62.833 -1 -115.5v-486c0 -36 4.83301 -58.667 14.5 -68s28.5 -16.666 56.5 -21.999v-18c-16.667 2.66699 -34 4.66699 -52 6s-38 2 -60 2s-42.5 -0.666992 -61.5 -2s-36.833 -3.33301 -53.5 -6z" />
    <glyph glyph-name="onehalf" unicode="&#xbd;" horiz-adv-x="1669" 
d="M1190 70l384.997 0.00195312l-16 -70h-459l8 66c122 84 214 165.667 276 245s93 155.333 93 228c0 51.333 -14.167 92.833 -42.5 124.5s-65.5 47.5 -111.5 47.5c-39.333 0 -74 -12.333 -104 -37s-54 -60.334 -72 -107.001h-29
c8.66699 31.333 18.334 79.666 29.001 144.999c0.666992 5.33301 1.33398 9.66602 2.00098 12.999c28.667 11.333 55.5 19.666 80.5 24.999s50.167 8 75.5 8c74.667 0 136.334 -20 185.001 -60s73 -91.667 73 -155c0 -71.333 -29.167 -144.166 -87.5 -218.499
s-153.5 -159.166 -285.5 -254.499zM1282 1356l64 -45l-959 -1336l-65 48zM218.997 582.002l-0.000976562 18.001c27.333 4.66699 46.166 11.834 56.499 21.501s15.5 32.5 15.5 68.5v547c0 15.333 -5.16699 26.166 -15.5 32.499s-33.166 11.166 -68.499 14.499v16l86 27
c28.667 9.33301 57.334 19.666 86.001 30.999c-1.33301 -20 -2.33301 -42.167 -3 -66.5s-1 -62.833 -1 -115.5v-486c0 -36 4.83301 -58.667 14.5 -68s28.5 -16.666 56.5 -21.999v-18c-16.667 2.66699 -34 4.66699 -52 6s-38 2 -60 2s-42.5 -0.666992 -61.5 -2
s-36.833 -3.33301 -53.5 -6z" />
    <glyph glyph-name="threequarters" unicode="&#xbe;" horiz-adv-x="1669" 
d="M1415 631c-60.667 -71.333 -114.333 -139.5 -161 -204.5s-87 -127.833 -121 -188.5h282v393zM1448 760l47.002 -0.000976562v-522h115v-45h-115v-193h-80v193h-356v45c49.333 82 106.166 166.333 170.499 253s137.166 176.334 218.499 269.001zM1282 1356l64 -45
l-959 -1336l-65 48zM304.003 974.999c75.333 -1.33301 135 -16.3311 179 -44.998s66 -67 66 -115c0 -68 -41.833 -125.667 -125.5 -173s-189.5 -71 -317.5 -71h-4l-10 37c104.667 4 190.334 26.167 257.001 66.5s100 89.166 100 146.499c0 40.667 -20.333 71.334 -61 92.001
s-100.334 31 -179.001 31h-3c-9.33301 -1.33301 -18.666 -2 -27.999 -2l8 43c75.333 7.33301 135.5 28.666 180.5 63.999s67.5 79 67.5 131c0 36 -13.167 65 -39.5 87s-60.833 33 -103.5 33c-41.333 0 -76 -12.167 -104 -36.5s-51.333 -62.5 -70 -114.5l-31 2
c9.33301 41.333 18.666 93.666 27.999 156.999l1 3c29.333 11.333 58 20 86 26s56 9 84 9c70.667 0 129.167 -16.667 175.5 -50s69.5 -74 69.5 -122c0 -43.333 -19.667 -82.333 -59 -117s-95 -62 -167 -82z" />
    <glyph glyph-name="questiondown" unicode="&#xbf;" horiz-adv-x="848" 
d="M444 964l42.998 0.999023c2 -80 3.83301 -139.5 5.5 -178.5s4.16699 -74.5 7.5 -106.5h-13c-95.333 0 -173.666 -29.5 -234.999 -88.5s-92 -133.167 -92 -222.5c0 -88.667 26.667 -162.5 80 -221.5s119.333 -88.5 198 -88.5c70 0 131.333 22.5 184 67.5
s88.334 105.833 107.001 182.5h33c-7.33301 -40.667 -13 -82.5 -17 -125.5s-6.66699 -87.167 -8 -132.5c-44 -24 -91 -42.667 -141 -56s-97.667 -20 -143 -20c-122.667 0 -222.667 37.333 -300 112s-116 171.334 -116 290.001c0 88 20 159.667 60 215s126.333 112 259 170
c28 12 48.5 32.5 61.5 61.5s21.833 75.833 26.5 140.5zM466.998 1356c24 0 45.334 -9.5 64.001 -28.5s28 -40.833 28 -65.5c0 -26.667 -8.83301 -49.5 -26.5 -68.5s-39.5 -28.5 -65.5 -28.5c-26.667 0 -49.334 9.5 -68.001 28.5s-28 41.833 -28 68.5
c0 26 9.5 48.167 28.5 66.5s41.5 27.5 67.5 27.5z" />
    <glyph glyph-name="Agrave" unicode="&#xc0;" horiz-adv-x="1237" 
d="M610 1188l-231 -588h459zM435 1337c22 -4.66699 45.835 -8.16992 71.502 -10.5029s54.167 -3.5 85.5 -3.5c29.333 0 51.666 0.666992 66.999 2s29.666 3.33301 42.999 6c7.33301 -30 15.166 -58.5 23.499 -85.5s17.833 -53.833 28.5 -80.5l385 -995
c17.333 -45.333 36.833 -79.166 58.5 -101.499s47.834 -35.5 78.501 -39.5v-35c-34 5.33301 -64.667 9.33301 -92 12s-53.333 4 -78 4c-28 0 -56.667 -1.33301 -86 -4s-59.333 -6.66699 -90 -12v34c32.667 2.66699 56.5 9.5 71.5 20.5s22.5 27.5 22.5 49.5
c0 8 -1.83301 18.833 -5.5 32.5s-8.5 28.834 -14.5 45.501l-136 334h-522l-117 -307c-10 -25.333 -17.167 -46.666 -21.5 -63.999s-6.5 -31.666 -6.5 -42.999c0 -20 8.16699 -35.5 24.5 -46.5s41.5 -18.167 75.5 -21.5v-34c-29.333 5.33301 -57.833 9.33301 -85.5 12
s-54.5 4 -80.5 4c-25.333 0 -51.833 -1.33301 -79.5 -4s-57.167 -6.66699 -88.5 -12v35c36 5.33301 67 23.166 93 53.499s53.667 83.5 83 159.5l346 876c11.333 28.667 19.333 52.167 24 70.5s7 34.5 7 48.5c0 20 -6.33301 34.667 -19 44s-35 15.333 -67 18zM794.002 1469
l-67 0.000976562l-330 205c-20.667 13.333 -36.167 26.666 -46.5 39.999s-15.5 27 -15.5 41c0 20 7 37 21 51s31 21 51 21c14 0 28 -4 42 -12s32.667 -23.667 56 -47z" />
    <glyph glyph-name="Aacute" unicode="&#xc1;" horiz-adv-x="1237" 
d="M610 1188l-231 -588h459zM435 1337c22 -4.66699 45.835 -8.16992 71.502 -10.5029s54.167 -3.5 85.5 -3.5c29.333 0 51.666 0.666992 66.999 2s29.666 3.33301 42.999 6c7.33301 -30 15.166 -58.5 23.499 -85.5s17.833 -53.833 28.5 -80.5l385 -995
c17.333 -45.333 36.833 -79.166 58.5 -101.499s47.834 -35.5 78.501 -39.5v-35c-34 5.33301 -64.667 9.33301 -92 12s-53.333 4 -78 4c-28 0 -56.667 -1.33301 -86 -4s-59.333 -6.66699 -90 -12v34c32.667 2.66699 56.5 9.5 71.5 20.5s22.5 27.5 22.5 49.5
c0 8 -1.83301 18.833 -5.5 32.5s-8.5 28.834 -14.5 45.501l-136 334h-522l-117 -307c-10 -25.333 -17.167 -46.666 -21.5 -63.999s-6.5 -31.666 -6.5 -42.999c0 -20 8.16699 -35.5 24.5 -46.5s41.5 -18.167 75.5 -21.5v-34c-29.333 5.33301 -57.833 9.33301 -85.5 12
s-54.5 4 -80.5 4c-25.333 0 -51.833 -1.33301 -79.5 -4s-57.167 -6.66699 -88.5 -12v35c36 5.33301 67 23.166 93 53.499s53.667 83.5 83 159.5l346 876c11.333 28.667 19.333 52.167 24 70.5s7 34.5 7 48.5c0 20 -6.33301 34.667 -19 44s-35 15.333 -67 18zM509.002 1469
l-67 -0.000976562l289 299c23.333 23.333 42 39 56 47s28 12 42 12c20 0 37 -7 51 -21s21 -31 21 -51c0 -14 -5.16699 -27.667 -15.5 -41s-25.833 -26.666 -46.5 -39.999z" />
    <glyph glyph-name="Acircumflex" unicode="&#xc2;" horiz-adv-x="1237" 
d="M610 1188l-231 -588h459zM435 1337c22 -4.66699 45.835 -8.16992 71.502 -10.5029s54.167 -3.5 85.5 -3.5c29.333 0 51.666 0.666992 66.999 2s29.666 3.33301 42.999 6c7.33301 -30 15.166 -58.5 23.499 -85.5s17.833 -53.833 28.5 -80.5l385 -995
c17.333 -45.333 36.833 -79.166 58.5 -101.499s47.834 -35.5 78.501 -39.5v-35c-34 5.33301 -64.667 9.33301 -92 12s-53.333 4 -78 4c-28 0 -56.667 -1.33301 -86 -4s-59.333 -6.66699 -90 -12v34c32.667 2.66699 56.5 9.5 71.5 20.5s22.5 27.5 22.5 49.5
c0 8 -1.83301 18.833 -5.5 32.5s-8.5 28.834 -14.5 45.501l-136 334h-522l-117 -307c-10 -25.333 -17.167 -46.666 -21.5 -63.999s-6.5 -31.666 -6.5 -42.999c0 -20 8.16699 -35.5 24.5 -46.5s41.5 -18.167 75.5 -21.5v-34c-29.333 5.33301 -57.833 9.33301 -85.5 12
s-54.5 4 -80.5 4c-25.333 0 -51.833 -1.33301 -79.5 -4s-57.167 -6.66699 -88.5 -12v35c36 5.33301 67 23.166 93 53.499s53.667 83.5 83 159.5l346 876c11.333 28.667 19.333 52.167 24 70.5s7 34.5 7 48.5c0 20 -6.33301 34.667 -19 44s-35 15.333 -67 18zM559.002 1817
h118l232 -348h-58l-233 209l-233 -209h-58z" />
    <glyph glyph-name="Atilde" unicode="&#xc3;" horiz-adv-x="1237" 
d="M610 1188l-231 -588h459zM435 1337c22 -4.66699 45.835 -8.16992 71.502 -10.5029s54.167 -3.5 85.5 -3.5c29.333 0 51.666 0.666992 66.999 2s29.666 3.33301 42.999 6c7.33301 -30 15.166 -58.5 23.499 -85.5s17.833 -53.833 28.5 -80.5l385 -995
c17.333 -45.333 36.833 -79.166 58.5 -101.499s47.834 -35.5 78.501 -39.5v-35c-34 5.33301 -64.667 9.33301 -92 12s-53.333 4 -78 4c-28 0 -56.667 -1.33301 -86 -4s-59.333 -6.66699 -90 -12v34c32.667 2.66699 56.5 9.5 71.5 20.5s22.5 27.5 22.5 49.5
c0 8 -1.83301 18.833 -5.5 32.5s-8.5 28.834 -14.5 45.501l-136 334h-522l-117 -307c-10 -25.333 -17.167 -46.666 -21.5 -63.999s-6.5 -31.666 -6.5 -42.999c0 -20 8.16699 -35.5 24.5 -46.5s41.5 -18.167 75.5 -21.5v-34c-29.333 5.33301 -57.833 9.33301 -85.5 12
s-54.5 4 -80.5 4c-25.333 0 -51.833 -1.33301 -79.5 -4s-57.167 -6.66699 -88.5 -12v35c36 5.33301 67 23.166 93 53.499s53.667 83.5 83 159.5l346 876c11.333 28.667 19.333 52.167 24 70.5s7 34.5 7 48.5c0 20 -6.33301 34.667 -19 44s-35 15.333 -67 18zM851.002 1766
h53.999c-13.333 -69.333 -36.166 -120.833 -68.499 -154.5s-74.5 -50.5 -126.5 -50.5c-10 0 -21 0.833008 -33 2.5s-25.333 4.16699 -40 7.5l-110 29c-8 2 -16.667 3.5 -26 4.5s-19.333 1.5 -30 1.5c-22 0 -39.833 -7 -53.5 -21s-25.5 -37 -35.5 -69h-51
c12.667 70 35.334 122.667 68.001 158s75.667 53 129 53c12.667 0 24 -0.666992 34 -2s19.667 -3.33301 29 -6l111 -29c10.667 -2.66699 20.667 -4.66699 30 -6s17.666 -2 24.999 -2c24.667 0 44 6 58 18s26 34 36 66z" />
    <glyph glyph-name="Adieresis" unicode="&#xc4;" horiz-adv-x="1237" 
d="M610 1188l-231 -588h459zM435 1337c22 -4.66699 45.835 -8.16992 71.502 -10.5029s54.167 -3.5 85.5 -3.5c29.333 0 51.666 0.666992 66.999 2s29.666 3.33301 42.999 6c7.33301 -30 15.166 -58.5 23.499 -85.5s17.833 -53.833 28.5 -80.5l385 -995
c17.333 -45.333 36.833 -79.166 58.5 -101.499s47.834 -35.5 78.501 -39.5v-35c-34 5.33301 -64.667 9.33301 -92 12s-53.333 4 -78 4c-28 0 -56.667 -1.33301 -86 -4s-59.333 -6.66699 -90 -12v34c32.667 2.66699 56.5 9.5 71.5 20.5s22.5 27.5 22.5 49.5
c0 8 -1.83301 18.833 -5.5 32.5s-8.5 28.834 -14.5 45.501l-136 334h-522l-117 -307c-10 -25.333 -17.167 -46.666 -21.5 -63.999s-6.5 -31.666 -6.5 -42.999c0 -20 8.16699 -35.5 24.5 -46.5s41.5 -18.167 75.5 -21.5v-34c-29.333 5.33301 -57.833 9.33301 -85.5 12
s-54.5 4 -80.5 4c-25.333 0 -51.833 -1.33301 -79.5 -4s-57.167 -6.66699 -88.5 -12v35c36 5.33301 67 23.166 93 53.499s53.667 83.5 83 159.5l346 876c11.333 28.667 19.333 52.167 24 70.5s7 34.5 7 48.5c0 20 -6.33301 34.667 -19 44s-35 15.333 -67 18zM794.002 1723
c26.667 0 49.667 -10 69 -30s29 -43.667 29 -71c0 -28 -9.33301 -51.667 -28 -71s-42 -29 -70 -29s-51.667 9.66699 -71 29s-29 43 -29 71c0 26.667 10 50.167 30 70.5s43.333 30.5 70 30.5zM442.002 1723c26.667 0 50 -10.167 70 -30.5s30 -43.833 30 -70.5
c0 -28 -9.66699 -51.667 -29 -71s-43 -29 -71 -29s-51.333 9.66699 -70 29s-28 43 -28 71c0 27.333 9.66699 51 29 71s42.333 30 69 30z" />
    <glyph glyph-name="Aring" unicode="&#xc5;" horiz-adv-x="1237" 
d="M610 1188l-231 -588h459zM435 1337c22 -4.66699 45.835 -8.16992 71.502 -10.5029s54.167 -3.5 85.5 -3.5c29.333 0 51.666 0.666992 66.999 2s29.666 3.33301 42.999 6c7.33301 -30 15.166 -58.5 23.499 -85.5s17.833 -53.833 28.5 -80.5l385 -995
c17.333 -45.333 36.833 -79.166 58.5 -101.499s47.834 -35.5 78.501 -39.5v-35c-34 5.33301 -64.667 9.33301 -92 12s-53.333 4 -78 4c-28 0 -56.667 -1.33301 -86 -4s-59.333 -6.66699 -90 -12v34c32.667 2.66699 56.5 9.5 71.5 20.5s22.5 27.5 22.5 49.5
c0 8 -1.83301 18.833 -5.5 32.5s-8.5 28.834 -14.5 45.501l-136 334h-522l-117 -307c-10 -25.333 -17.167 -46.666 -21.5 -63.999s-6.5 -31.666 -6.5 -42.999c0 -20 8.16699 -35.5 24.5 -46.5s41.5 -18.167 75.5 -21.5v-34c-29.333 5.33301 -57.833 9.33301 -85.5 12
s-54.5 4 -80.5 4c-25.333 0 -51.833 -1.33301 -79.5 -4s-57.167 -6.66699 -88.5 -12v35c36 5.33301 67 23.166 93 53.499s53.667 83.5 83 159.5l346 876c11.333 28.667 19.333 52.167 24 70.5s7 34.5 7 48.5c0 20 -6.33301 34.667 -19 44s-35 15.333 -67 18zM610.002 1794
c-40.667 0 -75.667 -14.667 -105 -44s-44 -64.333 -44 -105c0 -42 14.333 -77.5 43 -106.5s64 -43.5 106 -43.5c41.333 0 76.666 14.5 105.999 43.5s44 64.5 44 106.5c0 40.667 -14.667 75.667 -44 105s-64.666 44 -105.999 44zM610.002 1884
c66.667 0 123.332 -23.333 169.999 -70s70 -103 70 -169c0 -67.333 -23.167 -124.166 -69.5 -170.499s-103.166 -69.5 -170.499 -69.5c-66.667 0 -123.167 23.167 -169.5 69.5s-69.5 103.166 -69.5 170.499c0 66.667 23.167 123.167 69.5 169.5s102.833 69.5 169.5 69.5z
" />
    <glyph glyph-name="AE" unicode="&#xc6;" horiz-adv-x="1698" 
d="M750 1223l-318 -623h322v623h-4zM582 1331l991 -0.00292969c1.33301 -53.333 4.33301 -102.333 9 -147s11.334 -87 20.001 -127h-33c-15.333 72.667 -36.666 121.5 -63.999 146.5s-90 37.5 -188 37.5h-440v-498h290c62.667 0 102.834 8 120.501 24
s30.834 46.333 39.501 91h33c-5.33301 -34.667 -9 -64.167 -11 -88.5s-3 -46.833 -3 -67.5c0 -20 1 -42 3 -66s5.66699 -54.333 11 -91h-33c-8.66699 44.667 -21.834 74.834 -39.501 90.501s-57.834 23.5 -120.501 23.5h-290v-569h438c121.333 0 198.666 14.333 231.999 43
s59 89.334 77 182.001h33c-10.667 -46.667 -18.5 -96 -23.5 -148s-7.5 -107.667 -7.5 -167h-987v33c44.667 8.66699 75 21.834 91 39.501s24 57.834 24 120.501v317h-365l-160 -307c-11.333 -22.667 -19.5 -42 -24.5 -58s-7.5 -29.667 -7.5 -41
c0 -22.667 8.16699 -40 24.5 -52s42.833 -20 79.5 -24v-34c-29.333 5.33301 -57.833 9.33301 -85.5 12s-54.5 4 -80.5 4c-25.333 0 -51.833 -1.33301 -79.5 -4s-57.167 -6.66699 -88.5 -12v35c30 5.33301 55.667 17.666 77 36.999s43 50 65 92l520 981
c9.33301 17.333 16.333 34.5 21 51.5s7 32.5 7 46.5c0 18.667 -5.83301 32.5 -17.5 41.5s-30.834 14.167 -57.501 15.5v37z" />
    <glyph glyph-name="Ccedilla" unicode="&#xc7;" horiz-adv-x="1233" 
d="M1124 1270l0.000976562 -76.002c0 -54.667 0.833008 -97 2.5 -127s4.16699 -58.667 7.5 -86h-34c-12.667 95.333 -49.334 166.666 -110.001 213.999s-146.334 71 -257.001 71c-149.333 0 -273 -52.667 -371 -158s-147 -239.666 -147 -402.999
c0 -180 55.667 -330.833 167 -452.5s248.333 -182.5 411 -182.5c64.667 0 128.667 11 192 33s123.333 54.667 180 98l-8 -101c-56 -41.333 -115.667 -72.5 -179 -93.5s-130 -31.5 -200 -31.5c-202.667 0 -369 64.333 -499 193s-195 293.334 -195 494.001
c0 97.333 16.333 188.333 49 273s80.334 159.334 143.001 224.001c60.667 62.667 131.5 111.167 212.5 145.5s164.5 51.5 250.5 51.5c73.333 0 142 -7.16699 206 -21.5s123.667 -35.833 179 -64.5zM704.001 -0.00195312l64.002 0.00195312v-112c16 2 29.5 3.33301 40.5 4
s20.5 1.33398 28.5 2.00098c53.333 0 95.666 -15 126.999 -45s47 -69.667 47 -119c0 -55.333 -19.333 -98.5 -58 -129.5s-92.334 -46.5 -161.001 -46.5c-36 0 -75.167 5.16699 -117.5 15.5s-100.833 30.166 -175.5 59.499l35 78c39.333 -22.667 79 -40.334 119 -53.001
s74.667 -19 104 -19c42 0 72.667 7.5 92 22.5s29 38.5 29 70.5c0 27.333 -9.83301 49.166 -29.5 65.499s-46.5 24.5 -80.5 24.5c-6 0 -14.167 -0.5 -24.5 -1.5s-23.5 -2.5 -39.5 -4.5v188z" />
    <glyph glyph-name="Egrave" unicode="&#xc8;" horiz-adv-x="1147" 
d="M86 1331l938.001 -0.00195312c1.33301 -53.333 4.33301 -102.333 9 -147s11.334 -87 20.001 -127h-33c-14.667 72.667 -35.834 121.5 -63.501 146.5s-90.5 37.5 -188.5 37.5h-440v-498h290c62.667 0 102.834 8 120.501 24s30.834 46.333 39.501 91h33
c-5.33301 -34.667 -9 -64.167 -11 -88.5s-3 -46.833 -3 -67.5c0 -20 1 -42 3 -66s5.66699 -54.333 11 -91h-33c-8.66699 44.667 -21.834 74.834 -39.501 90.501s-57.834 23.5 -120.501 23.5h-290v-569h438c121.333 0 198.666 14.333 231.999 43s59 89.334 77 182.001h33
c-10.667 -46.667 -18.5 -96 -23.5 -148s-7.5 -107.667 -7.5 -167h-991v33c44 8.66699 73.833 21.5 89.5 38.5s23.5 57.5 23.5 121.5v946c0 63.333 -7.83301 103.5 -23.5 120.5s-45.5 29.833 -89.5 38.5v33zM786.001 1469l-67 0.000976562l-330 205
c-20.667 13.333 -36.167 26.666 -46.5 39.999s-15.5 27 -15.5 41c0 20 7 37 21 51s31 21 51 21c14 0 28 -4 42 -12s32.667 -23.667 56 -47z" />
    <glyph glyph-name="Eacute" unicode="&#xc9;" horiz-adv-x="1147" 
d="M86 1331l938.001 -0.00195312c1.33301 -53.333 4.33301 -102.333 9 -147s11.334 -87 20.001 -127h-33c-14.667 72.667 -35.834 121.5 -63.501 146.5s-90.5 37.5 -188.5 37.5h-440v-498h290c62.667 0 102.834 8 120.501 24s30.834 46.333 39.501 91h33
c-5.33301 -34.667 -9 -64.167 -11 -88.5s-3 -46.833 -3 -67.5c0 -20 1 -42 3 -66s5.66699 -54.333 11 -91h-33c-8.66699 44.667 -21.834 74.834 -39.501 90.501s-57.834 23.5 -120.501 23.5h-290v-569h438c121.333 0 198.666 14.333 231.999 43s59 89.334 77 182.001h33
c-10.667 -46.667 -18.5 -96 -23.5 -148s-7.5 -107.667 -7.5 -167h-991v33c44 8.66699 73.833 21.5 89.5 38.5s23.5 57.5 23.5 121.5v946c0 63.333 -7.83301 103.5 -23.5 120.5s-45.5 29.833 -89.5 38.5v33zM501.001 1469l-67 -0.000976562l289 299
c23.333 23.333 42 39 56 47s28 12 42 12c20 0 37 -7 51 -21s21 -31 21 -51c0 -14 -5.16699 -27.667 -15.5 -41s-25.833 -26.666 -46.5 -39.999z" />
    <glyph glyph-name="Ecircumflex" unicode="&#xca;" horiz-adv-x="1147" 
d="M86 1331l938.001 -0.00195312c1.33301 -53.333 4.33301 -102.333 9 -147s11.334 -87 20.001 -127h-33c-14.667 72.667 -35.834 121.5 -63.501 146.5s-90.5 37.5 -188.5 37.5h-440v-498h290c62.667 0 102.834 8 120.501 24s30.834 46.333 39.501 91h33
c-5.33301 -34.667 -9 -64.167 -11 -88.5s-3 -46.833 -3 -67.5c0 -20 1 -42 3 -66s5.66699 -54.333 11 -91h-33c-8.66699 44.667 -21.834 74.834 -39.501 90.501s-57.834 23.5 -120.501 23.5h-290v-569h438c121.333 0 198.666 14.333 231.999 43s59 89.334 77 182.001h33
c-10.667 -46.667 -18.5 -96 -23.5 -148s-7.5 -107.667 -7.5 -167h-991v33c44 8.66699 73.833 21.5 89.5 38.5s23.5 57.5 23.5 121.5v946c0 63.333 -7.83301 103.5 -23.5 120.5s-45.5 29.833 -89.5 38.5v33zM551.001 1817h118l232 -348h-58l-233 209l-233 -209h-58z" />
    <glyph glyph-name="Edieresis" unicode="&#xcb;" horiz-adv-x="1147" 
d="M86 1331l938.001 -0.00195312c1.33301 -53.333 4.33301 -102.333 9 -147s11.334 -87 20.001 -127h-33c-14.667 72.667 -35.834 121.5 -63.501 146.5s-90.5 37.5 -188.5 37.5h-440v-498h290c62.667 0 102.834 8 120.501 24s30.834 46.333 39.501 91h33
c-5.33301 -34.667 -9 -64.167 -11 -88.5s-3 -46.833 -3 -67.5c0 -20 1 -42 3 -66s5.66699 -54.333 11 -91h-33c-8.66699 44.667 -21.834 74.834 -39.501 90.501s-57.834 23.5 -120.501 23.5h-290v-569h438c121.333 0 198.666 14.333 231.999 43s59 89.334 77 182.001h33
c-10.667 -46.667 -18.5 -96 -23.5 -148s-7.5 -107.667 -7.5 -167h-991v33c44 8.66699 73.833 21.5 89.5 38.5s23.5 57.5 23.5 121.5v946c0 63.333 -7.83301 103.5 -23.5 120.5s-45.5 29.833 -89.5 38.5v33zM786.001 1723c26.667 0 49.667 -10 69 -30s29 -43.667 29 -71
c0 -28 -9.33301 -51.667 -28 -71s-42 -29 -70 -29s-51.667 9.66699 -71 29s-29 43 -29 71c0 26.667 10 50.167 30 70.5s43.333 30.5 70 30.5zM434.001 1723c26.667 0 50 -10.167 70 -30.5s30 -43.833 30 -70.5c0 -28 -9.66699 -51.667 -29 -71s-43 -29 -71 -29
s-51.333 9.66699 -70 29s-28 43 -28 71c0 27.333 9.66699 51 29 71s42.333 30 69 30z" />
    <glyph glyph-name="Igrave" unicode="&#xcc;" horiz-adv-x="526" 
d="M86 1335c28 -4.66699 56.499 -8.16699 85.499 -10.5s59.167 -3.5 90.5 -3.5c32 0 62.667 1.16699 92 3.5s58 5.83301 86 10.5v-32c-44 -9.33301 -73.667 -22.5 -89 -39.5s-23 -57.167 -23 -120.5v-957c0 -63.333 7.66699 -103.5 23 -120.5s45 -29.833 89 -38.5v-33
c-26.667 4.66699 -54.667 8.16699 -84 10.5s-60.666 3.5 -93.999 3.5c-32.667 0 -63.5 -1.16699 -92.5 -3.5s-56.833 -5.83301 -83.5 -10.5v33c44 8.66699 73.833 21.5 89.5 38.5s23.5 57.167 23.5 120.5v957c0 63.333 -7.83301 103.5 -23.5 120.5s-45.5 30.167 -89.5 39.5
v32zM439.999 1469l-67 0.000976562l-330 205c-20.667 13.333 -36.167 26.666 -46.5 39.999s-15.5 27 -15.5 41c0 20 7 37 21 51s31 21 51 21c14 0 28 -4 42 -12s32.667 -23.667 56 -47z" />
    <glyph glyph-name="Iacute" unicode="&#xcd;" horiz-adv-x="526" 
d="M86 1335c28 -4.66699 56.499 -8.16699 85.499 -10.5s59.167 -3.5 90.5 -3.5c32 0 62.667 1.16699 92 3.5s58 5.83301 86 10.5v-32c-44 -9.33301 -73.667 -22.5 -89 -39.5s-23 -57.167 -23 -120.5v-957c0 -63.333 7.66699 -103.5 23 -120.5s45 -29.833 89 -38.5v-33
c-26.667 4.66699 -54.667 8.16699 -84 10.5s-60.666 3.5 -93.999 3.5c-32.667 0 -63.5 -1.16699 -92.5 -3.5s-56.833 -5.83301 -83.5 -10.5v33c44 8.66699 73.833 21.5 89.5 38.5s23.5 57.167 23.5 120.5v957c0 63.333 -7.83301 103.5 -23.5 120.5s-45.5 30.167 -89.5 39.5
v32zM154.999 1469l-67 -0.000976562l289 299c23.333 23.333 42 39 56 47s28 12 42 12c20 0 37 -7 51 -21s21 -31 21 -51c0 -14 -5.16699 -27.667 -15.5 -41s-25.833 -26.666 -46.5 -39.999z" />
    <glyph glyph-name="Icircumflex" unicode="&#xce;" horiz-adv-x="526" 
d="M86 1335c28 -4.66699 56.499 -8.16699 85.499 -10.5s59.167 -3.5 90.5 -3.5c32 0 62.667 1.16699 92 3.5s58 5.83301 86 10.5v-32c-44 -9.33301 -73.667 -22.5 -89 -39.5s-23 -57.167 -23 -120.5v-957c0 -63.333 7.66699 -103.5 23 -120.5s45 -29.833 89 -38.5v-33
c-26.667 4.66699 -54.667 8.16699 -84 10.5s-60.666 3.5 -93.999 3.5c-32.667 0 -63.5 -1.16699 -92.5 -3.5s-56.833 -5.83301 -83.5 -10.5v33c44 8.66699 73.833 21.5 89.5 38.5s23.5 57.167 23.5 120.5v957c0 63.333 -7.83301 103.5 -23.5 120.5s-45.5 30.167 -89.5 39.5
v32zM204.999 1817h118l232 -348h-58l-233 209l-233 -209h-58z" />
    <glyph glyph-name="Idieresis" unicode="&#xcf;" horiz-adv-x="526" 
d="M86 1335c28 -4.66699 56.499 -8.16699 85.499 -10.5s59.167 -3.5 90.5 -3.5c32 0 62.667 1.16699 92 3.5s58 5.83301 86 10.5v-32c-44 -9.33301 -73.667 -22.5 -89 -39.5s-23 -57.167 -23 -120.5v-957c0 -63.333 7.66699 -103.5 23 -120.5s45 -29.833 89 -38.5v-33
c-26.667 4.66699 -54.667 8.16699 -84 10.5s-60.666 3.5 -93.999 3.5c-32.667 0 -63.5 -1.16699 -92.5 -3.5s-56.833 -5.83301 -83.5 -10.5v33c44 8.66699 73.833 21.5 89.5 38.5s23.5 57.167 23.5 120.5v957c0 63.333 -7.83301 103.5 -23.5 120.5s-45.5 30.167 -89.5 39.5
v32zM439.999 1723c26.667 0 49.667 -10 69 -30s29 -43.667 29 -71c0 -28 -9.33301 -51.667 -28 -71s-42 -29 -70 -29s-51.667 9.66699 -71 29s-29 43 -29 71c0 26.667 10 50.167 30 70.5s43.333 30.5 70 30.5zM87.999 1723c26.667 0 50 -10.167 70 -30.5
s30 -43.833 30 -70.5c0 -28 -9.66699 -51.667 -29 -71s-43 -29 -71 -29s-51.333 9.66699 -70 29s-28 43 -28 71c0 27.333 9.66699 51 29 71s42.333 30 69 30z" />
    <glyph glyph-name="Eth" unicode="&#xd0;" horiz-adv-x="1341" 
d="M328 90l67.501 -3c15 -0.666992 28.5 -1 40.5 -1c218.667 0 387 50.333 505 151s177 243.667 177 429c0 88 -15.833 170 -47.5 246s-76.5 140 -134.5 192c-52.667 48 -117.334 82.833 -194.001 104.5s-176 32.5 -298 32.5h-116v-483h407v-84h-407v-584zM86.001 0
l-0.000976562 33c44 8.66699 73.833 21.5 89.5 38.5s23.5 57.5 23.5 121.5v481h-199v84h199v381c0 63.333 -7.83301 103.5 -23.5 120.5s-45.5 29.833 -89.5 38.5v33h358c133.333 0 241 -9.33301 323 -28s154.667 -49.667 218 -93c84.667 -56 150.834 -132.333 198.501 -229
s71.5 -201.667 71.5 -315c0 -114 -22.333 -216.5 -67 -307.5s-109.667 -166.167 -195 -225.5c-66 -47.333 -139.5 -81.333 -220.5 -102s-187.5 -31 -319.5 -31h-367z" />
    <glyph glyph-name="Ntilde" unicode="&#xd1;" horiz-adv-x="1380" 
d="M86 -6v33.001c44 8.66699 73.833 21.5 89.5 38.5s23.5 57.167 23.5 120.5v957c0 63.333 -7.83301 103.666 -23.5 120.999s-45.5 31 -89.5 41v32c26 -4.66699 51.167 -8.16699 75.5 -10.5s48.166 -3.5 71.499 -3.5c20 0 39.333 0.833008 58 2.5s37 4.16699 55 7.5
l758 -1122v934c0 63.333 -7.83301 103.5 -23.5 120.5s-45.5 30.167 -89.5 39.5l1 32c28 -4.66699 55 -8.16699 81 -10.5s51.333 -3.5 76 -3.5c25.333 0 51.333 1.16699 78 3.5s53.667 5.83301 81 10.5l1 -32c-45.333 -9.33301 -75.833 -22.666 -91.5 -39.999
s-23.5 -57.333 -23.5 -120v-1145h-90l-815 1202v-1016c0 -62 7.83301 -101.833 23.5 -119.5s45.834 -30.834 90.501 -39.501v-33c-28 4.66699 -55.5 8.16699 -82.5 10.5s-52.5 3.5 -76.5 3.5s-49.167 -1.16699 -75.5 -3.5s-53.833 -5.83301 -82.5 -10.5zM923 1766h53.999
c-13.333 -69.333 -36.166 -120.833 -68.499 -154.5s-74.5 -50.5 -126.5 -50.5c-10 0 -21 0.833008 -33 2.5s-25.333 4.16699 -40 7.5l-110 29c-8 2 -16.667 3.5 -26 4.5s-19.333 1.5 -30 1.5c-22 0 -39.833 -7 -53.5 -21s-25.5 -37 -35.5 -69h-51
c12.667 70 35.334 122.667 68.001 158s75.667 53 129 53c12.667 0 24 -0.666992 34 -2s19.667 -3.33301 29 -6l111 -29c10.667 -2.66699 20.667 -4.66699 30 -6s17.666 -2 24.999 -2c24.667 0 44 6 58 18s26 34 36 66z" />
    <glyph glyph-name="Ograve" unicode="&#xd2;" horiz-adv-x="1460" 
d="M707 1268c-144.667 0 -262.833 -49.502 -354.5 -148.502s-137.5 -227.167 -137.5 -384.5c0 -185.333 52 -342.166 156 -470.499s231 -192.5 381 -192.5c144 0 261.833 49.667 353.5 149s137.5 228.333 137.5 387c0 182.667 -52.5 338.334 -157.5 467.001
s-231.167 193 -378.5 193zM86.001 697.998c0 191.333 60.5 349.167 181.5 473.5s274.833 186.5 461.5 186.5c184 0 337.5 -68.167 460.5 -204.5s184.5 -307.833 184.5 -514.5c0 -190.667 -60.833 -348.667 -182.5 -474s-275.167 -188 -460.5 -188
c-184 0 -337.5 68.5 -460.5 205.5s-184.5 308.833 -184.5 515.5zM907.001 1469l-67 0.000976562l-330 205c-20.667 13.333 -36.167 26.666 -46.5 39.999s-15.5 27 -15.5 41c0 20 7 37 21 51s31 21 51 21c14 0 28 -4 42 -12s32.667 -23.667 56 -47z" />
    <glyph glyph-name="Oacute" unicode="&#xd3;" horiz-adv-x="1460" 
d="M707 1268c-144.667 0 -262.833 -49.502 -354.5 -148.502s-137.5 -227.167 -137.5 -384.5c0 -185.333 52 -342.166 156 -470.499s231 -192.5 381 -192.5c144 0 261.833 49.667 353.5 149s137.5 228.333 137.5 387c0 182.667 -52.5 338.334 -157.5 467.001
s-231.167 193 -378.5 193zM86.001 697.998c0 191.333 60.5 349.167 181.5 473.5s274.833 186.5 461.5 186.5c184 0 337.5 -68.167 460.5 -204.5s184.5 -307.833 184.5 -514.5c0 -190.667 -60.833 -348.667 -182.5 -474s-275.167 -188 -460.5 -188
c-184 0 -337.5 68.5 -460.5 205.5s-184.5 308.833 -184.5 515.5zM622.001 1469l-67 -0.000976562l289 299c23.333 23.333 42 39 56 47s28 12 42 12c20 0 37 -7 51 -21s21 -31 21 -51c0 -14 -5.16699 -27.667 -15.5 -41s-25.833 -26.666 -46.5 -39.999z" />
    <glyph glyph-name="Ocircumflex" unicode="&#xd4;" horiz-adv-x="1460" 
d="M707 1268c-144.667 0 -262.833 -49.502 -354.5 -148.502s-137.5 -227.167 -137.5 -384.5c0 -185.333 52 -342.166 156 -470.499s231 -192.5 381 -192.5c144 0 261.833 49.667 353.5 149s137.5 228.333 137.5 387c0 182.667 -52.5 338.334 -157.5 467.001
s-231.167 193 -378.5 193zM86.001 697.998c0 191.333 60.5 349.167 181.5 473.5s274.833 186.5 461.5 186.5c184 0 337.5 -68.167 460.5 -204.5s184.5 -307.833 184.5 -514.5c0 -190.667 -60.833 -348.667 -182.5 -474s-275.167 -188 -460.5 -188
c-184 0 -337.5 68.5 -460.5 205.5s-184.5 308.833 -184.5 515.5zM672.001 1817h118l232 -348h-58l-233 209l-233 -209h-58z" />
    <glyph glyph-name="Otilde" unicode="&#xd5;" horiz-adv-x="1460" 
d="M707 1268c-144.667 0 -262.833 -49.502 -354.5 -148.502s-137.5 -227.167 -137.5 -384.5c0 -185.333 52 -342.166 156 -470.499s231 -192.5 381 -192.5c144 0 261.833 49.667 353.5 149s137.5 228.333 137.5 387c0 182.667 -52.5 338.334 -157.5 467.001
s-231.167 193 -378.5 193zM86.001 697.998c0 191.333 60.5 349.167 181.5 473.5s274.833 186.5 461.5 186.5c184 0 337.5 -68.167 460.5 -204.5s184.5 -307.833 184.5 -514.5c0 -190.667 -60.833 -348.667 -182.5 -474s-275.167 -188 -460.5 -188
c-184 0 -337.5 68.5 -460.5 205.5s-184.5 308.833 -184.5 515.5zM964.001 1766h53.999c-13.333 -69.333 -36.166 -120.833 -68.499 -154.5s-74.5 -50.5 -126.5 -50.5c-10 0 -21 0.833008 -33 2.5s-25.333 4.16699 -40 7.5l-110 29c-8 2 -16.667 3.5 -26 4.5
s-19.333 1.5 -30 1.5c-22 0 -39.833 -7 -53.5 -21s-25.5 -37 -35.5 -69h-51c12.667 70 35.334 122.667 68.001 158s75.667 53 129 53c12.667 0 24 -0.666992 34 -2s19.667 -3.33301 29 -6l111 -29c10.667 -2.66699 20.667 -4.66699 30 -6s17.666 -2 24.999 -2
c24.667 0 44 6 58 18s26 34 36 66z" />
    <glyph glyph-name="Odieresis" unicode="&#xd6;" horiz-adv-x="1460" 
d="M707 1268c-144.667 0 -262.833 -49.502 -354.5 -148.502s-137.5 -227.167 -137.5 -384.5c0 -185.333 52 -342.166 156 -470.499s231 -192.5 381 -192.5c144 0 261.833 49.667 353.5 149s137.5 228.333 137.5 387c0 182.667 -52.5 338.334 -157.5 467.001
s-231.167 193 -378.5 193zM86.001 697.998c0 191.333 60.5 349.167 181.5 473.5s274.833 186.5 461.5 186.5c184 0 337.5 -68.167 460.5 -204.5s184.5 -307.833 184.5 -514.5c0 -190.667 -60.833 -348.667 -182.5 -474s-275.167 -188 -460.5 -188
c-184 0 -337.5 68.5 -460.5 205.5s-184.5 308.833 -184.5 515.5zM907.001 1723c26.667 0 49.667 -10 69 -30s29 -43.667 29 -71c0 -28 -9.33301 -51.667 -28 -71s-42 -29 -70 -29s-51.667 9.66699 -71 29s-29 43 -29 71c0 26.667 10 50.167 30 70.5s43.333 30.5 70 30.5z
M555.001 1723c26.667 0 50 -10.167 70 -30.5s30 -43.833 30 -70.5c0 -28 -9.66699 -51.667 -29 -71s-43 -29 -71 -29s-51.333 9.66699 -70 29s-28 43 -28 71c0 27.333 9.66699 51 29 71s42.333 30 69 30z" />
    <glyph glyph-name="multiply" unicode="&#xd7;" horiz-adv-x="1706" 
d="M375 1161l481 -481l481 481l70 -67l-481 -484l481 -481l-70 -68l-481 482l-481 -482l-70 68l481 481l-481 484z" />
    <glyph glyph-name="Oslash" unicode="&#xd8;" horiz-adv-x="1460" 
d="M1028 1139l-546.998 -983.001c45.333 -29.333 89.666 -50.666 132.999 -63.999s88.666 -20 135.999 -20c145.333 0 263.833 49.667 355.5 149s137.5 228.333 137.5 387c0 102.667 -18.333 199.167 -55 289.5s-90 170.833 -160 241.5zM975.002 1182
c-45.333 30 -89.167 52.168 -131.5 66.501s-86.5 21.5 -132.5 21.5c-146 0 -265.167 -49.5 -357.5 -148.5s-138.5 -227.167 -138.5 -384.5c0 -105.333 18.5 -203.833 55.5 -295.5s90.167 -171.834 159.5 -240.501zM1100 1411l80 0.000976562l-90 -166
c92.667 -72.667 163.167 -160.334 211.5 -263.001s72.5 -217 72.5 -343c0 -190.667 -60.833 -348.667 -182.5 -474s-275.167 -188 -460.5 -188c-52.667 0 -104.167 6.5 -154.5 19.5s-99.833 32.5 -148.5 58.5l-70 -129h-79l90 166
c-93.333 72.667 -163.833 160.334 -211.5 263.001s-71.5 217 -71.5 343c0 192 60.667 350 182 474s275 186 461 186c54.667 0 106.5 -6.33301 155.5 -19s97.5 -32.334 145.5 -59.001z" />
    <glyph glyph-name="Ugrave" unicode="&#xd9;" horiz-adv-x="1290" 
d="M60 1335c28 -4.66699 56.6709 -8.16699 86.0039 -10.5s60 -3.5 92 -3.5c31.333 0 61.666 1.16699 90.999 3.5s58 5.83301 86 10.5l1 -32c-44.667 -9.33301 -75 -22.666 -91 -39.999s-24 -57.333 -24 -120v-621c0 -164 27 -281 81 -351s141.667 -105 263 -105
s208.666 35 261.999 105s80 187 80 351v623c0 63.333 -7.83301 103.5 -23.5 120.5s-45.5 29.5 -89.5 37.5v32c36 -4.66699 68.5 -8.16699 97.5 -10.5s56.167 -3.5 81.5 -3.5c24.667 0 51 1.16699 79 3.5s60.333 5.83301 97 10.5v-32c-44 -8 -73.833 -20.5 -89.5 -37.5
s-23.5 -57.167 -23.5 -120.5v-629c0 -187.333 -37.833 -324.333 -113.5 -411s-194.834 -130 -357.501 -130s-281.834 43.333 -357.501 130s-113.5 223.667 -113.5 411v627c0 62.667 -7.83301 102.667 -23.5 120s-46.167 30.666 -91.5 39.999zM821.004 1469l-67 0.000976562
l-330 205c-20.667 13.333 -36.167 26.666 -46.5 39.999s-15.5 27 -15.5 41c0 20 7 37 21 51s31 21 51 21c14 0 28 -4 42 -12s32.667 -23.667 56 -47z" />
    <glyph glyph-name="Uacute" unicode="&#xda;" horiz-adv-x="1290" 
d="M60 1335c28 -4.66699 56.6709 -8.16699 86.0039 -10.5s60 -3.5 92 -3.5c31.333 0 61.666 1.16699 90.999 3.5s58 5.83301 86 10.5l1 -32c-44.667 -9.33301 -75 -22.666 -91 -39.999s-24 -57.333 -24 -120v-621c0 -164 27 -281 81 -351s141.667 -105 263 -105
s208.666 35 261.999 105s80 187 80 351v623c0 63.333 -7.83301 103.5 -23.5 120.5s-45.5 29.5 -89.5 37.5v32c36 -4.66699 68.5 -8.16699 97.5 -10.5s56.167 -3.5 81.5 -3.5c24.667 0 51 1.16699 79 3.5s60.333 5.83301 97 10.5v-32c-44 -8 -73.833 -20.5 -89.5 -37.5
s-23.5 -57.167 -23.5 -120.5v-629c0 -187.333 -37.833 -324.333 -113.5 -411s-194.834 -130 -357.501 -130s-281.834 43.333 -357.501 130s-113.5 223.667 -113.5 411v627c0 62.667 -7.83301 102.667 -23.5 120s-46.167 30.666 -91.5 39.999zM536.004 1469l-67 -0.000976562
l289 299c23.333 23.333 42 39 56 47s28 12 42 12c20 0 37 -7 51 -21s21 -31 21 -51c0 -14 -5.16699 -27.667 -15.5 -41s-25.833 -26.666 -46.5 -39.999z" />
    <glyph glyph-name="Ucircumflex" unicode="&#xdb;" horiz-adv-x="1290" 
d="M60 1335c28 -4.66699 56.6709 -8.16699 86.0039 -10.5s60 -3.5 92 -3.5c31.333 0 61.666 1.16699 90.999 3.5s58 5.83301 86 10.5l1 -32c-44.667 -9.33301 -75 -22.666 -91 -39.999s-24 -57.333 -24 -120v-621c0 -164 27 -281 81 -351s141.667 -105 263 -105
s208.666 35 261.999 105s80 187 80 351v623c0 63.333 -7.83301 103.5 -23.5 120.5s-45.5 29.5 -89.5 37.5v32c36 -4.66699 68.5 -8.16699 97.5 -10.5s56.167 -3.5 81.5 -3.5c24.667 0 51 1.16699 79 3.5s60.333 5.83301 97 10.5v-32c-44 -8 -73.833 -20.5 -89.5 -37.5
s-23.5 -57.167 -23.5 -120.5v-629c0 -187.333 -37.833 -324.333 -113.5 -411s-194.834 -130 -357.501 -130s-281.834 43.333 -357.501 130s-113.5 223.667 -113.5 411v627c0 62.667 -7.83301 102.667 -23.5 120s-46.167 30.666 -91.5 39.999zM586.004 1817h118l232 -348h-58
l-233 209l-233 -209h-58z" />
    <glyph glyph-name="Udieresis" unicode="&#xdc;" horiz-adv-x="1290" 
d="M60 1335c28 -4.66699 56.6709 -8.16699 86.0039 -10.5s60 -3.5 92 -3.5c31.333 0 61.666 1.16699 90.999 3.5s58 5.83301 86 10.5l1 -32c-44.667 -9.33301 -75 -22.666 -91 -39.999s-24 -57.333 -24 -120v-621c0 -164 27 -281 81 -351s141.667 -105 263 -105
s208.666 35 261.999 105s80 187 80 351v623c0 63.333 -7.83301 103.5 -23.5 120.5s-45.5 29.5 -89.5 37.5v32c36 -4.66699 68.5 -8.16699 97.5 -10.5s56.167 -3.5 81.5 -3.5c24.667 0 51 1.16699 79 3.5s60.333 5.83301 97 10.5v-32c-44 -8 -73.833 -20.5 -89.5 -37.5
s-23.5 -57.167 -23.5 -120.5v-629c0 -187.333 -37.833 -324.333 -113.5 -411s-194.834 -130 -357.501 -130s-281.834 43.333 -357.501 130s-113.5 223.667 -113.5 411v627c0 62.667 -7.83301 102.667 -23.5 120s-46.167 30.666 -91.5 39.999zM821.004 1723
c26.667 0 49.667 -10 69 -30s29 -43.667 29 -71c0 -28 -9.33301 -51.667 -28 -71s-42 -29 -70 -29s-51.667 9.66699 -71 29s-29 43 -29 71c0 26.667 10 50.167 30 70.5s43.333 30.5 70 30.5zM469.004 1723c26.667 0 50 -10.167 70 -30.5s30 -43.833 30 -70.5
c0 -28 -9.66699 -51.667 -29 -71s-43 -29 -71 -29s-51.333 9.66699 -70 29s-28 43 -28 71c0 27.333 9.66699 51 29 71s42.333 30 69 30z" />
    <glyph glyph-name="Yacute" unicode="&#xdd;" horiz-adv-x="977" 
d="M306 -6l-0.999023 33c44.667 8.66699 75 21.834 91 39.501s24 57.5 24 119.5v371l-344 621c-24.667 44.667 -48.667 76.167 -72 94.5s-52 29.166 -86 32.499v32c24.667 -4.66699 51.5 -8.16699 80.5 -10.5s64.167 -3.5 105.5 -3.5c35.333 0 68.666 1.16699 99.999 3.5
s61 5.83301 89 10.5v-32c-34 -4.66699 -58.833 -12 -74.5 -22s-23.5 -24 -23.5 -42c0 -8.66699 2.83301 -21.167 8.5 -37.5s13.5 -33.166 23.5 -50.499l283 -502l254 475c14 25.333 23.667 46.333 29 63s8 32.667 8 48c0 20.667 -7.83301 36 -23.5 46
s-42.167 17.333 -79.5 22l1 32c22.667 -4.66699 47.667 -8.16699 75 -10.5s60.666 -3.5 99.999 -3.5c33.333 0 64.5 1.16699 93.5 3.5s56.5 5.83301 82.5 10.5l1 -32c-30.667 -4 -58 -17 -82 -39s-53.333 -63.667 -88 -125l-334 -594v-361
c0 -62 7.83301 -101.833 23.5 -119.5s46.167 -30.834 91.5 -39.501l-1 -33c-26.667 4.66699 -54.667 8.16699 -84 10.5s-60.666 3.5 -93.999 3.5s-64.5 -1.16699 -93.5 -3.5s-56.833 -5.83301 -83.5 -10.5zM380.001 1469l-67 -0.000976562l289 299
c23.333 23.333 42 39 56 47s28 12 42 12c20 0 37 -7 51 -21s21 -31 21 -51c0 -14 -5.16699 -27.667 -15.5 -41s-25.833 -26.666 -46.5 -39.999z" />
    <glyph glyph-name="Thorn" unicode="&#xde;" horiz-adv-x="1071" 
d="M328 186c0 -63.333 7.66797 -103.498 23.001 -120.498s45 -29.833 89 -38.5v-33c-26.667 4.66699 -54.667 8.16699 -84 10.5s-60.666 3.5 -93.999 3.5c-32.667 0 -63.5 -1.16699 -92.5 -3.5s-56.833 -5.83301 -83.5 -10.5v33c44 8.66699 73.833 21.5 89.5 38.5
s23.5 57.167 23.5 120.5v953c0 63.333 -7.83301 103.5 -23.5 120.5s-45.5 29.833 -89.5 38.5v33c28 -4.66699 56.333 -8.16699 85 -10.5s59 -3.5 91 -3.5s62.667 1.16699 92 3.5s58 5.83301 86 10.5v-33c-44 -8.66699 -73.667 -21.5 -89 -38.5s-23 -57.167 -23 -120.5v-54
h217c163.333 0 289.833 -35.833 379.5 -107.5s134.5 -172.834 134.5 -303.501c0 -116 -39.667 -210.167 -119 -282.5s-182.333 -108.5 -309 -108.5c-64.667 0 -124.167 10 -178.5 30s-81.5 39.333 -81.5 58c0 3.33301 1.66699 6.5 5 9.5s7 4.5 11 4.5s13.333 -2 28 -6
c54.667 -14 106 -21 154 -21c103.333 0 187.666 29.167 252.999 87.5s98 133.166 98 224.499c0 101.333 -38.333 180.833 -115 238.5s-183.334 86.5 -320.001 86.5h-157v-809z" />
    <glyph glyph-name="germandbls" unicode="&#xdf;" horiz-adv-x="1118" 
d="M621 850c129.333 -22 229.17 -68.3311 299.503 -138.998s105.5 -159.667 105.5 -267c0 -122 -46.333 -228.833 -139 -320.5s-201.334 -137.5 -326.001 -137.5c-35.333 0 -68.333 4.5 -99 13.5s-61 23.5 -91 43.5l-27 117c32 -29.333 65.667 -50.666 101 -63.999
s74.666 -20 117.999 -20c100.667 0 182.5 32.667 245.5 98s94.5 149.333 94.5 252c0 107.333 -32 192.666 -96 255.999s-154.667 100.333 -272 111c-17.333 1.33301 -39 2.33301 -65 3c-55.333 2 -83 13 -83 33c0 18 22 30.333 66 37c13.333 2 23.333 3.33301 30 4
c90 15.333 159.333 47.166 208 95.499s73 108.833 73 181.5c0 68 -23.167 124.833 -69.5 170.5s-104.5 68.5 -174.5 68.5c-88 0 -152 -31.5 -192 -94.5s-60 -165.833 -60 -308.5v-1137c0 -30.667 1.5 -63.834 4.5 -99.501s6.83301 -71.167 11.5 -106.5
c-18.667 4 -36.834 7.33301 -54.501 10s-32.834 4 -45.501 4c-21.333 0 -63.333 -4.66699 -126 -14h-3v32c39.333 6.66699 66.333 19 81 37s22 53 22 105v1155c0 88 4.33301 154 13 198s23.334 83.667 44.001 119c34.667 58 80.667 103.167 138 135.5s120 48.5 188 48.5
c99.333 0 181.833 -29.833 247.5 -89.5s98.5 -133.5 98.5 -221.5c0 -72 -23.167 -135 -69.5 -189s-111.833 -94 -196.5 -120z" />
    <glyph glyph-name="agrave" unicode="&#xe0;" horiz-adv-x="995" 
d="M915 29l-0.00195312 -35c-17.333 5.33301 -34.666 9.33301 -51.999 12s-34.666 4 -51.999 4c-12 0 -26.167 -0.833008 -42.5 -2.5s-36.166 -4.16699 -59.499 -7.5l10 195c-40.667 -67.333 -91 -119 -151 -155s-125 -54 -195 -54c-86.667 0 -158.834 26.667 -216.501 80
s-86.5 120 -86.5 200c0 37.333 7 72.666 21 105.999s34.333 62.333 61 87c44.667 42 134.334 70 269.001 84c16 2 28 3.33301 36 4l18 2c156 16.667 234 55.667 234 117c0 80.667 -20.833 141.667 -62.5 183s-102.834 62 -183.501 62
c-68.667 0 -127.834 -17.833 -177.501 -53.5s-80.5 -82.5 -92.5 -140.5h-37c6 30 10.5 58.167 13.5 84.5s4.5 51.5 4.5 75.5v32c50.667 26.667 99.834 46.334 147.501 59.001s95.5 19 143.5 19c116 0 203.333 -28.333 262 -85s88 -141 88 -253v-538
c0 -26.667 8.5 -47 25.5 -61s41.833 -21 74.5 -21zM710.998 514c-46 -9.33301 -108.667 -20.333 -188 -33c-223.333 -35.333 -335 -104.333 -335 -207c0 -56 20.833 -103.333 62.5 -142s92.5 -58 152.5 -58c90.667 0 165 34.5 223 103.5s87 159.5 87 271.5l-1 21.5
c-0.666992 14.333 -1 28.833 -1 43.5zM648.998 1098l-67 0.000976562l-330 205c-20.667 13.333 -36.167 26.666 -46.5 39.999s-15.5 27 -15.5 41c0 20 7 37 21 51s31 21 51 21c14 0 28 -4 42 -12s32.667 -23.667 56 -47z" />
    <glyph glyph-name="aacute" unicode="&#xe1;" horiz-adv-x="995" 
d="M915 29l-0.00195312 -35c-17.333 5.33301 -34.666 9.33301 -51.999 12s-34.666 4 -51.999 4c-12 0 -26.167 -0.833008 -42.5 -2.5s-36.166 -4.16699 -59.499 -7.5l10 195c-40.667 -67.333 -91 -119 -151 -155s-125 -54 -195 -54c-86.667 0 -158.834 26.667 -216.501 80
s-86.5 120 -86.5 200c0 37.333 7 72.666 21 105.999s34.333 62.333 61 87c44.667 42 134.334 70 269.001 84c16 2 28 3.33301 36 4l18 2c156 16.667 234 55.667 234 117c0 80.667 -20.833 141.667 -62.5 183s-102.834 62 -183.501 62
c-68.667 0 -127.834 -17.833 -177.501 -53.5s-80.5 -82.5 -92.5 -140.5h-37c6 30 10.5 58.167 13.5 84.5s4.5 51.5 4.5 75.5v32c50.667 26.667 99.834 46.334 147.501 59.001s95.5 19 143.5 19c116 0 203.333 -28.333 262 -85s88 -141 88 -253v-538
c0 -26.667 8.5 -47 25.5 -61s41.833 -21 74.5 -21zM710.998 514c-46 -9.33301 -108.667 -20.333 -188 -33c-223.333 -35.333 -335 -104.333 -335 -207c0 -56 20.833 -103.333 62.5 -142s92.5 -58 152.5 -58c90.667 0 165 34.5 223 103.5s87 159.5 87 271.5l-1 21.5
c-0.666992 14.333 -1 28.833 -1 43.5zM363.998 1098l-67 -0.000976562l289 299c23.333 23.333 42 39 56 47s28 12 42 12c20 0 37 -7 51 -21s21 -31 21 -51c0 -14 -5.16699 -27.667 -15.5 -41s-25.833 -26.666 -46.5 -39.999z" />
    <glyph glyph-name="acircumflex" unicode="&#xe2;" horiz-adv-x="995" 
d="M915 29l-0.00195312 -35c-17.333 5.33301 -34.666 9.33301 -51.999 12s-34.666 4 -51.999 4c-12 0 -26.167 -0.833008 -42.5 -2.5s-36.166 -4.16699 -59.499 -7.5l10 195c-40.667 -67.333 -91 -119 -151 -155s-125 -54 -195 -54c-86.667 0 -158.834 26.667 -216.501 80
s-86.5 120 -86.5 200c0 37.333 7 72.666 21 105.999s34.333 62.333 61 87c44.667 42 134.334 70 269.001 84c16 2 28 3.33301 36 4l18 2c156 16.667 234 55.667 234 117c0 80.667 -20.833 141.667 -62.5 183s-102.834 62 -183.501 62
c-68.667 0 -127.834 -17.833 -177.501 -53.5s-80.5 -82.5 -92.5 -140.5h-37c6 30 10.5 58.167 13.5 84.5s4.5 51.5 4.5 75.5v32c50.667 26.667 99.834 46.334 147.501 59.001s95.5 19 143.5 19c116 0 203.333 -28.333 262 -85s88 -141 88 -253v-538
c0 -26.667 8.5 -47 25.5 -61s41.833 -21 74.5 -21zM710.998 514c-46 -9.33301 -108.667 -20.333 -188 -33c-223.333 -35.333 -335 -104.333 -335 -207c0 -56 20.833 -103.333 62.5 -142s92.5 -58 152.5 -58c90.667 0 165 34.5 223 103.5s87 159.5 87 271.5l-1 21.5
c-0.666992 14.333 -1 28.833 -1 43.5zM413.998 1446h118l232 -348h-58l-233 209l-233 -209h-58z" />
    <glyph glyph-name="atilde" unicode="&#xe3;" horiz-adv-x="995" 
d="M915 29l-0.00195312 -35c-17.333 5.33301 -34.666 9.33301 -51.999 12s-34.666 4 -51.999 4c-12 0 -26.167 -0.833008 -42.5 -2.5s-36.166 -4.16699 -59.499 -7.5l10 195c-40.667 -67.333 -91 -119 -151 -155s-125 -54 -195 -54c-86.667 0 -158.834 26.667 -216.501 80
s-86.5 120 -86.5 200c0 37.333 7 72.666 21 105.999s34.333 62.333 61 87c44.667 42 134.334 70 269.001 84c16 2 28 3.33301 36 4l18 2c156 16.667 234 55.667 234 117c0 80.667 -20.833 141.667 -62.5 183s-102.834 62 -183.501 62
c-68.667 0 -127.834 -17.833 -177.501 -53.5s-80.5 -82.5 -92.5 -140.5h-37c6 30 10.5 58.167 13.5 84.5s4.5 51.5 4.5 75.5v32c50.667 26.667 99.834 46.334 147.501 59.001s95.5 19 143.5 19c116 0 203.333 -28.333 262 -85s88 -141 88 -253v-538
c0 -26.667 8.5 -47 25.5 -61s41.833 -21 74.5 -21zM710.998 514c-46 -9.33301 -108.667 -20.333 -188 -33c-223.333 -35.333 -335 -104.333 -335 -207c0 -56 20.833 -103.333 62.5 -142s92.5 -58 152.5 -58c90.667 0 165 34.5 223 103.5s87 159.5 87 271.5l-1 21.5
c-0.666992 14.333 -1 28.833 -1 43.5zM705.998 1395h53.999c-13.333 -69.333 -36.166 -120.833 -68.499 -154.5s-74.5 -50.5 -126.5 -50.5c-10 0 -21 0.833008 -33 2.5s-25.333 4.16699 -40 7.5l-110 29c-8 2 -16.667 3.5 -26 4.5s-19.333 1.5 -30 1.5
c-22 0 -39.833 -7 -53.5 -21s-25.5 -37 -35.5 -69h-51c12.667 70 35.334 122.667 68.001 158s75.667 53 129 53c12.667 0 24 -0.666992 34 -2s19.667 -3.33301 29 -6l111 -29c10.667 -2.66699 20.667 -4.66699 30 -6s17.666 -2 24.999 -2c24.667 0 44 6 58 18s26 34 36 66z
" />
    <glyph glyph-name="adieresis" unicode="&#xe4;" horiz-adv-x="995" 
d="M915 29l-0.00195312 -35c-17.333 5.33301 -34.666 9.33301 -51.999 12s-34.666 4 -51.999 4c-12 0 -26.167 -0.833008 -42.5 -2.5s-36.166 -4.16699 -59.499 -7.5l10 195c-40.667 -67.333 -91 -119 -151 -155s-125 -54 -195 -54c-86.667 0 -158.834 26.667 -216.501 80
s-86.5 120 -86.5 200c0 37.333 7 72.666 21 105.999s34.333 62.333 61 87c44.667 42 134.334 70 269.001 84c16 2 28 3.33301 36 4l18 2c156 16.667 234 55.667 234 117c0 80.667 -20.833 141.667 -62.5 183s-102.834 62 -183.501 62
c-68.667 0 -127.834 -17.833 -177.501 -53.5s-80.5 -82.5 -92.5 -140.5h-37c6 30 10.5 58.167 13.5 84.5s4.5 51.5 4.5 75.5v32c50.667 26.667 99.834 46.334 147.501 59.001s95.5 19 143.5 19c116 0 203.333 -28.333 262 -85s88 -141 88 -253v-538
c0 -26.667 8.5 -47 25.5 -61s41.833 -21 74.5 -21zM710.998 514c-46 -9.33301 -108.667 -20.333 -188 -33c-223.333 -35.333 -335 -104.333 -335 -207c0 -56 20.833 -103.333 62.5 -142s92.5 -58 152.5 -58c90.667 0 165 34.5 223 103.5s87 159.5 87 271.5l-1 21.5
c-0.666992 14.333 -1 28.833 -1 43.5zM648.998 1352c26.667 0 49.667 -10 69 -30s29 -43.667 29 -71c0 -28 -9.33301 -51.667 -28 -71s-42 -29 -70 -29s-51.667 9.66699 -71 29s-29 43 -29 71c0 26.667 10 50.167 30 70.5s43.333 30.5 70 30.5zM296.998 1352
c26.667 0 50 -10.167 70 -30.5s30 -43.833 30 -70.5c0 -28 -9.66699 -51.667 -29 -71s-43 -29 -71 -29s-51.333 9.66699 -70 29s-28 43 -28 71c0 27.333 9.66699 51 29 71s42.333 30 69 30z" />
    <glyph glyph-name="aring" unicode="&#xe5;" horiz-adv-x="995" 
d="M915 29l-0.00195312 -35c-17.333 5.33301 -34.666 9.33301 -51.999 12s-34.666 4 -51.999 4c-12 0 -26.167 -0.833008 -42.5 -2.5s-36.166 -4.16699 -59.499 -7.5l10 195c-42 -68 -92.833 -119.833 -152.5 -155.5s-124.167 -53.5 -193.5 -53.5
c-86.667 0 -158.834 26.667 -216.501 80s-86.5 120 -86.5 200c0 37.333 7 72.666 21 105.999s34.333 62.333 61 87c44.667 42 134.334 70 269.001 84c16 2 28 3.33301 36 4l18 2c156 16.667 234 55.667 234 117c0 80.667 -20.833 141.667 -62.5 183s-102.834 62 -183.501 62
c-68.667 0 -127.834 -17.833 -177.501 -53.5s-80.5 -82.5 -92.5 -140.5h-37c6 30 10.5 58.167 13.5 84.5s4.5 51.5 4.5 75.5v32c50.667 26.667 99.834 46.334 147.501 59.001s95.5 19 143.5 19c116 0 203.333 -28.333 262 -85s88 -141 88 -253v-538
c0 -26.667 8.5 -47 25.5 -61s41.833 -21 74.5 -21zM710.998 514c-46 -9.33301 -108.667 -20.333 -188 -33c-223.333 -35.333 -335 -104.333 -335 -207c0 -56 20.833 -103.333 62.5 -142s92.5 -58 152.5 -58c90.667 0 165 34.5 223 103.5s87 159.5 87 271.5l-1 21.5
c-0.666992 14.333 -1 28.833 -1 43.5zM484.998 1444c-40.667 0 -75.667 -15 -105 -45s-44 -65.667 -44 -107c0 -42 14.333 -77.333 43 -106s64 -43 106 -43s77.833 14.5 107.5 43.5s44.5 64.167 44.5 105.5s-15 77 -45 107s-65.667 45 -107 45zM484.998 1534
c66.667 0 123.667 -23.667 171 -71s71 -104.333 71 -171s-23.333 -123.167 -70 -169.5s-104 -69.5 -172 -69.5c-66.667 0 -123.167 23 -169.5 69s-69.5 102.667 -69.5 170c0 68 23.167 125.333 69.5 172s102.833 70 169.5 70z" />
    <glyph glyph-name="ae" unicode="&#xe6;" horiz-adv-x="1602" 
d="M803 594l608 0.000976562v4c0 87.333 -28 161 -84 221s-123 90 -201 90c-84 0 -155.833 -28.833 -215.5 -86.5s-95.5 -133.834 -107.5 -228.501zM711 514.001c-46 -9.33301 -108.667 -20.333 -188 -33c-223.333 -35.333 -335 -104.333 -335 -207
c0 -56 20.833 -103.333 62.5 -142s92.5 -58 152.5 -58c90.667 0 165 34.5 223 103.5s87 159.5 87 271.5l-1 21.5c-0.666992 14.333 -1 28.833 -1 43.5zM752 238.001c-56 -87.333 -114.505 -151.167 -175.505 -191.5s-128.833 -60.5 -203.5 -60.5
c-86.667 0 -158.834 26.667 -216.501 80s-86.5 120 -86.5 200c0 37.333 7 72.666 21 105.999s34.333 62.333 61 87c44.667 42 134.334 70 269.001 84c16 2 28 3.33301 36 4l18 2c156 16.667 234 55.667 234 117c0 80 -20.667 140.5 -62 181.5s-102.666 61.5 -183.999 61.5
c-69.333 0 -128.666 -17.5 -177.999 -52.5s-80 -81.5 -92 -139.5h-37c6 30 10.5 58.167 13.5 84.5s4.5 51.5 4.5 75.5v36c50.667 24.667 99.334 42.834 146.001 54.501s93 17.5 139 17.5c78.667 0 146.334 -15.333 203.001 -46s96.667 -74 120 -130
c40.667 56.667 90.334 100.167 149.001 130.5s122.334 45.5 191.001 45.5c123.333 0 222.166 -39 296.499 -117s111.5 -182.333 111.5 -313v-33h-729v-49c0 -110 38.333 -205 115 -285s170 -120 280 -120c51.333 0 101.5 12.167 150.5 36.5s96.5 60.5 142.5 108.5l-12 -119
c-46 -38.667 -95.5 -68.167 -148.5 -88.5s-107.5 -30.5 -163.5 -30.5c-90 0 -171.333 23 -244 69s-129 110.667 -169 194z" />
    <glyph glyph-name="ccedilla" unicode="&#xe7;" horiz-adv-x="958" 
d="M827 928l14.999 -221h-37c-14.667 65.333 -41.834 114.666 -81.501 147.999s-91.834 50 -156.501 50c-99.333 0 -184.833 -39.333 -256.5 -118s-107.5 -175 -107.5 -289c0 -122 38.5 -223.167 115.5 -303.5s174.167 -120.5 291.5 -120.5c52.667 0 102.167 8 148.5 24
s85.833 38.667 118.5 68l-25 -115c-39.333 -24.667 -82.333 -43.5 -129 -56.5s-96 -19.5 -148 -19.5c-139.333 0 -256.666 47.833 -351.999 143.5s-143 214.5 -143 356.5c0 146 49.833 267.5 149.5 364.5s223.834 145.5 372.501 145.5c36.667 0 73.334 -4.66699 110.001 -14
s75 -23.666 115 -42.999zM498.999 0l64.002 0.00195312v-112c16 2 29.5 3.33301 40.5 4s20.5 1.33398 28.5 2.00098c53.333 0 95.666 -15 126.999 -45s47 -69.667 47 -119c0 -55.333 -19.333 -98.5 -58 -129.5s-92.334 -46.5 -161.001 -46.5
c-36 0 -75.167 5.16699 -117.5 15.5s-100.833 30.166 -175.5 59.499l35 78c39.333 -22.667 79 -40.334 119 -53.001s74.667 -19 104 -19c42 0 72.667 7.5 92 22.5s29 38.5 29 70.5c0 27.333 -9.83301 49.166 -29.5 65.499s-46.5 24.5 -80.5 24.5
c-6 0 -14.167 -0.5 -24.5 -1.5s-23.5 -2.5 -39.5 -4.5v188z" />
    <glyph glyph-name="egrave" unicode="&#xe8;" horiz-adv-x="1006" 
d="M932 522h-729v-49c0 -110 38.5 -205 115.5 -285s170.833 -120 281.5 -120c50.667 0 100.167 12 148.5 36s95.833 60.333 142.5 109l-12 -119c-46 -38.667 -95.5 -68.167 -148.5 -88.5s-107.5 -30.5 -163.5 -30.5c-138 0 -253.667 49 -347 147s-140 219 -140 363
c0 140.667 43.167 259.167 129.5 355.5s191.833 144.5 316.5 144.5c123.333 0 221.833 -39 295.5 -117s110.5 -182.333 110.5 -313v-33zM813 594v4.00098c0 87.333 -28 161 -84 221s-123 90 -201 90c-84 0 -155.5 -28.833 -214.5 -86.5s-94.5 -133.834 -106.5 -228.501h606z
M715 1098l-67 0.000976562l-330 205c-20.667 13.333 -36.167 26.666 -46.5 39.999s-15.5 27 -15.5 41c0 20 7 37 21 51s31 21 51 21c14 0 28 -4 42 -12s32.667 -23.667 56 -47z" />
    <glyph glyph-name="eacute" unicode="&#xe9;" horiz-adv-x="1006" 
d="M932 522h-729v-49c0 -110 38.5 -205 115.5 -285s170.833 -120 281.5 -120c50.667 0 100.167 12 148.5 36s95.833 60.333 142.5 109l-12 -119c-46 -38.667 -95.5 -68.167 -148.5 -88.5s-107.5 -30.5 -163.5 -30.5c-138 0 -253.667 49 -347 147s-140 219 -140 363
c0 140.667 43.167 259.167 129.5 355.5s191.833 144.5 316.5 144.5c123.333 0 221.833 -39 295.5 -117s110.5 -182.333 110.5 -313v-33zM813 594v4.00098c0 87.333 -28 161 -84 221s-123 90 -201 90c-84 0 -155.5 -28.833 -214.5 -86.5s-94.5 -133.834 -106.5 -228.501h606z
M430 1098l-67 -0.000976562l289 299c23.333 23.333 42 39 56 47s28 12 42 12c20 0 37 -7 51 -21s21 -31 21 -51c0 -14 -5.16699 -27.667 -15.5 -41s-25.833 -26.666 -46.5 -39.999z" />
    <glyph glyph-name="ecircumflex" unicode="&#xea;" horiz-adv-x="1006" 
d="M932 522h-729v-49c0 -110 38.5 -205 115.5 -285s170.833 -120 281.5 -120c50.667 0 100.167 12 148.5 36s95.833 60.333 142.5 109l-12 -119c-46 -38.667 -95.5 -68.167 -148.5 -88.5s-107.5 -30.5 -163.5 -30.5c-138 0 -253.667 49 -347 147s-140 219 -140 363
c0 140.667 43.167 259.167 129.5 355.5s191.833 144.5 316.5 144.5c123.333 0 221.833 -39 295.5 -117s110.5 -182.333 110.5 -313v-33zM813 594v4.00098c0 87.333 -28 161 -84 221s-123 90 -201 90c-84 0 -155.5 -28.833 -214.5 -86.5s-94.5 -133.834 -106.5 -228.501h606z
M480 1446h118l232 -348h-58l-233 209l-233 -209h-58z" />
    <glyph glyph-name="edieresis" unicode="&#xeb;" horiz-adv-x="1006" 
d="M932 522h-729v-49c0 -110 38.5 -205 115.5 -285s170.833 -120 281.5 -120c50.667 0 100.167 12 148.5 36s95.833 60.333 142.5 109l-12 -119c-46 -38.667 -95.5 -68.167 -148.5 -88.5s-107.5 -30.5 -163.5 -30.5c-138 0 -253.667 49 -347 147s-140 219 -140 363
c0 140.667 43.167 259.167 129.5 355.5s191.833 144.5 316.5 144.5c123.333 0 221.833 -39 295.5 -117s110.5 -182.333 110.5 -313v-33zM813 594v4.00098c0 87.333 -28 161 -84 221s-123 90 -201 90c-84 0 -155.5 -28.833 -214.5 -86.5s-94.5 -133.834 -106.5 -228.501h606z
M715 1352c26.667 0 49.667 -10 69 -30s29 -43.667 29 -71c0 -28 -9.33301 -51.667 -28 -71s-42 -29 -70 -29s-51.667 9.66699 -71 29s-29 43 -29 71c0 26.667 10 50.167 30 70.5s43.333 30.5 70 30.5zM363 1352c26.667 0 50 -10.167 70 -30.5s30 -43.833 30 -70.5
c0 -28 -9.66699 -51.667 -29 -71s-43 -29 -71 -29s-51.333 9.66699 -70 29s-28 43 -28 71c0 27.333 9.66699 51 29 71s42.333 30 69 30z" />
    <glyph glyph-name="igrave" unicode="&#xec;" horiz-adv-x="473" 
d="M78 -4v33.001c39.333 4.66699 66.5 16.334 81.5 35.001s22.5 54 22.5 106v618c0 37.333 -6 61.833 -18 73.5s-40.667 18.167 -86 19.5v30c33.333 5.33301 68 14.666 104 27.999s75.667 32 119 56c-3.33301 -32 -5.83301 -63.5 -7.5 -94.5s-2.5 -62.833 -2.5 -95.5v-635
c0 -52 7.66699 -87.333 23 -106s42.333 -30.334 81 -35.001v-33c-34 4.66699 -64.5 8.16699 -91.5 10.5s-48.833 3.5 -65.5 3.5c-17.333 0 -39.833 -1.16699 -67.5 -3.5s-58.5 -5.83301 -92.5 -10.5zM414 1098l-67 0.000976562l-330 205
c-20.667 13.333 -36.167 26.666 -46.5 39.999s-15.5 27 -15.5 41c0 20 7 37 21 51s31 21 51 21c14 0 28 -4 42 -12s32.667 -23.667 56 -47z" />
    <glyph glyph-name="iacute" unicode="&#xed;" horiz-adv-x="473" 
d="M78 -4v33.001c39.333 4.66699 66.5 16.334 81.5 35.001s22.5 54 22.5 106v618c0 37.333 -6 61.833 -18 73.5s-40.667 18.167 -86 19.5v30c33.333 5.33301 68 14.666 104 27.999s75.667 32 119 56c-3.33301 -32 -5.83301 -63.5 -7.5 -94.5s-2.5 -62.833 -2.5 -95.5v-635
c0 -52 7.66699 -87.333 23 -106s42.333 -30.334 81 -35.001v-33c-34 4.66699 -64.5 8.16699 -91.5 10.5s-48.833 3.5 -65.5 3.5c-17.333 0 -39.833 -1.16699 -67.5 -3.5s-58.5 -5.83301 -92.5 -10.5zM129 1098l-67 -0.000976562l289 299c23.333 23.333 42 39 56 47
s28 12 42 12c20 0 37 -7 51 -21s21 -31 21 -51c0 -14 -5.16699 -27.667 -15.5 -41s-25.833 -26.666 -46.5 -39.999z" />
    <glyph glyph-name="icircumflex" unicode="&#xee;" horiz-adv-x="473" 
d="M78 -4v33.001c39.333 4.66699 66.5 16.334 81.5 35.001s22.5 54 22.5 106v618c0 37.333 -6 61.833 -18 73.5s-40.667 18.167 -86 19.5v30c33.333 5.33301 68 14.666 104 27.999s75.667 32 119 56c-3.33301 -32 -5.83301 -63.5 -7.5 -94.5s-2.5 -62.833 -2.5 -95.5v-635
c0 -52 7.66699 -87.333 23 -106s42.333 -30.334 81 -35.001v-33c-34 4.66699 -64.5 8.16699 -91.5 10.5s-48.833 3.5 -65.5 3.5c-17.333 0 -39.833 -1.16699 -67.5 -3.5s-58.5 -5.83301 -92.5 -10.5zM179 1446h118l232 -348h-58l-233 209l-233 -209h-58z" />
    <glyph glyph-name="idieresis" unicode="&#xef;" horiz-adv-x="473" 
d="M78 -4v33.001c39.333 4.66699 66.5 16.334 81.5 35.001s22.5 54 22.5 106v618c0 37.333 -6 61.833 -18 73.5s-40.667 18.167 -86 19.5v30c33.333 5.33301 68 14.666 104 27.999s75.667 32 119 56c-3.33301 -32 -5.83301 -63.5 -7.5 -94.5s-2.5 -62.833 -2.5 -95.5v-635
c0 -52 7.66699 -87.333 23 -106s42.333 -30.334 81 -35.001v-33c-34 4.66699 -64.5 8.16699 -91.5 10.5s-48.833 3.5 -65.5 3.5c-17.333 0 -39.833 -1.16699 -67.5 -3.5s-58.5 -5.83301 -92.5 -10.5zM414 1352c26.667 0 49.667 -10 69 -30s29 -43.667 29 -71
c0 -28 -9.33301 -51.667 -28 -71s-42 -29 -70 -29s-51.667 9.66699 -71 29s-29 43 -29 71c0 26.667 10 50.167 30 70.5s43.333 30.5 70 30.5zM62 1352c26.667 0 50 -10.167 70 -30.5s30 -43.833 30 -70.5c0 -28 -9.66699 -51.667 -29 -71s-43 -29 -71 -29
s-51.333 9.66699 -70 29s-28 43 -28 71c0 27.333 9.66699 51 29 71s42.333 30 69 30z" />
    <glyph glyph-name="eth" unicode="&#xf0;" horiz-adv-x="1139" 
d="M561 903c-107.333 0 -193.833 -35.167 -259.5 -105.5s-98.5 -162.833 -98.5 -277.5c0 -130.667 35.5 -240.167 106.5 -328.5s158.833 -132.5 263.5 -132.5c106.667 0 193.5 36 260.5 108s100.5 165 100.5 279c0 135.333 -34.833 245.333 -104.5 330
s-159.167 127 -268.5 127zM838 889c-28.667 59.333 -59.3301 113.498 -91.9971 162.498s-67.667 93.833 -105 134.5l-354 -123l-25 59l330 119c-37.333 38.667 -76.833 75.5 -118.5 110.5s-85.5 68.5 -131.5 100.5l29 45c51.333 -25.333 103.666 -56.833 156.999 -94.5
s107.333 -81.167 162 -130.5l311 108l31 -63l-284 -100c101.333 -121.333 177.166 -241.166 227.499 -359.499s75.5 -236.166 75.5 -353.499c0 -158.667 -44.167 -286.5 -132.5 -383.5s-204.833 -145.5 -349.5 -145.5c-140.667 0 -257.334 48.167 -350.001 144.5
s-139 216.833 -139 361.5s46.5 265.167 139.5 361.5s209.5 144.5 349.5 144.5c48 0 93.667 -7.83301 137 -23.5s87.333 -40.5 132 -74.5z" />
    <glyph glyph-name="ntilde" unicode="&#xf1;" horiz-adv-x="1100" 
d="M301 995c-0.666992 -10.667 -1.99902 -26.9971 -3.99902 -48.9971c-5.33301 -69.333 -8 -116.333 -8 -141c34.667 56.667 78.667 99.5 132 128.5s114.333 43.5 183 43.5c108.667 0 188.167 -31.833 238.5 -95.5s75.5 -164.834 75.5 -303.501v-408
c0 -52 7.5 -87.333 22.5 -106s42.167 -30.334 81.5 -35.001v-33c-42.667 6 -72.334 9.83301 -89.001 11.5s-30.667 2.5 -42 2.5c-12 0 -26.333 -1.16699 -43 -3.5s-35.667 -5.83301 -57 -10.5c6 40 10.5 77.833 13.5 113.5s4.5 68.834 4.5 99.501v369
c0 114.667 -17.667 195.5 -53 242.5s-94 70.5 -176 70.5c-97.333 0 -169.833 -28.333 -217.5 -85s-71.5 -142.334 -71.5 -257.001v-379c0 -52 7.66699 -87.333 23 -106s42.333 -30.334 81 -35.001v-33c-34 4.66699 -64.5 8.16699 -91.5 10.5s-48.833 3.5 -65.5 3.5
c-17.333 0 -39.833 -1.16699 -67.5 -3.5s-57.834 -5.83301 -90.501 -10.5v33c38 5.33301 64.5 17.333 79.5 36s22.5 53.667 22.5 105v618c0 32.667 -4.16699 55 -12.5 67s-25.5 19.333 -51.5 22l-38 4v30c32.667 5.33301 66.834 14.833 102.501 28.5
s75.167 32.167 118.5 55.5zM794.001 1395h53.999c-13.333 -69.333 -36.166 -120.833 -68.499 -154.5s-74.5 -50.5 -126.5 -50.5c-10 0 -21 0.833008 -33 2.5s-25.333 4.16699 -40 7.5l-110 29c-8 2 -16.667 3.5 -26 4.5s-19.333 1.5 -30 1.5c-22 0 -39.833 -7 -53.5 -21
s-25.5 -37 -35.5 -69h-51c12.667 70 35.334 122.667 68.001 158s75.667 53 129 53c12.667 0 24 -0.666992 34 -2s19.667 -3.33301 29 -6l111 -29c10.667 -2.66699 20.667 -4.66699 30 -6s17.666 -2 24.999 -2c24.667 0 44 6 58 18s26 34 36 66z" />
    <glyph glyph-name="ograve" unicode="&#xf2;" horiz-adv-x="1139" 
d="M563 903c-108 0 -195 -35.001 -261 -105.001s-99 -162.667 -99 -278c0 -130.667 35.5 -240.167 106.5 -328.5s158.833 -132.5 263.5 -132.5c107.333 0 194.333 35.833 261 107.5s100 164.834 100 279.501c0 128 -36 236.167 -108 324.5s-159.667 132.5 -263 132.5z
M569 986.999c140 0 256.333 -48.167 349 -144.5s139 -216.833 139 -361.5c0 -145.333 -46.167 -266 -138.5 -362s-208.833 -144 -349.5 -144s-257.334 48.167 -350.001 144.5s-139 216.833 -139 361.5c0 145.333 46.333 266 139 362s209.334 144 350.001 144zM745 1098
l-67 0.000976562l-330 205c-20.667 13.333 -36.167 26.666 -46.5 39.999s-15.5 27 -15.5 41c0 20 7 37 21 51s31 21 51 21c14 0 28 -4 42 -12s32.667 -23.667 56 -47z" />
    <glyph glyph-name="oacute" unicode="&#xf3;" horiz-adv-x="1139" 
d="M563 903c-108 0 -195 -35.001 -261 -105.001s-99 -162.667 -99 -278c0 -130.667 35.5 -240.167 106.5 -328.5s158.833 -132.5 263.5 -132.5c107.333 0 194.333 35.833 261 107.5s100 164.834 100 279.501c0 128 -36 236.167 -108 324.5s-159.667 132.5 -263 132.5z
M569 986.999c140 0 256.333 -48.167 349 -144.5s139 -216.833 139 -361.5c0 -145.333 -46.167 -266 -138.5 -362s-208.833 -144 -349.5 -144s-257.334 48.167 -350.001 144.5s-139 216.833 -139 361.5c0 145.333 46.333 266 139 362s209.334 144 350.001 144zM460 1098
l-67 -0.000976562l289 299c23.333 23.333 42 39 56 47s28 12 42 12c20 0 37 -7 51 -21s21 -31 21 -51c0 -14 -5.16699 -27.667 -15.5 -41s-25.833 -26.666 -46.5 -39.999z" />
    <glyph glyph-name="ocircumflex" unicode="&#xf4;" horiz-adv-x="1139" 
d="M563 903c-108 0 -195 -35.001 -261 -105.001s-99 -162.667 -99 -278c0 -130.667 35.5 -240.167 106.5 -328.5s158.833 -132.5 263.5 -132.5c107.333 0 194.333 35.833 261 107.5s100 164.834 100 279.501c0 128 -36 236.167 -108 324.5s-159.667 132.5 -263 132.5z
M569 986.999c140 0 256.333 -48.167 349 -144.5s139 -216.833 139 -361.5c0 -145.333 -46.167 -266 -138.5 -362s-208.833 -144 -349.5 -144s-257.334 48.167 -350.001 144.5s-139 216.833 -139 361.5c0 145.333 46.333 266 139 362s209.334 144 350.001 144zM510 1446h118
l232 -348h-58l-233 209l-233 -209h-58z" />
    <glyph glyph-name="otilde" unicode="&#xf5;" horiz-adv-x="1139" 
d="M563 903c-108 0 -195 -35.001 -261 -105.001s-99 -162.667 -99 -278c0 -130.667 35.5 -240.167 106.5 -328.5s158.833 -132.5 263.5 -132.5c107.333 0 194.333 35.833 261 107.5s100 164.834 100 279.501c0 128 -36 236.167 -108 324.5s-159.667 132.5 -263 132.5z
M569 986.999c140 0 256.333 -48.167 349 -144.5s139 -216.833 139 -361.5c0 -145.333 -46.167 -266 -138.5 -362s-208.833 -144 -349.5 -144s-257.334 48.167 -350.001 144.5s-139 216.833 -139 361.5c0 145.333 46.333 266 139 362s209.334 144 350.001 144zM802 1395
h53.999c-13.333 -69.333 -36.166 -120.833 -68.499 -154.5s-74.5 -50.5 -126.5 -50.5c-10 0 -21 0.833008 -33 2.5s-25.333 4.16699 -40 7.5l-110 29c-8 2 -16.667 3.5 -26 4.5s-19.333 1.5 -30 1.5c-22 0 -39.833 -7 -53.5 -21s-25.5 -37 -35.5 -69h-51
c12.667 70 35.334 122.667 68.001 158s75.667 53 129 53c12.667 0 24 -0.666992 34 -2s19.667 -3.33301 29 -6l111 -29c10.667 -2.66699 20.667 -4.66699 30 -6s17.666 -2 24.999 -2c24.667 0 44 6 58 18s26 34 36 66z" />
    <glyph glyph-name="odieresis" unicode="&#xf6;" horiz-adv-x="1139" 
d="M563 903c-108 0 -195 -35.001 -261 -105.001s-99 -162.667 -99 -278c0 -130.667 35.5 -240.167 106.5 -328.5s158.833 -132.5 263.5 -132.5c107.333 0 194.333 35.833 261 107.5s100 164.834 100 279.501c0 128 -36 236.167 -108 324.5s-159.667 132.5 -263 132.5z
M569 986.999c140 0 256.333 -48.167 349 -144.5s139 -216.833 139 -361.5c0 -145.333 -46.167 -266 -138.5 -362s-208.833 -144 -349.5 -144s-257.334 48.167 -350.001 144.5s-139 216.833 -139 361.5c0 145.333 46.333 266 139 362s209.334 144 350.001 144zM745 1352
c26.667 0 49.667 -10 69 -30s29 -43.667 29 -71c0 -28 -9.33301 -51.667 -28 -71s-42 -29 -70 -29s-51.667 9.66699 -71 29s-29 43 -29 71c0 26.667 10 50.167 30 70.5s43.333 30.5 70 30.5zM393 1352c26.667 0 50 -10.167 70 -30.5s30 -43.833 30 -70.5
c0 -28 -9.66699 -51.667 -29 -71s-43 -29 -71 -29s-51.333 9.66699 -70 29s-28 43 -28 71c0 27.333 9.66699 51 29 71s42.333 30 69 30z" />
    <glyph glyph-name="divide" unicode="&#xf7;" horiz-adv-x="1706" 
d="M854 365c30 0 55.333 -10.333 76 -31s31 -46 31 -76c0 -29.333 -10.333 -54.333 -31 -75s-46 -31 -76 -31s-55.167 10.333 -75.5 31s-30.5 45.667 -30.5 75s10.333 54.5 31 75.5s45.667 31.5 75 31.5zM254 659h1198v-98h-1198v98zM854 1071
c29.333 0 54.5 -10.667 75.5 -32s31.5 -46.666 31.5 -75.999c0 -30 -10.333 -55.333 -31 -76s-46 -31 -76 -31s-55.167 10.167 -75.5 30.5s-30.5 45.833 -30.5 76.5c0 29.333 10.5 54.666 31.5 75.999s45.833 32 74.5 32z" />
    <glyph glyph-name="oslash" unicode="&#xf8;" horiz-adv-x="1139" 
d="M797 817l-398 -716.999c30.667 -13.333 60.5 -23.5 89.5 -30.5s57.167 -10.5 84.5 -10.5c108 0 195.167 35.667 261.5 107s99.5 164.666 99.5 279.999c0 66.667 -11.5 131 -34.5 193s-57.167 121.333 -102.5 178zM741 862.001c-30 13.333 -59.5 23.165 -88.5 29.498
s-58.167 9.5 -87.5 9.5c-108 0 -195 -35.333 -261 -106s-99 -163.667 -99 -279c0 -65.333 11.667 -129.166 35 -191.499s58 -122.166 104 -179.499zM840 1040l79.999 -0.000976562l-76 -133c70 -52.667 123 -114.834 159 -186.501s54 -151.5 54 -239.5
c0 -145.333 -46.167 -266 -138.5 -362s-208.833 -144 -349.5 -144c-40.667 0 -78.667 4 -114 12s-69 20 -101 36l-59 -111h-80l78 145c-70 52.667 -123 114.834 -159 186.501s-54 150.834 -54 237.501c0 145.333 46.333 266 139 362s209.334 144 350.001 144
c41.333 0 79.5 -3.83301 114.5 -11.5s68.5 -19.5 100.5 -35.5z" />
    <glyph glyph-name="ugrave" unicode="&#xf9;" horiz-adv-x="1067" 
d="M764 -4c4 18.667 6.99805 40.502 8.99805 65.502s3.66699 63.833 5 116.5c-35.333 -64 -79.166 -112 -131.499 -144s-113.5 -48 -183.5 -48c-106 0 -184.667 30.167 -236 90.5s-77 152.166 -77 275.499v436c0 37.333 -6.16699 61.833 -18.5 73.5s-40.5 18.167 -84.5 19.5
v28c30 4.66699 62.333 13.834 97 27.501s75.334 33.167 122.001 58.5c-2.66699 -12.667 -4.66699 -27.667 -6 -45s-2 -45.333 -2 -84v-61v-432c0 -108 17.833 -185.167 53.5 -231.5s93.5 -69.5 173.5 -69.5c96 0 168.167 31.333 216.5 94s72.5 156 72.5 280v342
c0 37.333 -5.83301 61.833 -17.5 73.5s-39.167 18.167 -82.5 19.5v28c29.333 4.66699 61.5 13.834 96.5 27.501s75.833 33.167 122.5 58.5c-4 -22.667 -7 -48.834 -9 -78.501s-3 -66.834 -3 -111.501v-635c0 -52 7.5 -87.333 22.5 -106s42.167 -30.334 81.5 -35.001v-33
c-18 4.66699 -37.167 8.16699 -57.5 10.5s-44.833 3.5 -73.5 3.5c-18.667 0 -35.167 -1.16699 -49.5 -3.5s-27.833 -5.83301 -40.5 -10.5zM695.998 1098l-67 0.000976562l-330 205c-20.667 13.333 -36.167 26.666 -46.5 39.999s-15.5 27 -15.5 41c0 20 7 37 21 51
s31 21 51 21c14 0 28 -4 42 -12s32.667 -23.667 56 -47z" />
    <glyph glyph-name="uacute" unicode="&#xfa;" horiz-adv-x="1067" 
d="M764 -4c4 18.667 6.99805 40.502 8.99805 65.502s3.66699 63.833 5 116.5c-35.333 -64 -79.166 -112 -131.499 -144s-113.5 -48 -183.5 -48c-106 0 -184.667 30.167 -236 90.5s-77 152.166 -77 275.499v436c0 37.333 -6.16699 61.833 -18.5 73.5s-40.5 18.167 -84.5 19.5
v28c30 4.66699 62.333 13.834 97 27.501s75.334 33.167 122.001 58.5c-2.66699 -12.667 -4.66699 -27.667 -6 -45s-2 -45.333 -2 -84v-61v-432c0 -108 17.833 -185.167 53.5 -231.5s93.5 -69.5 173.5 -69.5c96 0 168.167 31.333 216.5 94s72.5 156 72.5 280v342
c0 37.333 -5.83301 61.833 -17.5 73.5s-39.167 18.167 -82.5 19.5v28c29.333 4.66699 61.5 13.834 96.5 27.501s75.833 33.167 122.5 58.5c-4 -22.667 -7 -48.834 -9 -78.501s-3 -66.834 -3 -111.501v-635c0 -52 7.5 -87.333 22.5 -106s42.167 -30.334 81.5 -35.001v-33
c-18 4.66699 -37.167 8.16699 -57.5 10.5s-44.833 3.5 -73.5 3.5c-18.667 0 -35.167 -1.16699 -49.5 -3.5s-27.833 -5.83301 -40.5 -10.5zM410.998 1098l-67 -0.000976562l289 299c23.333 23.333 42 39 56 47s28 12 42 12c20 0 37 -7 51 -21s21 -31 21 -51
c0 -14 -5.16699 -27.667 -15.5 -41s-25.833 -26.666 -46.5 -39.999z" />
    <glyph glyph-name="ucircumflex" unicode="&#xfb;" horiz-adv-x="1067" 
d="M764 -4c4 18.667 6.99805 40.502 8.99805 65.502s3.66699 63.833 5 116.5c-35.333 -64 -79.166 -112 -131.499 -144s-113.5 -48 -183.5 -48c-106 0 -184.667 30.167 -236 90.5s-77 152.166 -77 275.499v436c0 37.333 -6.16699 61.833 -18.5 73.5s-40.5 18.167 -84.5 19.5
v28c30 4.66699 62.333 13.834 97 27.501s75.334 33.167 122.001 58.5c-2.66699 -12.667 -4.66699 -27.667 -6 -45s-2 -45.333 -2 -84v-61v-432c0 -108 17.833 -185.167 53.5 -231.5s93.5 -69.5 173.5 -69.5c96 0 168.167 31.333 216.5 94s72.5 156 72.5 280v342
c0 37.333 -5.83301 61.833 -17.5 73.5s-39.167 18.167 -82.5 19.5v28c29.333 4.66699 61.5 13.834 96.5 27.501s75.833 33.167 122.5 58.5c-4 -22.667 -7 -48.834 -9 -78.501s-3 -66.834 -3 -111.501v-635c0 -52 7.5 -87.333 22.5 -106s42.167 -30.334 81.5 -35.001v-33
c-18 4.66699 -37.167 8.16699 -57.5 10.5s-44.833 3.5 -73.5 3.5c-18.667 0 -35.167 -1.16699 -49.5 -3.5s-27.833 -5.83301 -40.5 -10.5zM460.998 1446h118l232 -348h-58l-233 209l-233 -209h-58z" />
    <glyph glyph-name="udieresis" unicode="&#xfc;" horiz-adv-x="1067" 
d="M764 -4c4 18.667 6.99805 40.502 8.99805 65.502s3.66699 63.833 5 116.5c-35.333 -64 -79.166 -112 -131.499 -144s-113.5 -48 -183.5 -48c-106 0 -184.667 30.167 -236 90.5s-77 152.166 -77 275.499v436c0 37.333 -6.16699 61.833 -18.5 73.5s-40.5 18.167 -84.5 19.5
v28c30 4.66699 62.333 13.834 97 27.501s75.334 33.167 122.001 58.5c-2.66699 -12.667 -4.66699 -27.667 -6 -45s-2 -45.333 -2 -84v-61v-432c0 -108 17.833 -185.167 53.5 -231.5s93.5 -69.5 173.5 -69.5c96 0 168.167 31.333 216.5 94s72.5 156 72.5 280v342
c0 37.333 -5.83301 61.833 -17.5 73.5s-39.167 18.167 -82.5 19.5v28c29.333 4.66699 61.5 13.834 96.5 27.501s75.833 33.167 122.5 58.5c-4 -22.667 -7 -48.834 -9 -78.501s-3 -66.834 -3 -111.501v-635c0 -52 7.5 -87.333 22.5 -106s42.167 -30.334 81.5 -35.001v-33
c-18 4.66699 -37.167 8.16699 -57.5 10.5s-44.833 3.5 -73.5 3.5c-18.667 0 -35.167 -1.16699 -49.5 -3.5s-27.833 -5.83301 -40.5 -10.5zM695.998 1352c26.667 0 49.667 -10 69 -30s29 -43.667 29 -71c0 -28 -9.33301 -51.667 -28 -71s-42 -29 -70 -29
s-51.667 9.66699 -71 29s-29 43 -29 71c0 26.667 10 50.167 30 70.5s43.333 30.5 70 30.5zM343.998 1352c26.667 0 50 -10.167 70 -30.5s30 -43.833 30 -70.5c0 -28 -9.66699 -51.667 -29 -71s-43 -29 -71 -29s-51.333 9.66699 -70 29s-28 43 -28 71
c0 27.333 9.66699 51 29 71s42.333 30 69 30z" />
    <glyph glyph-name="yacute" unicode="&#xfd;" horiz-adv-x="915" 
d="M401 -14l-263.999 770c-24 70 -44.667 115.333 -62 136s-40.333 34.667 -69 42v33c22 -5.33301 45 -9.16602 69 -11.499s52.333 -3.5 85 -3.5c34.667 0 64.167 1.16699 88.5 3.5s47.166 6.16602 68.499 11.499v-33c-38 -4.66699 -63.5 -11.667 -76.5 -21
s-19.5 -24.333 -19.5 -45c0 -5.33301 1.16699 -13.5 3.5 -24.5s5.5 -22.833 9.5 -35.5l223 -675l239 676c4 10.667 7.16699 21.5 9.5 32.5s3.5 21.167 3.5 30.5c0 18.667 -6.83301 32.5 -20.5 41.5s-38.834 15.833 -75.501 20.5l-1 32c20.667 -4 43.334 -7.33301 68.001 -10
s50.667 -4 78 -4c32 0 59.167 1.16699 81.5 3.5s43.5 6.16602 63.5 11.499v-33c-49.333 -12.667 -90 -63.667 -122 -153l-9 -25l-305 -834c-48 -132 -88.667 -216.167 -122 -252.5s-76 -54.5 -128 -54.5c-18.667 0 -37.667 3.33301 -57 10s-38.666 16.334 -57.999 29.001
c-0.666992 30.667 -2.16699 59.667 -4.5 87s-5.5 53.333 -9.5 78l35 1c7.33301 -30.667 18.166 -52.667 32.499 -66s34.166 -20 59.499 -20c32.667 0 60.834 9.16699 84.501 27.5s41.167 44.5 52.5 78.5zM350.001 1098l-67 -0.000976562l289 299c23.333 23.333 42 39 56 47
s28 12 42 12c20 0 37 -7 51 -21s21 -31 21 -51c0 -14 -5.16699 -27.667 -15.5 -41s-25.833 -26.666 -46.5 -39.999z" />
    <glyph glyph-name="thorn" unicode="&#xfe;" horiz-adv-x="1128" 
d="M596 893c-84.667 0 -157 -38.8311 -217 -116.498s-90 -175.5 -90 -293.5c0 -122.667 30.333 -222.5 91 -299.5s136.667 -115.5 228 -115.5c88.667 0 164.167 36.167 226.5 108.5s93.5 162.166 93.5 269.499c0 133.333 -31 241.166 -93 323.499s-141.667 123.5 -239 123.5
zM182 1300c0 37.333 -5.99707 61.834 -17.9971 73.501s-40 18.167 -84 19.5v28c30 4.66699 62.833 14 98.5 28s76.5 33.333 122.5 58c-3.33301 -32 -5.83301 -63.5 -7.5 -94.5s-2.5 -62.833 -2.5 -95.5v-547c44 69.333 94.333 121.166 151 155.499s119.667 51.5 189 51.5
c121.333 0 221.666 -47.333 300.999 -142s119 -216 119 -364c0 -136.667 -41.5 -251.667 -124.5 -345s-184.833 -140 -305.5 -140c-66 0 -126.833 16.333 -182.5 49s-104.834 81 -147.501 145v-368c0 -51.333 7.66699 -86.333 23 -105s42.333 -31 81 -37v-32h-5
c-78 9.33301 -128.667 14 -152 14c-14.667 0 -32.834 -1 -54.501 -3s-56.167 -5.66699 -103.5 -11v32c38 6 64.5 18.333 79.5 37s22.5 53.667 22.5 105v1488z" />
    <glyph glyph-name="ydieresis" unicode="&#xff;" horiz-adv-x="915" 
d="M401 -14l-263.999 770c-24 70 -44.667 115.333 -62 136s-40.333 34.667 -69 42v33c22 -5.33301 45 -9.16602 69 -11.499s52.333 -3.5 85 -3.5c34.667 0 64.167 1.16699 88.5 3.5s47.166 6.16602 68.499 11.499v-33c-38 -4.66699 -63.5 -11.667 -76.5 -21
s-19.5 -24.333 -19.5 -45c0 -5.33301 1.16699 -13.5 3.5 -24.5s5.5 -22.833 9.5 -35.5l223 -675l239 676c4 10.667 7.16699 21.5 9.5 32.5s3.5 21.167 3.5 30.5c0 18.667 -6.83301 32.5 -20.5 41.5s-38.834 15.833 -75.501 20.5l-1 32c20.667 -4 43.334 -7.33301 68.001 -10
s50.667 -4 78 -4c32 0 59.167 1.16699 81.5 3.5s43.5 6.16602 63.5 11.499v-33c-49.333 -12.667 -90 -63.667 -122 -153l-9 -25l-305 -834c-48 -132 -88.667 -216.167 -122 -252.5s-76 -54.5 -128 -54.5c-18.667 0 -37.667 3.33301 -57 10s-38.666 16.334 -57.999 29.001
c-0.666992 30.667 -2.16699 59.667 -4.5 87s-5.5 53.333 -9.5 78l35 1c7.33301 -30.667 18.166 -52.667 32.499 -66s34.166 -20 59.499 -20c32.667 0 60.834 9.16699 84.501 27.5s41.167 44.5 52.5 78.5zM635.001 1352c26.667 0 49.667 -10 69 -30s29 -43.667 29 -71
c0 -28 -9.33301 -51.667 -28 -71s-42 -29 -70 -29s-51.667 9.66699 -71 29s-29 43 -29 71c0 26.667 10 50.167 30 70.5s43.333 30.5 70 30.5zM283.001 1352c26.667 0 50 -10.167 70 -30.5s30 -43.833 30 -70.5c0 -28 -9.66699 -51.667 -29 -71s-43 -29 -71 -29
s-51.333 9.66699 -70 29s-28 43 -28 71c0 27.333 9.66699 51 29 71s42.333 30 69 30z" />
    <glyph glyph-name="Cacute" unicode="&#x106;" horiz-adv-x="1233" 
d="M1124 1270l0.000976562 -76.002c0 -54.667 0.833008 -97 2.5 -127s4.16699 -58.667 7.5 -86h-34c-12.667 95.333 -49.334 166.666 -110.001 213.999s-146.334 71 -257.001 71c-149.333 0 -273 -52.667 -371 -158s-147 -239.666 -147 -402.999
c0 -180 55.667 -330.833 167 -452.5s248.333 -182.5 411 -182.5c64.667 0 128.667 11 192 33s123.333 54.667 180 98l-8 -101c-56 -41.333 -115.667 -72.5 -179 -93.5s-130 -31.5 -200 -31.5c-202.667 0 -369 64.333 -499 193s-195 293.334 -195 494.001
c0 97.333 16.333 188.333 49 273s80.334 159.334 143.001 224.001c60.667 62.667 131.5 111.167 212.5 145.5s164.5 51.5 250.5 51.5c73.333 0 142 -7.16699 206 -21.5s123.667 -35.833 179 -64.5zM630.001 1469l-67 -0.000976562l289 299c23.333 23.333 42 39 56 47
s28 12 42 12c20 0 37 -7 51 -21s21 -31 21 -51c0 -14 -5.16699 -27.667 -15.5 -41s-25.833 -26.666 -46.5 -39.999z" />
    <glyph glyph-name="cacute" unicode="&#x107;" horiz-adv-x="958" 
d="M827 928l14.999 -221h-37c-14.667 65.333 -41.834 114.666 -81.501 147.999s-91.834 50 -156.501 50c-99.333 0 -184.833 -39.333 -256.5 -118s-107.5 -175 -107.5 -289c0 -122 38.5 -223.167 115.5 -303.5s174.167 -120.5 291.5 -120.5c52.667 0 102.167 8 148.5 24
s85.833 38.667 118.5 68l-25 -115c-39.333 -24.667 -82.333 -43.5 -129 -56.5s-96 -19.5 -148 -19.5c-139.333 0 -256.666 47.833 -351.999 143.5s-143 214.5 -143 356.5c0 146 49.833 267.5 149.5 364.5s223.834 145.5 372.501 145.5c36.667 0 73.334 -4.66699 110.001 -14
s75 -23.666 115 -42.999zM461.999 1098l-67 -0.000976562l289 299c23.333 23.333 42 39 56 47s28 12 42 12c20 0 37 -7 51 -21s21 -31 21 -51c0 -14 -5.16699 -27.667 -15.5 -41s-25.833 -26.666 -46.5 -39.999z" />
    <glyph glyph-name="Ccaron" unicode="&#x10c;" horiz-adv-x="1233" 
d="M1124 1270l0.000976562 -76.002c0 -54.667 0.833008 -97 2.5 -127s4.16699 -58.667 7.5 -86h-34c-12.667 95.333 -49.334 166.666 -110.001 213.999s-146.334 71 -257.001 71c-149.333 0 -273 -52.667 -371 -158s-147 -239.666 -147 -402.999
c0 -180 55.667 -330.833 167 -452.5s248.333 -182.5 411 -182.5c64.667 0 128.667 11 192 33s123.333 54.667 180 98l-8 -101c-56 -41.333 -115.667 -72.5 -179 -93.5s-130 -31.5 -200 -31.5c-202.667 0 -369 64.333 -499 193s-195 293.334 -195 494.001
c0 97.333 16.333 188.333 49 273s80.334 159.334 143.001 224.001c60.667 62.667 131.5 111.167 212.5 145.5s164.5 51.5 250.5 51.5c73.333 0 142 -7.16699 206 -21.5s123.667 -35.833 179 -64.5zM448.001 1817h58l233 -211l233 211h58l-232 -348h-118z" />
    <glyph glyph-name="ccaron" unicode="&#x10d;" horiz-adv-x="958" 
d="M827 928l14.999 -221h-37c-14.667 65.333 -41.834 114.666 -81.501 147.999s-91.834 50 -156.501 50c-99.333 0 -184.833 -39.333 -256.5 -118s-107.5 -175 -107.5 -289c0 -122 38.5 -223.167 115.5 -303.5s174.167 -120.5 291.5 -120.5c52.667 0 102.167 8 148.5 24
s85.833 38.667 118.5 68l-25 -115c-39.333 -24.667 -82.333 -43.5 -129 -56.5s-96 -19.5 -148 -19.5c-139.333 0 -256.666 47.833 -351.999 143.5s-143 214.5 -143 356.5c0 146 49.833 267.5 149.5 364.5s223.834 145.5 372.501 145.5c36.667 0 73.334 -4.66699 110.001 -14
s75 -23.666 115 -42.999zM279.999 1446h58l233 -211l233 211h58l-232 -348h-118z" />
    <glyph glyph-name="dcroat" unicode="&#x111;" horiz-adv-x="1110" 
d="M526 895c-93.333 0 -170.832 -37.5 -232.499 -112.5s-92.5 -171.167 -92.5 -288.5c0 -120 31.167 -220.667 93.5 -302s138.166 -122 227.499 -122c90 0 165.5 38.333 226.5 115s91.5 174.667 91.5 294c0 122 -30 221.833 -90 299.5s-134.667 116.5 -224 116.5z
M819.001 -4c4 20.667 7.33398 45.002 10.001 73.002s5.66699 69.333 9 124c-44.667 -69.333 -95.334 -121.166 -152.001 -155.499s-119.334 -51.5 -188.001 -51.5c-120 0 -220 46.667 -300 140s-120 211 -120 353c0 144 40.833 263 122.5 357s184.167 141 307.5 141
c66.667 0 127.334 -16.333 182.001 -49s102.667 -81.334 144 -146.001v312h-353v75h353v56c0 66.667 -6.33301 108.5 -19 125.5s-36.667 25.5 -72 25.5h-24v33c33.333 7.33301 69.166 19 107.499 35s81.5 37 129.5 63c-3.33301 -34.667 -5.83301 -73.334 -7.5 -116.001
s-2.5 -93.334 -2.5 -152.001v-70h164v-75h-164v-924c0 -52.667 7.5 -88.167 22.5 -106.5s41.833 -29.833 80.5 -34.5v-33c-40 6 -68.667 9.83301 -86 11.5s-31.666 2.5 -42.999 2.5c-12 0 -26.333 -1.16699 -43 -3.5s-36 -5.83301 -58 -10.5z" />
    <glyph glyph-name="Gbreve" unicode="&#x11e;" horiz-adv-x="1374" 
d="M1128 1274l0.000976562 -24.9971c0 -34 1.5 -72.833 4.5 -116.5s7.83301 -98.834 14.5 -165.501h-33c-14 96 -53.5 169.5 -118.5 220.5s-151.833 76.5 -260.5 76.5c-151.333 0 -276.833 -52.833 -376.5 -158.5s-149.5 -241.5 -149.5 -407.5
c0 -174 50.167 -319.5 150.5 -436.5s222.166 -175.5 365.499 -175.5c94.667 0 173 24.167 235 72.5s93 110.166 93 185.499v150c0 26.667 -11.333 47.667 -34 63s-59 27 -109 35l-1 32c30.667 -4.66699 61.5 -8.16699 92.5 -10.5s63.833 -3.5 98.5 -3.5
c35.333 0 69 1.16699 101 3.5s63 5.83301 93 10.5v-32c-44 -8.66699 -73.667 -21.5 -89 -38.5s-23 -57.5 -23 -121.5v-432h-55l-5 14c-22.667 73.333 -41 122 -55 146c-58 -65.333 -118.333 -112.5 -181 -141.5s-136 -43.5 -220 -43.5
c-163.333 0 -301.166 64.333 -413.499 193s-168.5 287 -168.5 475c0 210 66.5 381.667 199.5 515s305.5 200 517.5 200c65.333 0 124.666 -6.83301 177.999 -20.5s103 -34.834 149 -63.501zM395.001 1778l50.999 0.000976562c12.667 -49.333 38 -85.166 76 -107.499
s93.333 -33.5 166 -33.5s128 11.167 166 33.5s62.667 58.166 74 107.499h51c-13.333 -88.667 -44.666 -155.834 -93.999 -201.501s-115 -68.5 -197 -68.5s-148 23 -198 69s-81.667 113 -95 201z" />
    <glyph glyph-name="gbreve" unicode="&#x11f;" horiz-adv-x="967" 
d="M489 911c-69.333 0 -126.498 -22.501 -171.498 -67.501s-67.5 -102.833 -67.5 -173.5c0 -82 27.167 -152.667 81.5 -212s117.166 -89 188.499 -89c60 0 111.833 24.333 155.5 73s65.5 109 65.5 181c0 78.667 -24.833 146.334 -74.5 203.001s-108.834 85 -177.501 85z
M979.002 963.999l-27.002 -87.001c-16.667 -4 -31.834 -6.83301 -45.501 -8.5s-26.5 -2.5 -38.5 -2.5c-21.333 0 -43.666 1.66699 -66.999 5s-49.333 8.66602 -78 15.999c44.667 -25.333 78.334 -58 101.001 -98s34 -86.667 34 -140c0 -99.333 -36.5 -183.5 -109.5 -252.5
s-162.167 -103.5 -267.5 -103.5c-41.333 0 -79.666 5.83301 -114.999 17.5s-69.333 29.834 -102 54.501c-42.667 -34 -70.334 -60.333 -83.001 -79s-19 -39 -19 -61c0 -39.333 22 -66.5 66 -81.5s153 -23.167 327 -24.5c145.333 0 246.5 -16 303.5 -48
s85.5 -86.333 85.5 -163c0 -86.667 -40.667 -156.834 -122 -210.501s-189.333 -80.5 -324 -80.5c-103.333 0 -185.833 22.5 -247.5 67.5s-92.5 104.5 -92.5 178.5c0 14 1.83301 28 5.5 42s9.16699 28.333 16.5 43l125 64c-12 -20 -20.833 -40 -26.5 -60
s-8.5 -41.667 -8.5 -65c0 -58.667 22.5 -106 67.5 -142s104.5 -54 178.5 -54c86.667 0 160.834 21 222.501 63s92.5 90.667 92.5 146c0 40.667 -17.5 70.167 -52.5 88.5s-91.833 27.5 -170.5 27.5c-18.667 0 -45.167 0.333008 -79.5 1s-58.833 1 -73.5 1
c-77.333 0 -131.333 1.5 -162 4.5s-56.667 7.83301 -78 14.5c-54.667 16.667 -96.667 42.834 -126 78.501s-44 78.5 -44 128.5c0 4.66699 0.333008 10.334 1 17.001l3 29c36 18 68 36.167 96 54.5s54 37.833 78 58.5c-27.333 34 -47.833 70.167 -61.5 108.5
s-20.5 79.5 -20.5 123.5c0 101.333 34.833 185 104.5 251s157.167 99 262.5 99c36 0 91.5 -5.83301 166.5 -17.5s133.5 -17.5 175.5 -17.5c22.667 0 44.667 1.16699 66 3.5s42.333 5.83301 63 10.5zM190 1407l50.999 0.000976562c12.667 -49.333 38 -85.166 76 -107.499
s93.333 -33.5 166 -33.5s128 11.167 166 33.5s62.667 58.166 74 107.499h51c-13.333 -88.667 -44.666 -155.834 -93.999 -201.501s-115 -68.5 -197 -68.5s-148 23 -198 69s-81.667 113 -95 201z" />
    <glyph glyph-name="Idotaccent" unicode="&#x130;" horiz-adv-x="526" 
d="M86 1335c28 -4.66699 56.499 -8.16699 85.499 -10.5s59.167 -3.5 90.5 -3.5c32 0 62.667 1.16699 92 3.5s58 5.83301 86 10.5v-32c-44 -9.33301 -73.667 -22.5 -89 -39.5s-23 -57.167 -23 -120.5v-957c0 -63.333 7.66699 -103.5 23 -120.5s45 -29.833 89 -38.5v-33
c-26.667 4.66699 -54.667 8.16699 -84 10.5s-60.666 3.5 -93.999 3.5c-32.667 0 -63.5 -1.16699 -92.5 -3.5s-56.833 -5.83301 -83.5 -10.5v33c44 8.66699 73.833 21.5 89.5 38.5s23.5 57.167 23.5 120.5v957c0 63.333 -7.83301 103.5 -23.5 120.5s-45.5 30.167 -89.5 39.5
v32zM263.999 1723c26.667 0 50 -10.167 70 -30.5s30 -43.833 30 -70.5c0 -27.333 -9.83301 -50.833 -29.5 -70.5s-43.167 -29.5 -70.5 -29.5s-50.833 9.83301 -70.5 29.5s-29.5 43.167 -29.5 70.5s9.83301 51 29.5 71s43.167 30 70.5 30z" />
    <glyph glyph-name="dotlessi" unicode="&#x131;" horiz-adv-x="473" 
d="M78 -4v33.001c39.333 4.66699 66.5 16.334 81.5 35.001s22.5 54 22.5 106v618c0 37.333 -6 61.833 -18 73.5s-40.667 18.167 -86 19.5v30c33.333 5.33301 68 14.666 104 27.999s75.667 32 119 56c-3.33301 -32 -5.83301 -63.5 -7.5 -94.5s-2.5 -62.833 -2.5 -95.5v-635
c0 -52 7.66699 -87.333 23 -106s42.333 -30.334 81 -35.001v-33c-34 4.66699 -64.5 8.16699 -91.5 10.5s-48.833 3.5 -65.5 3.5c-17.333 0 -39.833 -1.16699 -67.5 -3.5s-58.5 -5.83301 -92.5 -10.5z" />
    <glyph glyph-name="Lslash" unicode="&#x141;" horiz-adv-x="1010" 
d="M86 1335c28 -4.66699 56.501 -8.16699 85.501 -10.5s59.167 -3.5 90.5 -3.5c32 0 62.667 1.16699 92 3.5s58 5.83301 86 10.5v-32c-44 -9.33301 -73.667 -22.5 -89 -39.5s-23 -57.167 -23 -120.5v-455l350 246v-100l-350 -246v-498h334c144 0 233.333 17.333 268 52
s60 108 76 220h34c-14.667 -102 -24.334 -176.167 -29.001 -222.5s-7 -87.5 -7 -123.5v-16h-918v33c44 8.66699 73.833 21.5 89.5 38.5s23.5 57.5 23.5 121.5v333l-199 -135v101l199 137v514c0 63.333 -7.83301 103.5 -23.5 120.5s-45.5 30.167 -89.5 39.5v32z" />
    <glyph glyph-name="lslash" unicode="&#x142;" horiz-adv-x="473" 
d="M78 -4v32.999c39.333 4.66699 66.5 16.334 81.5 35.001s22.5 54 22.5 106v504l-182 -125v98l182 127v526c0 37.333 -6 61.833 -18 73.5s-40.667 18.167 -86 19.5v28c30.667 4.66699 64 13.834 100 27.501s77 33.167 123 58.5c-3.33301 -32 -5.83301 -63.5 -7.5 -94.5
s-2.5 -62.833 -2.5 -95.5v-483l182 127v-101l-182 -129v-561c0 -52 7.66699 -87.333 23 -106s42.333 -30.334 81 -35.001v-33c-34 4.66699 -64.5 8.16699 -91.5 10.5s-48.833 3.5 -65.5 3.5c-17.333 0 -39.833 -1.16699 -67.5 -3.5s-58.5 -5.83301 -92.5 -10.5z" />
    <glyph glyph-name="OE" unicode="&#x152;" horiz-adv-x="2001" 
d="M1063 1098c-52 56 -108.5 98.001 -169.5 126.001s-126.833 42 -197.5 42c-140 0 -255.167 -49.667 -345.5 -149s-135.5 -226.666 -135.5 -381.999c0 -184.667 51.833 -341.334 155.5 -470.001s229.5 -193 377.5 -193c61.333 0 118 11.667 170 35
s100.333 58.666 145 105.999v885zM1063 1233l0.00195312 97.9941h817c1.33301 -58.667 4.16602 -109.667 8.49902 -153s10.5 -83.666 18.5 -120.999h-33c-15.333 72.667 -36.333 121.5 -63 146.5s-89 37.5 -187 37.5h-442v-498h291c62 0 101.833 8 119.5 24
s30.834 46.333 39.501 91h33c-5.33301 -34.667 -9 -64.167 -11 -88.5s-3 -46.833 -3 -67.5c0 -20 1 -42 3 -66s5.66699 -54.333 11 -91h-33c-8.66699 44.667 -21.834 74.834 -39.501 90.501s-57.5 23.5 -119.5 23.5h-291v-569h440c121.333 0 198.833 14.333 232.5 43
s59.167 89.334 76.5 182.001h33c-10.667 -46.667 -18.5 -96 -23.5 -148s-7.5 -107.667 -7.5 -167h-870v94c-54 -39.333 -109 -68.666 -165 -87.999s-114.333 -29 -175 -29c-83.333 0 -163.5 17.333 -240.5 52s-145.833 84.334 -206.5 149.001
c-60.667 66.667 -107.5 144.834 -140.5 234.501s-49.5 184.834 -49.5 285.501c0 188.667 59.667 345.5 179 470.5s268.666 187.5 447.999 187.5c70.667 0 135.167 -10.333 193.5 -31s110.5 -51.334 156.5 -92.001z" />
    <glyph glyph-name="oe" unicode="&#x153;" horiz-adv-x="1843" 
d="M1047 594l605.998 0.000976562v4c0 87.333 -28.167 161 -84.5 221s-123.166 90 -200.499 90c-84 0 -155.667 -28.833 -215 -86.5s-94.666 -133.834 -105.999 -228.501zM560.998 903.001c-107.333 0 -193.833 -35.168 -259.5 -105.501s-98.5 -162.833 -98.5 -277.5
c0 -130 35.667 -239.333 107 -328s159 -133 263 -133c107.333 0 194.333 35.833 261 107.5s100 164.834 100 279.501c0 129.333 -36 237.833 -108 325.5s-160.333 131.5 -265 131.5zM988.998 238c-44.667 -85.333 -103 -150.499 -175 -195.499s-153.667 -67.5 -245 -67.5
c-140.667 0 -257.334 48.167 -350.001 144.5s-139 216.833 -139 361.5c0 145.333 46.333 266 139 362s209.334 144 350.001 144c91.333 0 172.666 -21.667 243.999 -65s129.333 -106.333 174 -189c44 82.667 98.167 145.667 162.5 189s135.833 65 214.5 65
c122.667 0 221.334 -39.333 296.001 -118s112 -183.334 112 -314.001v-33h-730v-49c0 -110 38.667 -205 116 -285s171.333 -120 282 -120c50.667 0 100.167 12 148.5 36s95.833 60.333 142.5 109l-13 -119c-46 -38.667 -95.5 -68.167 -148.5 -88.5
s-107.167 -30.5 -162.5 -30.5c-87.333 0 -166.5 22.333 -237.5 67s-131.167 110 -180.5 196z" />
    <glyph glyph-name="Scedilla" unicode="&#x15e;" horiz-adv-x="1100" 
d="M952 1300l0.00292969 -64.9971c0 -36 1.16699 -73 3.5 -111s5.83301 -76.667 10.5 -116h-32c-12 90.667 -44.167 157.667 -96.5 201s-127.5 65 -225.5 65c-122 0 -220 -24.667 -294 -74s-111 -114 -111 -194c0 -61.333 22.167 -109.5 66.5 -144.5
s123.833 -64.833 238.5 -89.5l94 -19c149.333 -28.667 250.333 -61.334 303 -98.001c44.667 -30.667 77.667 -66.667 99 -108s32 -89.333 32 -144c0 -126.667 -50.333 -229.667 -151 -309s-232.334 -119 -395.001 -119c-70 0 -138.833 8.5 -206.5 25.5
s-130.167 41.5 -187.5 73.5c0 19.333 0.666992 40.666 2 63.999v12c0 46.667 -1.16699 91.667 -3.5 135s-5.83301 85.333 -10.5 126l35 1c13.333 -122.667 50.166 -212.834 110.499 -270.501s147.833 -86.5 262.5 -86.5c120.667 0 219 30 295 90s114 136.667 114 230
c0 70 -22 123 -66 159s-144.667 69.667 -302 101c-168 32.667 -285.167 76 -351.5 130s-99.5 129.333 -99.5 226c0 110 46.667 198.333 140 265s218.666 100 375.999 100c54.667 0 111.167 -4.66699 169.5 -14s118.5 -23.333 180.5 -42zM518.003 0.00292969
l64.002 0.00195312v-112c16 2 29.5 3.33301 40.5 4s20.5 1.33398 28.5 2.00098c53.333 0 95.666 -15 126.999 -45s47 -69.667 47 -119c0 -55.333 -19.333 -98.5 -58 -129.5s-92.334 -46.5 -161.001 -46.5c-36 0 -75.167 5.16699 -117.5 15.5s-100.833 30.166 -175.5 59.499
l35 78c39.333 -22.667 79 -40.334 119 -53.001s74.667 -19 104 -19c42 0 72.667 7.5 92 22.5s29 38.5 29 70.5c0 27.333 -9.83301 49.166 -29.5 65.499s-46.5 24.5 -80.5 24.5c-6 0 -14.167 -0.5 -24.5 -1.5s-23.5 -2.5 -39.5 -4.5v188z" />
    <glyph glyph-name="scedilla" unicode="&#x15f;" horiz-adv-x="883" 
d="M752 937c1.33301 -58.667 3.00195 -101.829 5.00195 -129.496s4.66699 -52.5 8 -74.5h-32c-12 61.333 -39 106.666 -81 135.999s-100.333 44 -175 44c-78.667 0 -144.334 -17.833 -197.001 -53.5s-79 -79.834 -79 -132.501c0 -42 15.667 -75.167 47 -99.5
s96 -47.833 194 -70.5c146 -34.667 242.667 -71.667 290 -111s71 -93.666 71 -162.999c0 -86.667 -38.333 -159.667 -115 -219s-171.667 -89 -285 -89c-55.333 0 -108.333 7.33301 -159 22s-97.667 36 -141 64c-1.33301 36 -3.5 71.833 -6.5 107.5
s-7.16699 71.5 -12.5 107.5h33c13.333 -70.667 45.166 -125.834 95.499 -165.501s113.833 -59.5 190.5 -59.5c80 0 147.833 20.667 203.5 62s83.5 91 83.5 149c0 73.333 -77.667 129.666 -233 168.999l-59 15c-116 30.667 -195.333 64.667 -238 102s-64 88 -64 152
c0 85.333 36.833 154.166 110.5 206.499s171.5 78.5 293.5 78.5c49.333 0 95 -4 137 -12s80.333 -20 115 -36zM409.002 0.00488281l64.002 0.00195312v-112c16 2 29.5 3.33301 40.5 4s20.5 1.33398 28.5 2.00098c53.333 0 95.666 -15 126.999 -45s47 -69.667 47 -119
c0 -55.333 -19.333 -98.5 -58 -129.5s-92.334 -46.5 -161.001 -46.5c-36 0 -75.167 5.16699 -117.5 15.5s-100.833 30.166 -175.5 59.499l35 78c39.333 -22.667 79 -40.334 119 -53.001s74.667 -19 104 -19c42 0 72.667 7.5 92 22.5s29 38.5 29 70.5
c0 27.333 -9.83301 49.166 -29.5 65.499s-46.5 24.5 -80.5 24.5c-6 0 -14.167 -0.5 -24.5 -1.5s-23.5 -2.5 -39.5 -4.5v188z" />
    <glyph glyph-name="Scaron" unicode="&#x160;" horiz-adv-x="1100" 
d="M952 1300l0.00292969 -64.9971c0 -36 1.16699 -73 3.5 -111s5.83301 -76.667 10.5 -116h-32c-12 90.667 -44.167 157.667 -96.5 201s-127.5 65 -225.5 65c-122 0 -220 -24.667 -294 -74s-111 -114 -111 -194c0 -61.333 22.167 -109.5 66.5 -144.5
s123.833 -64.833 238.5 -89.5l94 -19c149.333 -28.667 250.333 -61.334 303 -98.001c44.667 -30.667 77.667 -66.667 99 -108s32 -89.333 32 -144c0 -126.667 -50.333 -229.667 -151 -309s-232.334 -119 -395.001 -119c-70 0 -138.833 8.5 -206.5 25.5
s-130.167 41.5 -187.5 73.5c0 19.333 0.666992 40.666 2 63.999v12c0 46.667 -1.16699 91.667 -3.5 135s-5.83301 85.333 -10.5 126l35 1c13.333 -122.667 50.166 -212.834 110.499 -270.501s147.833 -86.5 262.5 -86.5c120.667 0 219 30 295 90s114 136.667 114 230
c0 70 -22 123 -66 159s-144.667 69.667 -302 101c-168 32.667 -285.167 76 -351.5 130s-99.5 129.333 -99.5 226c0 110 46.667 198.333 140 265s218.666 100 375.999 100c54.667 0 111.167 -4.66699 169.5 -14s118.5 -23.333 180.5 -42zM260.003 1817h58l233 -211l233 211
h58l-232 -348h-118z" />
    <glyph glyph-name="scaron" unicode="&#x161;" horiz-adv-x="883" 
d="M752 937c1.33301 -58.667 3.00195 -101.829 5.00195 -129.496s4.66699 -52.5 8 -74.5h-32c-12 61.333 -39 106.666 -81 135.999s-100.333 44 -175 44c-78.667 0 -144.334 -17.833 -197.001 -53.5s-79 -79.834 -79 -132.501c0 -42 15.667 -75.167 47 -99.5
s96 -47.833 194 -70.5c146 -34.667 242.667 -71.667 290 -111s71 -93.666 71 -162.999c0 -86.667 -38.333 -159.667 -115 -219s-171.667 -89 -285 -89c-55.333 0 -108.333 7.33301 -159 22s-97.667 36 -141 64c-1.33301 36 -3.5 71.833 -6.5 107.5
s-7.16699 71.5 -12.5 107.5h33c13.333 -70.667 45.166 -125.834 95.499 -165.501s113.833 -59.5 190.5 -59.5c80 0 147.833 20.667 203.5 62s83.5 91 83.5 149c0 73.333 -77.667 129.666 -233 168.999l-59 15c-116 30.667 -195.333 64.667 -238 102s-64 88 -64 152
c0 85.333 36.833 154.166 110.5 206.499s171.5 78.5 293.5 78.5c49.333 0 95 -4 137 -12s80.333 -20 115 -36zM151.002 1446h58l233 -211l233 211h58l-232 -348h-118z" />
    <glyph glyph-name="Ydieresis" unicode="&#x178;" horiz-adv-x="977" 
d="M306 -6l-0.999023 33c44.667 8.66699 75 21.834 91 39.501s24 57.5 24 119.5v371l-344 621c-24.667 44.667 -48.667 76.167 -72 94.5s-52 29.166 -86 32.499v32c24.667 -4.66699 51.5 -8.16699 80.5 -10.5s64.167 -3.5 105.5 -3.5c35.333 0 68.666 1.16699 99.999 3.5
s61 5.83301 89 10.5v-32c-34 -4.66699 -58.833 -12 -74.5 -22s-23.5 -24 -23.5 -42c0 -8.66699 2.83301 -21.167 8.5 -37.5s13.5 -33.166 23.5 -50.499l283 -502l254 475c14 25.333 23.667 46.333 29 63s8 32.667 8 48c0 20.667 -7.83301 36 -23.5 46
s-42.167 17.333 -79.5 22l1 32c22.667 -4.66699 47.667 -8.16699 75 -10.5s60.666 -3.5 99.999 -3.5c33.333 0 64.5 1.16699 93.5 3.5s56.5 5.83301 82.5 10.5l1 -32c-30.667 -4 -58 -17 -82 -39s-53.333 -63.667 -88 -125l-334 -594v-361
c0 -62 7.83301 -101.833 23.5 -119.5s46.167 -30.834 91.5 -39.501l-1 -33c-26.667 4.66699 -54.667 8.16699 -84 10.5s-60.666 3.5 -93.999 3.5s-64.5 -1.16699 -93.5 -3.5s-56.833 -5.83301 -83.5 -10.5zM665.001 1723c26.667 0 49.667 -10 69 -30s29 -43.667 29 -71
c0 -28 -9.33301 -51.667 -28 -71s-42 -29 -70 -29s-51.667 9.66699 -71 29s-29 43 -29 71c0 26.667 10 50.167 30 70.5s43.333 30.5 70 30.5zM313.001 1723c26.667 0 50 -10.167 70 -30.5s30 -43.833 30 -70.5c0 -28 -9.66699 -51.667 -29 -71s-43 -29 -71 -29
s-51.333 9.66699 -70 29s-28 43 -28 71c0 27.333 9.66699 51 29 71s42.333 30 69 30z" />
    <glyph glyph-name="Zcaron" unicode="&#x17d;" horiz-adv-x="1128" 
d="M185 1331l839 0.000976562l-782 -1241h450c104.667 0 180.5 20.5 227.5 61.5s77.833 113.5 92.5 217.5h35c-12.667 -62.667 -22 -124.667 -28 -186s-9 -122.333 -9 -183h-971l780 1241h-325c-112 0 -190 -16.667 -234 -50s-73.333 -95 -88 -185h-33
c12 44.667 21.667 93.167 29 145.5s13 112.166 17 179.499zM274 1817h58l233 -211l233 211h58l-232 -348h-118z" />
    <glyph glyph-name="zcaron" unicode="&#x17e;" horiz-adv-x="872" 
d="M158 963h635.003l-574 -881h303c75.333 0 130.833 13.333 166.5 40s59.5 72.667 71.5 138h33c-6.66699 -50.667 -12.334 -98 -17.001 -142s-8.33398 -83.333 -11.001 -118h-720l576 881h-299c-46 0 -83.333 -12.5 -112 -37.5s-50.334 -63.167 -65.001 -114.5h-30
c9.33301 36 17.5 73.5 24.5 112.5s13.167 79.5 18.5 121.5zM145.003 1446h58l233 -211l233 211h58l-232 -348h-118z" />
    <glyph glyph-name="florin" unicode="&#x192;" horiz-adv-x="1053" 
d="M971 1343c-6.66699 -19.333 -11.8389 -37.665 -15.5059 -54.998s-6.16699 -33.666 -7.5 -48.999c-39.333 7.33301 -69.166 12.166 -89.499 14.499s-38.166 3.5 -53.499 3.5c-61.333 0 -109.666 -16.833 -144.999 -50.5s-58 -84.834 -68 -153.501l-35 -232h178l-12 -82
h-180l-86 -549c-18.667 -118.667 -36.5 -205.5 -53.5 -260.5s-38.167 -101.167 -63.5 -138.5c-38 -56.667 -84.5 -100.167 -139.5 -130.5s-115.167 -45.5 -180.5 -45.5c-14 0 -30 1.16699 -48 3.5s-40.667 5.83301 -68 10.5c5.33301 15.333 9.83301 31.333 13.5 48
s6.5 34.667 8.5 54c30 -4.66699 56.833 -8.5 80.5 -11.5s44.834 -4.5 63.501 -4.5c60.667 0 108.5 16.5 143.5 49.5s58.167 84.167 69.5 153.5l129 821h-123l14 82h21c66.667 0 107.334 39 122.001 117c5.33301 28.667 10.333 52 15 70
c26.667 109.333 74.834 194.666 144.501 255.999s152.5 92 248.5 92c16.667 0 34.667 -1 54 -3s40.333 -5.33301 63 -10z" />
    <glyph glyph-name="circumflex" unicode="&#x2c6;" 
d="M453 1446h118l232 -348h-58l-233 209l-233 -209h-58z" />
    <glyph glyph-name="caron" unicode="&#x2c7;" 
d="M221 1446h58l233 -211l233 211h58l-232 -348h-118z" />
    <glyph glyph-name="breve" unicode="&#x2d8;" 
d="M219 1407l50.999 0.000976562c12.667 -49.333 38 -85.166 76 -107.499s93.333 -33.5 166 -33.5s128 11.167 166 33.5s62.667 58.166 74 107.499h51c-13.333 -88.667 -44.666 -155.834 -93.999 -201.501s-115 -68.5 -197 -68.5s-148 23 -198 69s-81.667 113 -95 201z" />
    <glyph glyph-name="dotaccent" unicode="&#x2d9;" 
d="M512 1352c26.667 0 50 -10.167 70 -30.5s30 -43.833 30 -70.5c0 -27.333 -9.83301 -50.833 -29.5 -70.5s-43.167 -29.5 -70.5 -29.5s-50.833 9.83301 -70.5 29.5s-29.5 43.167 -29.5 70.5s9.83301 51 29.5 71s43.167 30 70.5 30z" />
    <glyph glyph-name="ring" unicode="&#x2da;" 
d="M512 1468c-40.667 0 -75.833 -14.667 -105.5 -44s-44.5 -64.333 -44.5 -105c0 -42 14.5 -77.833 43.5 -107.5s64.5 -44.5 106.5 -44.5c41.333 0 77 15 107 45s45 65.667 45 107c0 40.667 -15 75.667 -45 105s-65.667 44 -107 44zM512.001 1559
c66.667 0 123.667 -23.499 171 -70.499s71 -103.5 71 -169.5c0 -66.667 -23.5 -123.667 -70.5 -171s-104.167 -71 -171.5 -71c-66.667 0 -123.334 23.5 -170.001 70.5s-70 104.167 -70 171.5s23.333 124.166 70 170.499s103.334 69.5 170.001 69.5z" />
    <glyph glyph-name="ogonek" unicode="&#x2db;" 
d="M575 31l50.001 0.000976562c-62 -48.667 -108 -94.667 -138 -138s-45 -86.333 -45 -129c0 -35.333 9.5 -63.833 28.5 -85.5s43.833 -32.5 74.5 -32.5c26 0 49 6 69 18s36.667 29.667 50 53l28 -18c-24 -47.333 -54.167 -83.833 -90.5 -109.5s-76.5 -38.5 -120.5 -38.5
c-46.667 0 -84.834 13.667 -114.501 41s-44.5 61.666 -44.5 102.999c0 58 20.833 114.5 62.5 169.5s105.167 110.5 190.5 166.5z" />
    <glyph glyph-name="tilde" unicode="&#x2dc;" 
d="M745 1395h53.999c-13.333 -69.333 -36.166 -120.833 -68.499 -154.5s-74.5 -50.5 -126.5 -50.5c-10 0 -21 0.833008 -33 2.5s-25.333 4.16699 -40 7.5l-110 29c-8 2 -16.667 3.5 -26 4.5s-19.333 1.5 -30 1.5c-22 0 -39.833 -7 -53.5 -21s-25.5 -37 -35.5 -69h-51
c12.667 70 35.334 122.667 68.001 158s75.667 53 129 53c12.667 0 24 -0.666992 34 -2s19.667 -3.33301 29 -6l111 -29c10.667 -2.66699 20.667 -4.66699 30 -6s17.666 -2 24.999 -2c24.667 0 44 6 58 18s26 34 36 66z" />
    <glyph glyph-name="hungarumlaut" unicode="&#x2dd;" 
d="M653 1098l-59 0.000976562l143 278c16 29.333 31.167 50.333 45.5 63s29.833 19 46.5 19c18.667 0 34.667 -6.66699 48 -20s20 -29 20 -47c0 -10.667 -3.66699 -22.834 -11 -36.501s-17.333 -27.5 -30 -41.5zM377 1098l-58 0.000976562l144 278
c16 29.333 31.167 50.333 45.5 63s29.833 19 46.5 19c18.667 0 34.667 -6.66699 48 -20s20 -29 20 -47c0 -10.667 -3.66699 -22.834 -11 -36.501s-17.333 -27.5 -30 -41.5z" />
    <glyph glyph-name="Omega" unicode="&#x3a9;" horiz-adv-x="1565" 
d="M1087 150l-0.000976562 -25.0039h316l74 219h59l-102 -344h-494c98.667 166.667 172.5 321.834 221.5 465.501s73.5 277.167 73.5 400.5c0 176.667 -39.5 314.834 -118.5 414.501s-189.167 149.5 -330.5 149.5c-142 0 -252.5 -49.667 -331.5 -149
s-118.5 -237.666 -118.5 -414.999c0 -122.667 24.5 -255.5 73.5 -398.5s123.5 -298.833 223.5 -467.5h-496l-102 344h59l74 -219h315v25c-104 134 -179.833 259.333 -227.5 376s-71.5 234.334 -71.5 353.001c0 184 55.833 333 167.5 447s256.5 171 434.5 171
c178.667 0 323.334 -57 434.001 -171s166 -263 166 -447c0 -119.333 -23.5 -236.833 -70.5 -352.5s-123.167 -241.167 -228.5 -376.5z" />
    <glyph glyph-name="pi" unicode="&#x3c0;" horiz-adv-x="1321" 
d="M1292 885l-27.999 -129.001h-320c-26.667 -135.333 -49.334 -299.333 -68.001 -492c-20 -204.667 -58.667 -307 -116 -307c-22.667 0 -41 7.33301 -55 22s-21 33.334 -21 56.001c0 34 26.5 130.833 79.5 290.5s94.833 303.167 125.5 430.5h-367
c-25.333 -132.667 -47.666 -294.667 -66.999 -486c-20.667 -208.667 -59.667 -313 -117 -313c-22.667 0 -41 7.33301 -55 22s-21 33.334 -21 56.001c0 34.667 26.333 132.167 79 292.5s94.667 303.166 126 428.499h-127c-90 0 -148.833 -15.333 -176.5 -46
s-52.167 -94 -73.5 -190h-63c22.667 131.333 60.167 225 112.5 281s128.166 84 227.499 84h925z" />
    <glyph glyph-name="endash" unicode="&#x2013;" 
d="M12 537h1024l-24 -72h-1024z" />
    <glyph glyph-name="emdash" unicode="&#x2014;" horiz-adv-x="2048" 
d="M-8 465l16 72h2048l-16 -72h-2048z" />
    <glyph glyph-name="quoteleft" unicode="&#x2018;" horiz-adv-x="526" 
d="M139 1331l156 0.00195312c-2.66699 -20.667 -4.66699 -41.334 -6 -62.001s-2 -43 -2 -67c0 -47.333 5.66699 -91.833 17 -133.5s28 -79.834 50 -114.501l-26 -24c-50 36 -91 88 -123 156s-54 149.667 -66 245z" />
    <glyph glyph-name="quoteright" unicode="&#x2019;" horiz-adv-x="526" 
d="M231 1331h155.999c-10.667 -94 -32.167 -175.167 -64.5 -243.5s-73.5 -120.833 -123.5 -157.5l-27 24c22.667 36 39.667 74.833 51 116.5s17 85.5 17 131.5c0 24.667 -0.666992 47.5 -2 68.5s-3.66602 41.167 -6.99902 60.5z" />
    <glyph glyph-name="quotesinglbase" unicode="&#x201a;" horiz-adv-x="526" 
d="M199 176l157 -0.00195312c-12 -95.333 -34.167 -177.166 -66.5 -245.499s-73.5 -120.833 -123.5 -157.5l-25 24c22.667 36.667 39.667 75.834 51 117.501s17 85.167 17 130.5c0 18.667 -0.833008 38.667 -2.5 60s-4.16699 45 -7.5 71z" />
    <glyph glyph-name="quotedblleft" unicode="&#x201c;" horiz-adv-x="786" 
d="M399 1331l156 0.00195312c-2.66699 -20.667 -4.66699 -41.334 -6 -62.001s-2 -43 -2 -67c0 -47.333 5.66699 -91.833 17 -133.5s28 -79.834 50 -114.501l-24 -24c-50.667 36.667 -92.167 89 -124.5 157s-54.5 149.333 -66.5 244zM139 1331l156 0.00195312
c-2.66699 -20.667 -4.66699 -41.334 -6 -62.001s-2 -43 -2 -67c0 -47.333 5.66699 -91.833 17 -133.5s28 -79.834 50 -114.501l-26 -24c-50 36 -91 88 -123 156s-54 149.667 -66 245z" />
    <glyph glyph-name="quotedblright" unicode="&#x201d;" horiz-adv-x="786" 
d="M494 1331l155.002 0.000976562c-10.667 -93.333 -32.334 -174.333 -65.001 -243s-74.334 -121.334 -125.001 -158.001l-25 24c22.667 36 39.667 74.833 51 116.5s17 85.5 17 131.5c0 24.667 -0.666992 47.5 -2 68.5s-3.33301 41.167 -6 60.5zM231.002 1331h155.999
c-10.667 -94 -32.167 -175.167 -64.5 -243.5s-73.5 -120.833 -123.5 -157.5l-27 24c22.667 36 39.667 74.833 51 116.5s17 85.5 17 131.5c0 24.667 -0.666992 47.5 -2 68.5s-3.66602 41.167 -6.99902 60.5z" />
    <glyph glyph-name="quotedblbase" unicode="&#x201e;" horiz-adv-x="786" 
d="M461 176h155c-12 -96 -33.833 -178.167 -65.5 -246.5s-72.5 -120.5 -122.5 -156.5l-27 24c22.667 34.667 39.667 73 51 115s17 86.333 17 133c0 24 -0.666992 46.833 -2 68.5s-3.33301 42.5 -6 62.5zM201 176l155 -0.000976562
c-12 -95.333 -34.167 -177.166 -66.5 -245.499s-73.5 -120.833 -123.5 -157.5l-25 24c22.667 34.667 39.667 73 51 115s17 86.333 17 133c0 24 -0.666992 46.833 -2 68.5s-3.33301 42.5 -6 62.5z" />
    <glyph glyph-name="dagger" unicode="&#x2020;" 
d="M344 1337c28 -4.66699 56.002 -8.16309 84.002 -10.4961s56 -3.5 84 -3.5s56 1.16699 84 3.5s56 5.83301 84 10.5v-32c-44 -9.33301 -73.833 -22.5 -89.5 -39.5s-23.5 -57.167 -23.5 -120.5v-215h64c62.667 0 102.667 7.83301 120 23.5s30.666 45.834 39.999 90.501h32
c-5.33301 -36.667 -9 -66.834 -11 -90.501s-3 -45.167 -3 -64.5c0 -18.667 1 -39.334 3 -62.001s5.66699 -53.334 11 -92.001h-32c-9.33301 44.667 -22.666 75 -39.999 91s-57.333 24 -120 24h-64v-664c0 -63.333 7.83301 -103.5 23.5 -120.5s45.5 -29.833 89.5 -38.5v-33
c-28 4.66699 -55.833 8.16699 -83.5 10.5s-55.834 3.5 -84.501 3.5s-56.834 -1.16699 -84.501 -3.5s-55.5 -5.83301 -83.5 -10.5v33c44 8.66699 73.833 21.5 89.5 38.5s23.5 57.167 23.5 120.5v664h-64c-62.667 0 -102.667 -8 -120 -24s-30.666 -46.333 -39.999 -91h-32
c5.33301 38.667 9 69.667 11 93s3 43.666 3 60.999c0 18 -1 38.667 -3 62s-5.66699 54.333 -11 93h32c9.33301 -44.667 22.666 -74.834 39.999 -90.501s57.333 -23.5 120 -23.5h64v215c0 63.333 -7.83301 103.5 -23.5 120.5s-45.5 30.167 -89.5 39.5v32z" />
    <glyph glyph-name="daggerdbl" unicode="&#x2021;" 
d="M344 966c26 -4 53.3369 -7.33008 82.0039 -9.99707s57.334 -4 86.001 -4c28 0 56.167 1.33301 84.5 4s56.166 6 83.499 10v-32c-44 -8.66699 -73.833 -21.5 -89.5 -38.5s-23.5 -57.5 -23.5 -121.5v-244h121c62.667 0 102.667 8 120 24s30.666 46.333 39.999 91h33
c-6 -38 -10 -68.333 -12 -91s-3 -43.334 -3 -62.001c0 -20 1.16699 -41.833 3.5 -65.5s6.16602 -53.834 11.499 -90.501h-33c-9.33301 44.667 -22.666 75 -39.999 91s-57.333 24 -120 24h-121v-265c0 -63.333 7.83301 -103.5 23.5 -120.5s45.5 -29.833 89.5 -38.5v-33
c-28 4.66699 -55.833 8.16699 -83.5 10.5s-55.834 3.5 -84.501 3.5s-56.834 -1.16699 -84.501 -3.5s-55.5 -5.83301 -83.5 -10.5v33c44 8.66699 73.833 21.5 89.5 38.5s23.5 57.167 23.5 120.5v265h-121c-62.667 0 -102.667 -8 -120 -24s-30.666 -46.333 -39.999 -91h-33
c5.33301 37.333 9.16602 68.166 11.499 92.499s3.5 45.5 3.5 63.5c0 17.333 -1 37 -3 59s-6 53.333 -12 94h33c9.33301 -44.667 22.666 -75 39.999 -91s57.333 -24 120 -24h121v244c0 64 -7.83301 104.5 -23.5 121.5s-45.5 29.833 -89.5 38.5v32z" />
    <glyph glyph-name="bullet" unicode="&#x2022;" horiz-adv-x="1208" 
d="M307 762c0 82 28.999 151.666 86.999 208.999s128 86 210 86c81.333 0 150.833 -28.833 208.5 -86.5s86.5 -127.167 86.5 -208.5s-29.167 -151.166 -87.5 -209.499s-128.166 -87.5 -209.499 -87.5c-82 0 -151.667 29 -209 87s-86 128 -86 210z" />
    <glyph glyph-name="ellipsis" unicode="&#x2026;" horiz-adv-x="2048" 
d="M357 154c23.333 0 43.5 -8.66699 60.5 -26s25.5 -38 25.5 -62s-8.83301 -45.167 -26.5 -63.5s-37.5 -27.5 -59.5 -27.5s-41.5 9.16699 -58.5 27.5s-25.5 39.5 -25.5 63.5s8 44.667 24 62s36 26 60 26zM1039 154c23.333 0 43.5 -8.66699 60.5 -26s25.5 -38 25.5 -62
s-8.83301 -45.167 -26.5 -63.5s-37.5 -27.5 -59.5 -27.5s-41.5 9.16699 -58.5 27.5s-25.5 39.5 -25.5 63.5s8 44.667 24 62s36 26 60 26zM1723 154c23.333 0 43.5 -8.66699 60.5 -26s25.5 -38 25.5 -62s-8.83301 -45.167 -26.5 -63.5s-37.5 -27.5 -59.5 -27.5
s-41.5 9.16699 -58.5 27.5s-25.5 39.5 -25.5 63.5s8 44.667 24 62s36 26 60 26z" />
    <glyph glyph-name="perthousand" unicode="&#x2030;" horiz-adv-x="2238" 
d="M1874 553c-66.667 0 -120.165 -20.833 -160.498 -62.5s-60.5 -96.5 -60.5 -164.5c0 -78 21.667 -143.333 65 -196s96.666 -79 159.999 -79c66 0 119.333 21.167 160 63.5s61 97.833 61 166.5c0 75.333 -21.833 139.5 -65.5 192.5s-96.834 79.5 -159.501 79.5zM1098 553
c-66.667 0 -120.167 -20.833 -160.5 -62.5s-60.5 -96.5 -60.5 -164.5c0 -77.333 21.833 -142.5 65.5 -195.5s97.5 -79.5 161.5 -79.5c66 0 119.333 21.167 160 63.5s61 97.833 61 166.5c0 75.333 -22.167 139.5 -66.5 192.5s-97.833 79.5 -160.5 79.5zM1876 629
c97.333 0 178 -31 242 -93s96 -139.667 96 -233c0 -94 -32 -172.167 -96 -234.5s-144.667 -93.5 -242 -93.5c-96.667 0 -177.167 31.333 -241.5 94s-96.5 140.667 -96.5 234s32 171 96 233s144.667 93 242 93zM1100 629c97.333 0 178.333 -31 243 -93s97 -139.667 97 -233
s-32.167 -171.333 -96.5 -234s-145.5 -94 -243.5 -94c-97.333 0 -178 31.333 -242 94s-96 140.667 -96 234s32 171 96 233s144.667 93 242 93zM367.002 1280c-66.667 0 -120.332 -20.667 -160.999 -62s-61 -96.333 -61 -165c0 -77.333 22 -142.5 66 -195.5
s98 -79.5 162 -79.5c65.333 0 118.166 21.167 158.499 63.5s60.5 97.833 60.5 166.5c0 75.333 -22 139.5 -66 192.5s-97 79.5 -159 79.5zM1122 1356l68 -43l-842 -1338l-67 43zM369.004 1356c96.667 0 177.167 -31.333 241.5 -94s96.5 -140.667 96.5 -234s-32 -171 -96 -233
s-144.667 -93 -242 -93c-98 0 -178.833 31 -242.5 93s-95.5 139.667 -95.5 233s32 171.333 96 234s144.667 94 242 94z" />
    <glyph glyph-name="guilsinglleft" unicode="&#x2039;" horiz-adv-x="569" 
d="M496 905c6.66699 0 12.001 -1.66797 16.001 -5.00098s6 -7.66602 6 -12.999c0 -10 -11.667 -23 -35 -39c-16.667 -10.667 -29.667 -19.667 -39 -27c-94 -73.333 -159.833 -135.5 -197.5 -186.5s-56.5 -102.167 -56.5 -153.5c0 -50 18 -99.5 54 -148.5
s102.667 -112.167 200 -189.5l36 -25c25.333 -17.333 38 -31.333 38 -42c0 -5.33301 -2 -9.83301 -6 -13.5s-9.33301 -5.5 -16 -5.5c-11.333 0 -30.333 7.16699 -57 21.5s-62.334 36.5 -107.001 66.5c-106.667 70.667 -177.667 129.5 -213 176.5s-53 100.167 -53 159.5
c0 57.333 16.333 109.166 49 155.499s94 99.833 184 160.5c54 36.667 97.167 63.834 129.5 81.501s54.833 26.5 67.5 26.5z" />
    <glyph glyph-name="guilsinglright" unicode="&#x203a;" horiz-adv-x="569" 
d="M49 889c0 4 2.49902 7.66504 7.49902 10.998s10.833 5 17.5 5c11.333 0 31.333 -7.5 60 -22.5s63.334 -36.167 104.001 -63.5c107.333 -71.333 178.5 -130.666 213.5 -177.999s52.5 -100.666 52.5 -159.999c0 -56.667 -16.167 -107.667 -48.5 -153
s-94.166 -98.666 -185.499 -159.999c-52 -36 -94.833 -63.5 -128.5 -82.5s-56.834 -28.5 -69.501 -28.5c-7.33301 0.666992 -13 2.5 -17 5.5s-6 6.83301 -6 11.5c0 12 12.333 26 37 42c15.333 10 28.333 19 39 27c95.333 74.667 161.5 137 198.5 187s55.5 100.333 55.5 151
c0 49.333 -16 97 -48 143s-96 107.667 -192 185c-13.333 10.667 -30.333 23 -51 37c-26 17.333 -39 31.666 -39 42.999z" />
    <glyph glyph-name="franc" unicode="&#x20a3;" horiz-adv-x="1645" 
d="M86 1331h849.995c1.33301 -53.333 4.33301 -102.333 9 -147s11.334 -87 20.001 -127h-33c-15.333 72.667 -36.666 121.5 -63.999 146.5s-90 37.5 -188 37.5h-352v-524h233c64 0 104.5 7.83301 121.5 23.5s29.833 45.167 38.5 88.5h33
c-5.33301 -34.667 -9.16602 -64.167 -11.499 -88.5s-3.5 -46.5 -3.5 -66.5c0 -20.667 1.16699 -43.667 3.5 -69s5.83301 -55 10.5 -89h-32c-9.33301 44.667 -22.666 75 -39.999 91s-57.333 24 -120 24h-233v-445c0 -63.333 7.66699 -103.5 23 -120.5s45 -29.833 89 -38.5
v-33c-26.667 4.66699 -54.667 8.16699 -84 10.5s-60.666 3.5 -93.999 3.5c-32.667 0 -63.5 -1.16699 -92.5 -3.5s-56.833 -5.83301 -83.5 -10.5v33c44 8.66699 73.833 21.5 89.5 38.5s23.5 57.167 23.5 120.5v953c0 63.333 -7.83301 103.5 -23.5 120.5
s-45.5 29.833 -89.5 38.5v33zM1073 -4l0.000976562 33c39.333 4.66699 66.5 16.334 81.5 35.001s22.5 54 22.5 106v618c0 37.333 -6 61.833 -18 73.5s-40.667 18.167 -86 19.5v30c33.333 5.33301 68 14.666 104 27.999s75.667 32 119 56
c-3.33301 -34 -5.83301 -69.667 -7.5 -107s-2.5 -76.666 -2.5 -117.999c36.667 66 79.667 117 129 153s100.333 54 153 54c9.33301 0 18.666 -1 27.999 -3s18.666 -5 27.999 -9l12 -140l-6 2c-16.667 11.333 -32.167 19.333 -46.5 24s-29.5 7 -45.5 7
c-73.333 0 -133.666 -34.667 -180.999 -104s-71 -160.333 -71 -273v-311c0 -52 7.66699 -87.333 23 -106s42.333 -30.334 81 -35.001v-33c-34 4.66699 -64.5 8.16699 -91.5 10.5s-48.833 3.5 -65.5 3.5c-17.333 0 -39.833 -1.16699 -67.5 -3.5s-58.5 -5.83301 -92.5 -10.5z
" />
    <glyph glyph-name="trademark" unicode="&#x2122;" horiz-adv-x="1683" 
d="M795 1434h175.999l143 -406l154 406h168v-23l-31 -2c-14 0 -25.333 -5 -34 -15s-13 -23.333 -13 -40v-369c0 -16.667 4.33301 -30 13 -40s20 -15 34 -15l31 -2v-25h-234v25l33 2c14 0 25.333 5 34 15s13 23.333 13 40v399l-182 -485h-13l-174 485v-399
c0 -16.667 4.33301 -30 13 -40s20.334 -15 35.001 -15l32 -2v-25h-198v25h32c14.667 0 26.167 5 34.5 15s12.5 23.333 12.5 40v371c0 16 -4.5 29.167 -13.5 39.5s-20.833 15.5 -35.5 15.5l-30 2v23zM259.999 1434h438l11 -174h-25c-5.33301 52 -19.166 90.167 -41.499 114.5
s-54.833 36.5 -97.5 36.5h-23v-426c0 -16.667 4.33301 -30 13 -40s20 -15 34 -15l33 -2v-25h-246v25l33 2c13.333 0 24.166 5.16699 32.499 15.5s12.5 23.5 12.5 39.5v426h-22c-43.333 0 -76 -12.167 -98 -36.5s-35.333 -62.5 -40 -114.5h-24z" />
    <glyph glyph-name="partialdiff" unicode="&#x2202;" horiz-adv-x="1034" 
d="M752 592c8 55.333 14 108.667 18 160s6 101 6 149c0 105.333 -13.333 186 -40 242s-65 84 -115 84c-33.333 0 -69.333 -22.833 -108 -68.5s-73 -68.5 -103 -68.5c-20.667 0 -38.167 6.66699 -52.5 20s-21.5 29 -21.5 47c0 41.333 21.167 77 63.5 107
s94.166 45 155.499 45c110 0 198 -50.167 264 -150.5s99 -235.833 99 -406.5c0 -222.667 -45.333 -408.167 -136 -556.5s-201.667 -222.5 -333 -222.5c-95.333 0 -173.166 35.667 -233.499 107s-90.5 164 -90.5 278c0 119.333 36.333 220.833 109 304.5s160 125.5 262 125.5
c65.333 0 118.833 -16 160.5 -48s73.5 -81.333 95.5 -148zM711 463.001c0 85.333 -15 149.667 -45 193s-74.667 65 -134 65c-75.333 0 -137.5 -41.5 -186.5 -124.5s-73.5 -190.5 -73.5 -322.5c0 -84 14.833 -146.833 44.5 -188.5s74.5 -62.5 134.5 -62.5
c74.667 0 136.667 41.833 186 125.5s74 188.5 74 314.5z" />
    <glyph glyph-name="Delta" unicode="&#x2206;" horiz-adv-x="1081" 
d="M514 1247l-391 -1118h766zM532 1497h29l512 -1497h-1067z" />
    <glyph glyph-name="product" unicode="&#x220f;" horiz-adv-x="1567" 
d="M59 1473h1448v-68h-188v-1731h188v-67h-524v67h201v1731h-803v-1731h203v-67h-525v67h187v1731h-187v68z" />
    <glyph glyph-name="summation" unicode="&#x2211;" horiz-adv-x="1409" 
d="M12 1473l1110 -0.000976562l90 -322h-71l-62 213c-3.33301 14 -11.166 24.333 -23.499 31s-30.5 10 -54.5 10h-780l907 -862v-37l-886 -772h899c38.667 0 63.834 4.33301 75.501 13s21.167 25.334 28.5 50.001l74 230h70l-127 -420h-1250v18l989 856l-989 946v46z" />
    <glyph glyph-name="minus" unicode="&#x2212;" horiz-adv-x="1706" 
d="M254 659h1198v-98h-1198v98z" />
    <glyph glyph-name="fraction" unicode="&#x2215;" horiz-adv-x="342" 
d="M618 1356l64 -45l-958 -1336l-66 48z" />
    <glyph glyph-name="periodcentered" unicode="&#x2219;" horiz-adv-x="526" 
d="M262 762c26.667 0 49.333 -9.33301 68 -28s28 -41.334 28 -68.001c0 -26 -9.5 -48.333 -28.5 -67s-41.5 -28 -67.5 -28c-24.667 0 -46.5 9.5 -65.5 28.5s-28.5 41.167 -28.5 66.5c0 26.667 9 49.334 27 68.001s40.333 28 67 28z" />
    <glyph glyph-name="radical" unicode="&#x221a;" horiz-adv-x="1276" 
d="M1098 1636h178v-71h-125l-594 -1606h-41l-328 899l-114 -39l-19 58l246 86l272 -746z" />
    <glyph glyph-name="infinity" unicode="&#x221e;" horiz-adv-x="1706" 
d="M897 559c34.667 -66.667 75.334 -116.501 122.001 -149.501s99.667 -49.5 159 -49.5c70.667 0 128.5 25 173.5 75s67.5 114 67.5 192c0 75.333 -20.833 137.833 -62.5 187.5s-93.834 74.5 -156.501 74.5c-57.333 0 -109 -24.667 -155 -74s-95.333 -134.666 -148 -255.999
zM811 667.999c-34.667 66 -75.166 115.168 -121.499 147.501s-99.5 48.5 -159.5 48.5c-70.667 0 -128.5 -24.833 -173.5 -74.5s-67.5 -112.834 -67.5 -189.501c0 -74.667 21 -137 63 -187s94 -75 156 -75c58 0 110.167 25 156.5 75s95.166 135 146.499 255zM868.001 502
c-48 -93.333 -97.5 -161.001 -148.5 -203.001s-108.5 -63 -172.5 -63c-88 0 -162.333 35.833 -223 107.5s-91 161.167 -91 268.5c0 112.667 27 203.334 81 272.001s124.667 103 212 103c65.333 0 122.833 -21.167 172.5 -63.5s96.167 -109.833 139.5 -202.5
c48 97.333 98 167 150 209s112.333 63 181 63c82 0 153.5 -36.333 214.5 -109s91.5 -162 91.5 -268c0 -112 -27 -202.333 -81 -271s-124.667 -103 -212 -103c-64 0 -120.333 20 -169 60s-97 106.667 -145 200z" />
    <glyph glyph-name="integral" unicode="&#x222b;" horiz-adv-x="985" 
d="M293 -272c69.333 0 108.333 237.665 117 712.998c1.33301 84.667 2.66602 150 3.99902 196c7.33301 324 40 556.833 98 698.5s147.333 212.5 268 212.5c46.667 0 84.667 -12.333 114 -37s44 -56.667 44 -96c0 -32 -9.5 -57.333 -28.5 -76s-45.167 -28 -78.5 -28
c-52 0 -86.333 23.167 -103 69.5s-28 69.5 -34 69.5c-70 0 -108.667 -207.667 -116 -623c-2.66699 -123.333 -5 -219.666 -7 -288.999c-10 -331.333 -43.667 -565.666 -101 -702.999s-146.333 -206 -267 -206c-46 0 -83.833 12 -113.5 36s-44.5 54.333 -44.5 91
c0 34 10.333 61 31 81s48 30 82 30c24 0 44.5 -5.5 61.5 -16.5s30.5 -28.167 40.5 -51.5c2.66699 -6 5 -17 7 -33c2.66699 -25.333 11.334 -38 26.001 -38z" />
    <glyph glyph-name="approxequal" unicode="&#x2248;" horiz-adv-x="1706" 
d="M1530 580l0.00292969 -111c-70.667 -49.333 -137.667 -85.833 -201 -109.5s-125.333 -35.5 -186 -35.5c-67.333 0 -164.333 23.167 -291 69.5s-222.334 69.5 -287.001 69.5c-54.667 0 -111.667 -12.167 -171 -36.5s-131.333 -65.5 -216 -123.5v111
c71.333 49.333 138.666 85.833 201.999 109.5s125 35.5 185 35.5c72.667 0 172.167 -22.833 298.5 -68.5s219.5 -68.5 279.5 -68.5c57.333 0 115.666 11.833 174.999 35.5s130 64.5 212 122.5zM1530 918l-0.000976562 -111
c-69.333 -49.333 -135.666 -85.833 -198.999 -109.5s-126 -35.5 -188 -35.5c-68.667 0 -166 23.167 -292 69.5s-221.333 69.5 -286 69.5c-54.667 0 -111.667 -12.167 -171 -36.5s-131.333 -65.5 -216 -123.5v113c70 48.667 137 85 201 109s126 36 186 36
c72.667 0 172.167 -23.167 298.5 -69.5s219.5 -69.5 279.5 -69.5c56 0 113 11.5 171 34.5s130 64.167 216 123.5z" />
    <glyph glyph-name="notequal" unicode="&#x2260;" horiz-adv-x="1706" 
d="M1214 1169l74 -59l-205 -264h369v-96h-432l-215 -277h647v-98h-709l-254 -324l-73 60l205 264h-367v98h428l215 277h-643v96h707z" />
    <glyph glyph-name="lessequal" unicode="&#x2264;" horiz-adv-x="1706" 
d="M264 139h1178v-98h-1178v98zM1442 1182v-107l-1010 -338l1010 -336v-106l-1178 401v84z" />
    <glyph glyph-name="greaterequal" unicode="&#x2265;" horiz-adv-x="1706" 
d="M264 139h1178v-98h-1178v98zM264 1182l1178 -402v-84l-1178 -401v106l1010 336l-1010 338v107z" />
    <glyph glyph-name="lozenge" unicode="&#x25ca;" horiz-adv-x="1012" 
d="M506 1409l-385 -817l385 -825l385 825zM506 1653l500 -1061l-500 -1069l-500 1069z" />
    <glyph glyph-name="apple" unicode="&#xf000;" horiz-adv-x="1618" 
d="M836 1216c-0.666992 4 -1.16699 8.66895 -1.5 14.002s-0.5 13 -0.5 23c0 82.667 31.667 159.167 95 229.5s142 114.166 236 131.499c0.666992 -6.66699 1.16699 -14.334 1.5 -23.001s0.5 -21.667 0.5 -39c0 -87.333 -34.5 -165.5 -103.5 -234.5
s-136.833 -103.5 -203.5 -103.5h-8c-2 0 -4.5 0.333008 -7.5 1s-5.83301 1 -8.5 1zM1505 403.002c-76 -164.667 -144.336 -278.834 -205.003 -342.501s-128.667 -95.5 -204 -95.5c-33.333 0 -77.166 11 -131.499 33s-95.166 33 -122.499 33c-30 0 -73.667 -11 -131 -33
s-99.666 -33 -126.999 -33c-42.667 0 -85.5 14.667 -128.5 44s-86.167 73.333 -129.5 132c-68 93.333 -120.5 191.833 -157.5 295.5s-55.5 203.834 -55.5 300.501c0 146 41.667 264.833 125 356.5s191 137.5 323 137.5c45.333 0 97 -11.333 155 -34s99.333 -34 124 -34
c22.667 0 63.167 11.667 121.5 35s109.166 35 152.499 35c73.333 0 139.333 -13.333 198 -40s112.334 -68 161.001 -124c-68 -43.333 -118.5 -91.833 -151.5 -145.5s-49.5 -114.5 -49.5 -182.5c0 -75.333 20 -142 60 -200s97.667 -104 173 -138z" />
    <glyph glyph-name="fi" unicode="&#xf001;" horiz-adv-x="1028" 
d="M635 -4l-0.000976562 33.002c38.667 4.66699 65.334 16.167 80.001 34.5s22 53.833 22 106.5v618c0 38 -5.83301 62.667 -17.5 74s-39.834 17.666 -84.501 18.999v30c32.667 5.33301 66.5 14.666 101.5 27.999s74.833 32 119.5 56c-2.66699 -26 -4.66699 -54.5 -6 -85.5
s-2 -65.833 -2 -104.5v-635c0 -52.667 7.33301 -88.167 22 -106.5s41.334 -29.833 80.001 -34.5v-33c-34 4.66699 -64.5 8.16699 -91.5 10.5s-48.833 3.5 -65.5 3.5s-38.667 -1.16699 -66 -3.5s-58 -5.83301 -92 -10.5zM104.999 -3.99805l-0.998047 32.998
c39.333 4.66699 66.666 16.334 81.999 35.001s23 54 23 106v711h-123v49c43.333 0 73.666 8.5 90.999 25.5s27.333 49.5 30 97.5c0 5.33301 0.333008 13.666 1 24.999c4.66699 96 11.667 162 21 198c16.667 60.667 51.334 108.167 104.001 142.5s117 51.5 193 51.5
c26.667 0 54.167 -1.66699 82.5 -5s58.833 -8.33301 91.5 -15l9 -121c10 16.667 21 28.667 33 36s26 11 42 11c25.333 0 46.333 -8.66699 63 -26s25 -38.666 25 -63.999c0 -24.667 -8.5 -45.834 -25.5 -63.501s-37.833 -26.5 -62.5 -26.5c-40 0 -71 31 -93 93
c-2 6 -3.66699 10.667 -5 14c-11.333 30.667 -30.333 53.334 -57 68.001s-61.667 22 -105 22c-70.667 0 -122.834 -21 -156.501 -63s-50.5 -107 -50.5 -195v-172h285v-82h-285v-711c0 -52 9.83301 -87.167 29.5 -105.5s55.834 -30.166 108.501 -35.499l-1 -33
c-26 4.66699 -52.833 8.16699 -80.5 10.5s-55.834 3.5 -84.501 3.5c-27.333 0 -56.333 -1.16699 -87 -3.5s-63 -5.83301 -97 -10.5z" />
    <glyph glyph-name="fl" unicode="&#xf002;" horiz-adv-x="1028" 
d="M856 1507c-2.66699 -26 -4.66797 -54.501 -6.00098 -85.501s-2 -65.833 -2 -104.5v-1147c0 -52.667 7.33301 -88.167 22 -106.5s41.334 -29.833 80.001 -34.5v-33c-34 4.66699 -64.5 8.16699 -91.5 10.5s-48.833 3.5 -65.5 3.5s-38.667 -1.16699 -66 -3.5
s-58 -5.83301 -92 -10.5v33c38.667 4.66699 65.334 16.167 80.001 34.5s22 53.833 22 106.5v969c0 86 -16.167 149.5 -48.5 190.5s-82.833 61.5 -151.5 61.5c-78 0 -134.167 -20 -168.5 -60s-51.5 -105.333 -51.5 -196v-172h332v-82h-332v-711
c0 -52 9.83301 -87.167 29.5 -105.5s55.834 -30.166 108.501 -35.499l-1 -33c-26 4.66699 -52.833 8.16699 -80.5 10.5s-55.834 3.5 -84.501 3.5c-27.333 0 -56.333 -1.16699 -87 -3.5s-63 -5.83301 -97 -10.5l-1 33c39.333 4.66699 66.666 16.334 81.999 35.001
s23 54 23 106v711h-123v49c43.333 0 73.666 8.5 90.999 25.5s27.333 49.5 30 97.5c0 4.66699 0.333008 12.667 1 24c4 96.667 11 163 21 199c16.667 59.333 52 107 106 143s117.667 54 191 54c44.667 0 84.834 -5 120.501 -15s67.167 -25 94.5 -45
c19.333 11.333 38.333 24.666 57 39.999s38 33.333 58 54z" />
    <glyph glyph-name=".null" horiz-adv-x="0" 
 />
    <glyph glyph-name="nonmarkingreturn" horiz-adv-x="526" 
 />
    </font>
</defs>
</svg>
